  0
SECTION
  2
HEADER
  9
$ACADVER
  1
AC1015
  9
$ACADMAINTVER
 70
           6
  9
$DWGCODEPAGE
  3
ANSI_1252
  9
$INSBASE
 10
0.0
 20
0.0
 30
0.0
  9
$EXTMIN
 10
-8.0
 20
-21.0
 30
-3.5
  9
$EXTMAX
 10
8.0
 20
31.0
 30
15.0
  9
$LIMMIN
 10
0.0
 20
0.0
  9
$LIMMAX
 10
12.0
 20
9.0
  9
$ORTHOMODE
 70
           1
  9
$REGENMODE
 70
           1
  9
$FILLMODE
 70
           1
  9
$QTEXTMODE
 70
           0
  9
$MIRRTEXT
 70
           1
  9
$LTSCALE
 40
1.0
  9
$ATTMODE
 70
           1
  9
$TEXTSIZE
 40
0.2
  9
$TRACEWID
 40
0.05
  9
$TEXTSTYLE
  7
STANDARD
  9
$CLAYER
  8
0
  9
$CELTYPE
  6
ByLayer
  9
$CECOLOR
 62
         256
  9
$CELTSCALE
 40
1.0
  9
$DISPSILH
 70
           0
  9
$DIMSCALE
 40
1.0
  9
$DIMASZ
 40
0.18
  9
$DIMEXO
 40
0.0625
  9
$DIMDLI
 40
0.38
  9
$DIMRND
 40
0.0
  9
$DIMDLE
 40
0.0
  9
$DIMEXE
 40
0.18
  9
$DIMTP
 40
0.0
  9
$DIMTM
 40
0.0
  9
$DIMTXT
 40
0.18
  9
$DIMCEN
 40
0.09
  9
$DIMTSZ
 40
0.0
  9
$DIMTOL
 70
           0
  9
$DIMLIM
 70
           0
  9
$DIMTIH
 70
           1
  9
$DIMTOH
 70
           1
  9
$DIMSE1
 70
           0
  9
$DIMSE2
 70
           0
  9
$DIMTAD
 70
           0
  9
$DIMZIN
 70
           0
  9
$DIMBLK
  1

  9
$DIMASO
 70
           1
  9
$DIMSHO
 70
           1
  9
$DIMPOST
  1

  9
$DIMAPOST
  1

  9
$DIMALT
 70
           0
  9
$DIMALTD
 70
           2
  9
$DIMALTF
 40
25.4
  9
$DIMLFAC
 40
1.0
  9
$DIMTOFL
 70
           0
  9
$DIMTVP
 40
0.0
  9
$DIMTIX
 70
           0
  9
$DIMSOXD
 70
           0
  9
$DIMSAH
 70
           0
  9
$DIMBLK1
  1

  9
$DIMBLK2
  1

  9
$DIMSTYLE
  2
STANDARD
  9
$DIMCLRD
 70
           0
  9
$DIMCLRE
 70
           0
  9
$DIMCLRT
 70
           0
  9
$DIMTFAC
 40
1.0
  9
$DIMGAP
 40
0.09
  9
$DIMJUST
 70
           0
  9
$DIMSD1
 70
           0
  9
$DIMSD2
 70
           0
  9
$DIMTOLJ
 70
           1
  9
$DIMTZIN
 70
           0
  9
$DIMALTZ
 70
           0
  9
$DIMALTTZ
 70
           0
  9
$DIMUPT
 70
           0
  9
$DIMDEC
 70
           4
  9
$DIMTDEC
 70
           4
  9
$DIMALTU
 70
           2
  9
$DIMALTTD
 70
           2
  9
$DIMTXSTY
  7
STANDARD
  9
$DIMAUNIT
 70
           0
  9
$DIMADEC
 70
          -1
  9
$DIMALTRND
 40
0.0
  9
$DIMAZIN
 70
           0
  9
$DIMDSEP
 70
           0
  9
$DIMATFIT
 70
           3
  9
$DIMFRAC
 70
           0
  9
$DIMLDRBLK
  1

  9
$DIMLUNIT
 70
           2
  9
$DIMLWD
 70
           0
  9
$DIMLWE
 70
           0
  9
$DIMTMOVE
 70
           0
  9
$LUNITS
 70
           2
  9
$LUPREC
 70
           4
  9
$SKETCHINC
 40
0.1
  9
$FILLETRAD
 40
0.5
  9
$AUNITS
 70
           0
  9
$AUPREC
 70
           0
  9
$MENU
  1
icad
  9
$ELEVATION
 40
0.0
  9
$PELEVATION
 40
0.0
  9
$THICKNESS
 40
0.0
  9
$LIMCHECK
 70
           0
  9
$CHAMFERA
 40
0.5
  9
$CHAMFERB
 40
0.5
  9
$CHAMFERC
 40
1.0
  9
$CHAMFERD
 40
0.0
  9
$SKPOLY
 70
           0
  9
$TDCREATE
 40
2444240.000000000
  9
$TDUCREATE
 40
0.000000000
  9
$TDUPDATE
 40
2452573.455549641
  9
$TDUUPDATE
 40
0.000000000
  9
$TDINDWG
 40
0.0000000000
  9
$TDUSRTIMER
 40
0.2934018171
  9
$USRTIMER
 70
           1
  9
$ANGBASE
 50
0.0
  9
$ANGDIR
 70
           0
  9
$PDMODE
 70
           0
  9
$PDSIZE
 40
0.0
  9
$PLINEWID
 40
0.0
  9
$SPLFRAME
 70
           0
  9
$SPLINETYPE
 70
           6
  9
$SPLINESEGS
 70
           8
  9
$HANDSEED
  5
1C3
  9
$SURFTAB1
 70
           6
  9
$SURFTAB2
 70
           6
  9
$SURFTYPE
 70
           6
  9
$SURFU
 70
           6
  9
$SURFV
 70
           6
  9
$UCSBASE
  2

  9
$UCSNAME
  2

  9
$UCSORG
 10
0.0
 20
0.0
 30
0.0
  9
$UCSXDIR
 10
1.0
 20
0.0
 30
0.0
  9
$UCSYDIR
 10
0.0
 20
1.0
 30
0.0
  9
$UCSORTHOREF
  2

  9
$UCSORTHOVIEW
 70
           0
  9
$UCSORGTOP
 10
0.0
 20
0.0
 30
0.0
  9
$UCSORGBOTTOM
 10
0.0
 20
0.0
 30
0.0
  9
$UCSORGLEFT
 10
0.0
 20
0.0
 30
0.0
  9
$UCSORGRIGHT
 10
0.0
 20
0.0
 30
0.0
  9
$UCSORGFRONT
 10
0.0
 20
0.0
 30
0.0
  9
$UCSORGBACK
 10
0.0
 20
0.0
 30
0.0
  9
$PUCSBASE
  2

  9
$PUCSNAME
  2

  9
$PUCSORG
 10
0.0
 20
0.0
 30
0.0
  9
$PUCSXDIR
 10
1.0
 20
0.0
 30
0.0
  9
$PUCSYDIR
 10
0.0
 20
1.0
 30
0.0
  9
$PUCSORTHOREF
  2

  9
$PUCSORTHOVIEW
 70
           0
  9
$PUCSORGTOP
 10
0.0
 20
0.0
 30
0.0
  9
$PUCSORGBOTTOM
 10
0.0
 20
0.0
 30
0.0
  9
$PUCSORGLEFT
 10
0.0
 20
0.0
 30
0.0
  9
$PUCSORGRIGHT
 10
0.0
 20
0.0
 30
0.0
  9
$PUCSORGFRONT
 10
0.0
 20
0.0
 30
0.0
  9
$PUCSORGBACK
 10
0.0
 20
0.0
 30
0.0
  9
$USERI1
 70
           0
  9
$USERI2
 70
           0
  9
$USERI3
 70
           0
  9
$USERI4
 70
           0
  9
$USERI5
 70
           0
  9
$USERR1
 40
0.0
  9
$USERR2
 40
0.0
  9
$USERR3
 40
0.0
  9
$USERR4
 40
0.0
  9
$USERR5
 40
0.0
  9
$WORLDVIEW
 70
           1
  9
$SHADEDGE
 70
           3
  9
$SHADEDIF
 70
          70
  9
$TILEMODE
 70
           1
  9
$MAXACTVP
 70
          16
  9
$PINSBASE
 10
0.0
 20
0.0
 30
0.0
  9
$PLIMCHECK
 70
           0
  9
$PEXTMIN
 10
1.000000000000E+20
 20
1.000000000000E+20
 30
1.000000000000E+20
  9
$PEXTMAX
 10
-1.000000000000E+20
 20
-1.000000000000E+20
 30
-1.000000000000E+20
  9
$PLIMMIN
 10
0.0
 20
0.0
  9
$PLIMMAX
 10
12.0
 20
9.0
  9
$UNITMODE
 70
           0
  9
$VISRETAIN
 70
           1
  9
$PLINEGEN
 70
           0
  9
$PSLTSCALE
 70
           1
  9
$TREEDEPTH
 70
        3020
  9
$CMLSTYLE
  2
Standard
  9
$CMLJUST
 70
           0
  9
$CMLSCALE
 40
1.0
  9
$PROXYGRAPHICS
 70
           1
  9
$MEASUREMENT
 70
           0
  9
$CELWEIGHT
370
           0
  9
$ENDCAPS
280
           0
  9
$JOINSTYLE
280
           0
  9
$LWDISPLAY
290
           0
  9
$INSUNITS
 70
           0
  9
$HYPERLINKBASE
  1

  9
$XEDIT
290
           1
  9
$CEPSNTYPE
380
           0
  9
$PSTYLEMODE
290
           0
  9
$FINGERPRINTGUID
  2

  9
$VERSIONGUID
  2

  9
$EXTNAMES
290
           1
  9
$PSVPSCALE
 40
0.0
  0
ENDSEC
  0
SECTION
  2
CLASSES
  0
CLASS
  1
LWPOLYLINE
  2
AcDbPolyline
  3
"AutoCAD"
 90
        0
280
           0
281
           1
  0
CLASS
  1
IMAGE
  2
AcDbRasterImage
  3
ISM
 90
      127
280
           0
281
           1
  0
CLASS
  1
OLE2FRAME
  2
AcDbOle2Frame
  3
""
 90
        0
280
           0
281
           1
  0
CLASS
  1
HATCH
  2
AcDbHatch
  3
"ACAD_SEDONA"
 90
        0
280
           0
281
           1
  0
CLASS
  1
DICTIONARYVAR
  2
AcDbDictionaryVar
  3
"AutoCAD"
 90
        0
280
           0
281
           0
  0
CLASS
  1
RASTERVARIABLES
  2
AcDbRasterVariables
  3
ISM
 90
        0
280
           0
281
           0
  0
CLASS
  1
IMAGEDEF
  2
AcDbRasterImageDef
  3
"AutoCAD"
 90
        0
280
           0
281
           0
  0
CLASS
  1
IMAGEDEF_REACTOR
  2
AcDbRasterImageDefReactor
  3
ISM
 90
        1
280
           0
281
           0
  0
CLASS
  1
IDBUFFER
  2
AcDbIdBuffer
  3
"Acad"
 90
        0
280
           0
281
           0
  0
CLASS
  1
SPATIAL_FILTER
  2
AcDbSpatialFilter
  3
"Acad"
 90
        0
280
           0
281
           0
  0
CLASS
  1
XRECORD
  2
AcDbXrecord
  3
"<Built In>"
 90
        0
280
           0
281
           0
  0
CLASS
  1
SORTENTSTABLE
  2
AcDbSortentsTable
  3
"AutoCAD"
 90
        0
280
           0
281
           0
  0
CLASS
  1
LAYER_INDEX
  2
AcDbLayerIndex
  3
"Acad"
 90
        0
280
           0
281
           0
  0
CLASS
  1
SPATIAL_INDEX
  2
AcDbSpatialIndex
  3
"Acad"
 90
        0
280
           0
281
           0
  0
CLASS
  1
OBJECT_PTR
  2
CAseDLPNTableRecord
  3
"ASE-LPNTableRecord"
 90
        1
280
           0
281
           0
  0
CLASS
  1
LAYOUT
  2
AcDbLayout
  3
"AutoCAD 2000"
 90
        1
280
           0
281
           0
  0
CLASS
  1
PLOTSETTINGS
  2
AcDbPlotsettings
  3
"AutoCAD 2000"
 90
        1
280
           0
281
           0
  0
CLASS
  1
ACDBDICTIONARYWDFLT
  2
AcDbDictionaryWithDefault
  3
"AutoCAD 2000"
 90
        1
280
           0
281
           0
  0
CLASS
  1
ACDBPLACEHOLDER
  2
AcDbPlaceholder
  3
"AutoCAD 2000"
 90
        1
280
           0
281
           0
  0
CLASS
  1
VBA_PROJECT
  2
AcDbVbaProject
  3
"AutoCAD 2000"
 90
        1
280
           0
281
           0
  0
CLASS
  1
WIPEOUT
  2
AcDbWipeout
  3
"AutoCAD 2000"
 90
        1
280
           0
281
           1
  0
CLASS
  1
WIPEOUTVARIABLES
  2
AcDbWipeoutVariables
  3
"AutoCAD 2000"
 90
        1
280
           0
281
           0
  0
CLASS
  1
RTEXT
  2
RText
  3
RText|AutoCAD Express Tool|expresstools@autodesk.com
 90
        1
280
           0
281
           1
  0
CLASS
  1
ARCALIGNEDTEXT
  2
AcDbArcAlignedText
  3
RText|AutoCAD Express Tool|expresstools@autodesk.com
 90
        1
280
           0
281
           1
  0
ENDSEC
  0
SECTION
  2
TABLES
  0
TABLE
  2
VPORT
  5
8
100
AcDbSymbolTable
 70
           1
  0
VPORT
  5
2C
100
AcDbSymbolTableRecord
100
AcDbViewportTableRecord
  2
*ACTIVE
 70
           0
 10
0.0
 20
0.0
 11
1.0
 21
1.0
 12
6.24334
 22
4.5
 13
0.0
 23
0.0
 14
0.5
 24
0.5
 15
0.5
 25
0.5
 16
0.0
 26
0.0
 36
1.0
 17
0.0
 27
0.0
 37
0.0
 40
9.0
 41
1.333333333333
 42
50.0
 43
0.0
 44
0.0
 50
0.0
 51
0.0
 71
           0
 72
         100
 73
           1
 74
           1
 75
           0
 76
           0
 77
           0
 78
           0
281
           0
 65
           0
110
0.0
120
0.0
130
0.0
111
1.0
121
0.0
131
0.0
112
0.0
122
1.0
132
0.0
345
0
346
0
 79
           0
146
0.0
  0
ENDTAB
  0
TABLE
  2
LTYPE
  5
5
100
AcDbSymbolTable
 70
           3
  0
LTYPE
  5
26
100
AcDbSymbolTableRecord
100
AcDbLinetypeTableRecord
  2
BYBLOCK
 70
           0
  3
CONTINUOUS
 72
          65
 73
           0
 40
0.0
  0
LTYPE
  5
25
100
AcDbSymbolTableRecord
100
AcDbLinetypeTableRecord
  2
BYLAYER
 70
           0
  3
CONTINUOUS
 72
          65
 73
           0
 40
0.0
  0
LTYPE
  5
27
100
AcDbSymbolTableRecord
100
AcDbLinetypeTableRecord
  2
CONTINUOUS
 70
           0
  3
CONTINUOUS
 72
          65
 73
           0
 40
0.0
  0
ENDTAB
  0
TABLE
  2
LAYER
  5
2
100
AcDbSymbolTable
 70
           1
  0
LAYER
  5
28
100
AcDbSymbolTableRecord
100
AcDbLayerTableRecord
  2
0
 70
          64
 62
           7
  6
CONTINUOUS
290
           1
370
          -3
390
1E
  0
ENDTAB
  0
TABLE
  2
STYLE
  5
3
100
AcDbSymbolTable
 70
           1
  0
STYLE
  5
29
100
AcDbSymbolTableRecord
100
AcDbTextStyleTableRecord
  2
STANDARD
 70
          64
 40
0.0
 41
1.0
 50
0.0
 71
           0
 42
0.2
  3
txt.shx
  4

  0
ENDTAB
  0
TABLE
  2
VIEW
  5
6
100
AcDbSymbolTable
 70
           0
  0
ENDTAB
  0
TABLE
  2
UCS
  5
7
100
AcDbSymbolTable
 70
           0
  0
ENDTAB
  0
TABLE
  2
APPID
  5
9
100
AcDbSymbolTable
 70
           1
  0
APPID
  5
2B
100
AcDbSymbolTableRecord
100
AcDbRegAppTableRecord
  2
ACAD
 70
           0
  0
ENDTAB
  0
TABLE
  2
DIMSTYLE
  5
A
100
AcDbSymbolTable
 70
           1
100
AcDbDimStyleTable
 71
           0
  0
DIMSTYLE
105
2A
100
AcDbSymbolTableRecord
100
AcDbDimStyleTableRecord
  2
STANDARD
 70
          64
  3

  4

 40
1.0
 41
0.18
 42
0.0625
 43
0.38
 44
0.18
 45
0.0
 46
0.0
 47
0.0
 48
0.0
 71
           0
 72
           0
 73
           1
 74
           1
 75
           0
 76
           0
 77
           0
 78
           0
 79
           0
140
0.18
141
0.09
142
0.0
143
25.4
144
1.0
145
0.0
146
1.0
147
0.09
148
0.0
170
           0
171
           2
172
           0
173
           0
174
           0
175
           0
176
           0
177
           0
178
           0
179
           0
271
           4
272
           4
273
           2
274
           2
275
           0
276
           0
277
           2
278
          46
279
           0
280
           0
281
           0
282
           0
283
           1
284
           0
285
           0
286
           0
288
           0
340
29
341
0
342
0
343
0
344
0
371
          -2
372
          -2
  0
ENDTAB
  0
TABLE
  2
BLOCK_RECORD
  5
1
100
AcDbSymbolTable
 70
           0
  0
BLOCK_RECORD
  5
19
100
AcDbSymbolTableRecord
100
AcDbBlockTableRecord
  2
*MODEL_SPACE
340
1F
  0
BLOCK_RECORD
  5
16
100
AcDbSymbolTableRecord
100
AcDbBlockTableRecord
  2
*PAPER_SPACE
340
20
  0
ENDTAB
  0
ENDSEC
  0
SECTION
  2
BLOCKS
  0
BLOCK
  5
1A
100
AcDbEntity
  8
0
100
AcDbBlockBegin
  2
*MODEL_SPACE
 70
           0
 10
0.0
 20
0.0
 30
0.0
  3
*MODEL_SPACE
  1

  0
ENDBLK
  5
1B
100
AcDbEntity
  8
0
100
AcDbBlockEnd
  0
BLOCK
  5
17
100
AcDbEntity
 67
           1
  8
0
100
AcDbBlockBegin
  2
*PAPER_SPACE
 70
           0
 10
0.0
 20
0.0
 30
0.0
  3
*PAPER_SPACE
  1

  0
ENDBLK
  5
18
100
AcDbEntity
 67
           1
  8
0
100
AcDbBlockEnd
  0
ENDSEC
  0
SECTION
  2
ENTITIES
  0
3DFACE
  5
31
100
AcDbEntity
  8
0
100
AcDbFace
 10
-4.0
 20
0.0
 30
0.0
 11
4.0
 21
0.0
 31
0.0
 12
4.0
 22
-6.0
 32
0.0
 13
-4.0
 23
-6.0
 33
0.0
  0
3DFACE
  5
32
100
AcDbEntity
  8
0
100
AcDbFace
 10
4.0
 20
-6.0
 30
0.0
 11
6.0
 21
-6.0
 31
0.0
 12
6.0
 22
-10.0
 32
0.0
 13
3.0
 23
-14.0
 33
0.0
  0
3DFACE
  5
33
100
AcDbEntity
  8
0
100
AcDbFace
 10
3.0
 20
-14.0
 30
0.0
 11
3.0
 21
-16.0
 31
0.0
 12
-3.0
 22
-16.0
 32
0.0
 13
-3.0
 23
-14.0
 33
0.0
  0
3DFACE
  5
34
100
AcDbEntity
  8
0
100
AcDbFace
 10
-4.0
 20
-6.0
 30
0.0
 11
-6.0
 21
-6.0
 31
0.0
 12
-6.0
 22
-10.0
 32
0.0
 13
-3.0
 23
-14.0
 33
0.0
  0
3DFACE
  5
35
100
AcDbEntity
  8
0
100
AcDbFace
 10
-4.0
 20
-6.0
 30
0.0
 11
4.0
 21
-6.0
 31
0.0
 12
3.0
 22
-14.0
 32
0.0
 13
-3.0
 23
-14.0
 33
0.0
  0
3DFACE
  5
36
100
AcDbEntity
  8
0
100
AcDbFace
 10
-4.0
 20
0.0
 30
0.0
 11
4.0
 21
0.0
 31
0.0
 12
4.0
 22
-6.0
 32
0.0
 13
-4.0
 23
-6.0
 33
0.0
  0
3DFACE
  5
37
100
AcDbEntity
  8
0
100
AcDbFace
 10
4.0
 20
-6.0
 30
0.0
 11
6.0
 21
-6.0
 31
0.0
 12
6.0
 22
-10.0
 32
0.0
 13
3.0
 23
-14.0
 33
0.0
  0
3DFACE
  5
38
100
AcDbEntity
  8
0
100
AcDbFace
 10
3.0
 20
-14.0
 30
0.0
 11
3.0
 21
-16.0
 31
0.0
 12
-3.0
 22
-16.0
 32
0.0
 13
-3.0
 23
-14.0
 33
0.0
  0
3DFACE
  5
39
100
AcDbEntity
  8
0
100
AcDbFace
 10
-4.0
 20
-6.0
 30
0.0
 11
-6.0
 21
-6.0
 31
0.0
 12
-6.0
 22
-10.0
 32
0.0
 13
-3.0
 23
-14.0
 33
0.0
  0
3DFACE
  5
3A
100
AcDbEntity
  8
0
100
AcDbFace
 10
-4.0
 20
-6.0
 30
0.0
 11
4.0
 21
-6.0
 31
0.0
 12
3.0
 22
-14.0
 32
0.0
 13
-3.0
 23
-14.0
 33
0.0
  0
3DFACE
  5
3B
100
AcDbEntity
  8
0
100
AcDbFace
 10
-4.0
 20
0.0
 30
2.0
 11
4.0
 21
0.0
 31
2.0
 12
4.0
 22
-6.0
 32
2.0
 13
-4.0
 23
-6.0
 33
2.0
  0
3DFACE
  5
3C
100
AcDbEntity
  8
0
100
AcDbFace
 10
4.0
 20
-6.0
 30
2.0
 11
6.0
 21
-6.0
 31
2.0
 12
6.0
 22
-10.0
 32
2.0
 13
3.0
 23
-14.0
 33
2.0
  0
3DFACE
  5
3D
100
AcDbEntity
  8
0
100
AcDbFace
 10
3.0
 20
-14.0
 30
2.0
 11
3.0
 21
-16.0
 31
2.0
 12
-3.0
 22
-16.0
 32
2.0
 13
-3.0
 23
-14.0
 33
2.0
  0
3DFACE
  5
3E
100
AcDbEntity
  8
0
100
AcDbFace
 10
-4.0
 20
-6.0
 30
2.0
 11
-6.0
 21
-6.0
 31
2.0
 12
-6.0
 22
-10.0
 32
2.0
 13
-3.0
 23
-14.0
 33
2.0
  0
3DFACE
  5
3F
100
AcDbEntity
  8
0
100
AcDbFace
 10
-4.0
 20
-6.0
 30
2.0
 11
4.0
 21
-6.0
 31
2.0
 12
3.0
 22
-14.0
 32
2.0
 13
-3.0
 23
-14.0
 33
2.0
  0
3DFACE
  5
40
100
AcDbEntity
  8
0
100
AcDbFace
 10
-4.0
 20
0.0
 30
2.0
 11
4.0
 21
0.0
 31
2.0
 12
4.0
 22
-6.0
 32
2.0
 13
-4.0
 23
-6.0
 33
2.0
  0
3DFACE
  5
41
100
AcDbEntity
  8
0
100
AcDbFace
 10
4.0
 20
-6.0
 30
2.0
 11
6.0
 21
-6.0
 31
2.0
 12
6.0
 22
-10.0
 32
2.0
 13
3.0
 23
-14.0
 33
2.0
  0
3DFACE
  5
42
100
AcDbEntity
  8
0
100
AcDbFace
 10
3.0
 20
-14.0
 30
2.0
 11
3.0
 21
-16.0
 31
2.0
 12
-3.0
 22
-16.0
 32
2.0
 13
-3.0
 23
-14.0
 33
2.0
  0
3DFACE
  5
43
100
AcDbEntity
  8
0
100
AcDbFace
 10
-4.0
 20
-6.0
 30
2.0
 11
-6.0
 21
-6.0
 31
2.0
 12
-6.0
 22
-10.0
 32
2.0
 13
-3.0
 23
-14.0
 33
2.0
  0
3DFACE
  5
44
100
AcDbEntity
  8
0
100
AcDbFace
 10
-4.0
 20
-6.0
 30
2.0
 11
4.0
 21
-6.0
 31
2.0
 12
3.0
 22
-14.0
 32
2.0
 13
-3.0
 23
-14.0
 33
2.0
  0
3DFACE
  5
45
100
AcDbEntity
  8
0
100
AcDbFace
 10
4.0
 20
0.0
 30
2.0
 11
4.0
 21
0.0
 31
0.0
 12
4.0
 22
-6.0
 32
0.0
 13
4.0
 23
-6.0
 33
2.0
  0
3DFACE
  5
46
100
AcDbEntity
  8
0
100
AcDbFace
 10
-4.0
 20
0.0
 30
2.0
 11
-4.0
 21
0.0
 31
0.0
 12
-4.0
 22
-6.0
 32
0.0
 13
-4.0
 23
-6.0
 33
2.0
  0
3DFACE
  5
47
100
AcDbEntity
  8
0
100
AcDbFace
 10
6.0
 20
-6.0
 30
0.0
 11
6.0
 21
-6.0
 31
2.0
 12
6.0
 22
-10.0
 32
2.0
 13
6.0
 23
-10.0
 33
0.0
  0
3DFACE
  5
48
100
AcDbEntity
  8
0
100
AcDbFace
 10
3.0
 20
-14.0
 30
2.0
 11
3.0
 21
-14.0
 31
0.0
 12
6.0
 22
-10.0
 32
0.0
 13
6.0
 23
-10.0
 33
2.0
  0
3DFACE
  5
49
100
AcDbEntity
  8
0
100
AcDbFace
 10
3.0
 20
-16.0
 30
2.0
 11
3.0
 21
-16.0
 31
0.0
 12
3.0
 22
-14.0
 32
0.0
 13
3.0
 23
-14.0
 33
2.0
  0
3DFACE
  5
4A
100
AcDbEntity
  8
0
100
AcDbFace
 10
-3.0
 20
-16.0
 30
2.0
 11
-3.0
 21
-16.0
 31
0.0
 12
-3.0
 22
-14.0
 32
0.0
 13
-3.0
 23
-14.0
 33
2.0
  0
3DFACE
  5
4B
100
AcDbEntity
  8
0
100
AcDbFace
 10
-6.0
 20
-10.0
 30
2.0
 11
-6.0
 21
-10.0
 31
0.0
 12
-6.0
 22
-6.0
 32
0.0
 13
-6.0
 23
-6.0
 33
2.0
  0
3DFACE
  5
4C
100
AcDbEntity
  8
0
100
AcDbFace
 10
-3.0
 20
-14.0
 30
2.0
 11
-3.0
 21
-14.0
 31
0.0
 12
-6.0
 22
-10.0
 32
0.0
 13
-6.0
 23
-10.0
 33
2.0
  0
3DFACE
  5
4D
100
AcDbEntity
  8
0
100
AcDbFace
 10
-3.0
 20
-16.0
 30
0.0
 11
-3.0
 21
-16.0
 31
2.0
 12
3.0
 22
-16.0
 32
2.0
 13
3.0
 23
-16.0
 33
0.0
  0
3DFACE
  5
4E
100
AcDbEntity
  8
0
100
AcDbFace
 10
-4.0
 20
0.0
 30
2.0
 11
-4.0
 21
0.0
 31
0.0
 12
4.0
 22
0.0
 32
0.0
 13
4.0
 23
0.0
 33
2.0
  0
3DFACE
  5
4F
100
AcDbEntity
  8
0
100
AcDbFace
 10
6.0
 20
-6.0
 30
2.0
 11
6.0
 21
-6.0
 31
0.0
 12
4.0
 22
-6.0
 32
0.0
 13
4.0
 23
-6.0
 33
2.0
  0
3DFACE
  5
50
100
AcDbEntity
  8
0
100
AcDbFace
 10
-4.0
 20
-6.0
 30
0.0
 11
-4.0
 21
-6.0
 31
2.0
 12
-6.0
 22
-6.0
 32
2.0
 13
-6.0
 23
-6.0
 33
0.0
  0
3DFACE
  5
51
100
AcDbEntity
  8
0
100
AcDbFace
 10
-5.5
 20
-2.423879532511
 30
0.617316567635
 11
-5.5
 21
-2.207106781187
 31
0.292893218813
 12
-4.0
 22
-2.207106781187
 32
0.292893218813
 13
-4.0
 23
-2.423879532511
 33
0.617316567635
  0
3DFACE
  5
52
100
AcDbEntity
  8
0
100
AcDbFace
 10
-5.5
 20
-2.207106781187
 30
0.292893218813
 11
-5.5
 21
-1.882683432365
 31
0.076120467489
 12
-4.0
 22
-1.882683432365
 32
0.076120467489
 13
-4.0
 23
-2.207106781187
 33
0.292893218813
  0
3DFACE
  5
53
100
AcDbEntity
  8
0
100
AcDbFace
 10
-5.5
 20
-1.882683432365
 30
0.076120467489
 11
-5.5
 21
-1.5
 31
0.0
 12
-4.0
 22
-1.5
 32
0.0
 13
-4.0
 23
-1.882683432365
 33
0.076120467489
  0
3DFACE
  5
54
100
AcDbEntity
  8
0
100
AcDbFace
 10
-5.5
 20
-1.5
 30
0.0
 11
-5.5
 21
-1.117316567635
 31
0.076120467489
 12
-4.0
 22
-1.117316567635
 32
0.076120467489
 13
-4.0
 23
-1.5
 33
0.0
  0
3DFACE
  5
55
100
AcDbEntity
  8
0
100
AcDbFace
 10
-5.5
 20
-1.117316567635
 30
0.076120467489
 11
-5.5
 21
-0.792893218813
 31
0.292893218813
 12
-4.0
 22
-0.792893218813
 32
0.292893218813
 13
-4.0
 23
-1.117316567635
 33
0.076120467489
  0
3DFACE
  5
56
100
AcDbEntity
  8
0
100
AcDbFace
 10
-5.5
 20
-0.792893218813
 30
0.292893218813
 11
-5.5
 21
-0.576120467489
 31
0.617316567635
 12
-4.0
 22
-0.576120467489
 32
0.617316567635
 13
-4.0
 23
-0.792893218813
 33
0.292893218813
  0
3DFACE
  5
57
100
AcDbEntity
  8
0
100
AcDbFace
 10
-5.5
 20
-0.576120467489
 30
0.617316567635
 11
-5.5
 21
-0.5
 31
1.0
 12
-4.0
 22
-0.5
 32
1.0
 13
-4.0
 23
-0.576120467489
 33
0.617316567635
  0
3DFACE
  5
58
100
AcDbEntity
  8
0
100
AcDbFace
 10
-5.5
 20
-0.5
 30
1.0
 11
-5.5
 21
-0.576120467489
 31
1.382683432365
 12
-4.0
 22
-0.576120467489
 32
1.382683432365
 13
-4.0
 23
-0.5
 33
1.0
  0
3DFACE
  5
59
100
AcDbEntity
  8
0
100
AcDbFace
 10
-5.5
 20
-0.576120467489
 30
1.382683432365
 11
-5.5
 21
-0.792893218813
 31
1.707106781187
 12
-4.0
 22
-0.792893218813
 32
1.707106781187
 13
-4.0
 23
-0.576120467489
 33
1.382683432365
  0
3DFACE
  5
5A
100
AcDbEntity
  8
0
100
AcDbFace
 10
-5.5
 20
-0.792893218813
 30
1.707106781187
 11
-5.5
 21
-1.117316567635
 31
1.923879532511
 12
-4.0
 22
-1.117316567635
 32
1.923879532511
 13
-4.0
 23
-0.792893218813
 33
1.707106781187
  0
3DFACE
  5
5B
100
AcDbEntity
  8
0
100
AcDbFace
 10
-5.5
 20
-1.117316567635
 30
1.923879532511
 11
-5.5
 21
-1.5
 31
2.0
 12
-4.0
 22
-1.5
 32
2.0
 13
-4.0
 23
-1.117316567635
 33
1.923879532511
  0
3DFACE
  5
5C
100
AcDbEntity
  8
0
100
AcDbFace
 10
-5.5
 20
-2.207106781187
 30
1.707106781187
 11
-5.5
 21
-2.423879532511
 31
1.382683432365
 12
-4.0
 22
-2.423879532511
 32
1.382683432365
 13
-4.0
 23
-2.207106781187
 33
1.707106781187
  0
3DFACE
  5
5D
100
AcDbEntity
  8
0
100
AcDbFace
 10
-5.5
 20
-2.423879532511
 30
1.382683432365
 11
-5.5
 21
-2.5
 31
1.0
 12
-4.0
 22
-2.5
 32
1.0
 13
-4.0
 23
-2.423879532511
 33
1.382683432365
  0
3DFACE
  5
5E
100
AcDbEntity
  8
0
100
AcDbFace
 10
-5.5
 20
-2.5
 30
1.0
 11
-5.5
 21
-2.423879532511
 31
0.617316567635
 12
-4.0
 22
-2.423879532511
 32
0.617316567635
 13
-4.0
 23
-2.5
 33
1.0
  0
3DFACE
  5
5F
100
AcDbEntity
  8
0
100
AcDbFace
 10
4.0
 20
-2.423879532511
 30
0.617316567635
 11
4.0
 21
-2.207106781187
 31
0.292893218813
 12
5.5
 22
-2.207106781187
 32
0.292893218813
 13
5.5
 23
-2.423879532511
 33
0.617316567635
  0
3DFACE
  5
60
100
AcDbEntity
  8
0
100
AcDbFace
 10
4.0
 20
-2.207106781187
 30
0.292893218813
 11
4.0
 21
-1.882683432365
 31
0.076120467489
 12
5.5
 22
-1.882683432365
 32
0.076120467489
 13
5.5
 23
-2.207106781187
 33
0.292893218813
  0
3DFACE
  5
61
100
AcDbEntity
  8
0
100
AcDbFace
 10
4.0
 20
-1.882683432365
 30
0.076120467489
 11
4.0
 21
-1.5
 31
0.0
 12
5.5
 22
-1.5
 32
0.0
 13
5.5
 23
-1.882683432365
 33
0.076120467489
  0
3DFACE
  5
62
100
AcDbEntity
  8
0
100
AcDbFace
 10
4.0
 20
-1.5
 30
0.0
 11
4.0
 21
-1.117316567635
 31
0.076120467489
 12
5.5
 22
-1.117316567635
 32
0.076120467489
 13
5.5
 23
-1.5
 33
0.0
  0
3DFACE
  5
63
100
AcDbEntity
  8
0
100
AcDbFace
 10
4.0
 20
-1.117316567635
 30
0.076120467489
 11
4.0
 21
-0.792893218813
 31
0.292893218813
 12
5.5
 22
-0.792893218813
 32
0.292893218813
 13
5.5
 23
-1.117316567635
 33
0.076120467489
  0
3DFACE
  5
64
100
AcDbEntity
  8
0
100
AcDbFace
 10
4.0
 20
-0.792893218813
 30
0.292893218813
 11
4.0
 21
-0.576120467489
 31
0.617316567635
 12
5.5
 22
-0.576120467489
 32
0.617316567635
 13
5.5
 23
-0.792893218813
 33
0.292893218813
  0
3DFACE
  5
65
100
AcDbEntity
  8
0
100
AcDbFace
 10
4.0
 20
-0.576120467489
 30
0.617316567635
 11
4.0
 21
-0.5
 31
1.0
 12
5.5
 22
-0.5
 32
1.0
 13
5.5
 23
-0.576120467489
 33
0.617316567635
  0
3DFACE
  5
66
100
AcDbEntity
  8
0
100
AcDbFace
 10
4.0
 20
-0.5
 30
1.0
 11
4.0
 21
-0.576120467489
 31
1.382683432365
 12
5.5
 22
-0.576120467489
 32
1.382683432365
 13
5.5
 23
-0.5
 33
1.0
  0
3DFACE
  5
67
100
AcDbEntity
  8
0
100
AcDbFace
 10
4.0
 20
-0.576120467489
 30
1.382683432365
 11
4.0
 21
-0.792893218813
 31
1.707106781187
 12
5.5
 22
-0.792893218813
 32
1.707106781187
 13
5.5
 23
-0.576120467489
 33
1.382683432365
  0
3DFACE
  5
68
100
AcDbEntity
  8
0
100
AcDbFace
 10
4.0
 20
-0.792893218813
 30
1.707106781187
 11
4.0
 21
-1.117316567635
 31
1.923879532511
 12
5.5
 22
-1.117316567635
 32
1.923879532511
 13
5.5
 23
-0.792893218813
 33
1.707106781187
  0
3DFACE
  5
69
100
AcDbEntity
  8
0
100
AcDbFace
 10
4.0
 20
-1.117316567635
 30
1.923879532511
 11
4.0
 21
-1.5
 31
2.0
 12
5.5
 22
-1.5
 32
2.0
 13
5.5
 23
-1.117316567635
 33
1.923879532511
  0
3DFACE
  5
6A
100
AcDbEntity
  8
0
100
AcDbFace
 10
4.0
 20
-1.5
 30
2.0
 11
4.0
 21
-1.882683432365
 31
1.923879532511
 12
5.5
 22
-1.882683432365
 32
1.923879532511
 13
5.5
 23
-1.5
 33
2.0
  0
3DFACE
  5
6B
100
AcDbEntity
  8
0
100
AcDbFace
 10
4.0
 20
-1.882683432365
 30
1.923879532511
 11
4.0
 21
-2.207106781187
 31
1.707106781187
 12
5.5
 22
-2.207106781187
 32
1.707106781187
 13
5.5
 23
-1.882683432365
 33
1.923879532511
  0
3DFACE
  5
6C
100
AcDbEntity
  8
0
100
AcDbFace
 10
4.0
 20
-2.207106781187
 30
1.707106781187
 11
4.0
 21
-2.423879532511
 31
1.382683432365
 12
5.5
 22
-2.423879532511
 32
1.382683432365
 13
5.5
 23
-2.207106781187
 33
1.707106781187
  0
3DFACE
  5
6D
100
AcDbEntity
  8
0
100
AcDbFace
 10
4.0
 20
-2.423879532511
 30
1.382683432365
 11
4.0
 21
-2.5
 31
1.0
 12
5.5
 22
-2.5
 32
1.0
 13
5.5
 23
-2.423879532511
 33
1.382683432365
  0
3DFACE
  5
6E
100
AcDbEntity
  8
0
100
AcDbFace
 10
4.0
 20
-2.5
 30
1.0
 11
4.0
 21
-2.423879532511
 31
0.617316567635
 12
5.5
 22
-2.423879532511
 32
0.617316567635
 13
5.5
 23
-2.5
 33
1.0
  0
LINE
  5
6F
100
AcDbEntity
  8
0
100
AcDbLine
 10
-5.5
 20
-1.5
 30
2.0
 11
-5.5
 21
-1.882683432365
 31
1.923879532511
  0
LINE
  5
70
100
AcDbEntity
  8
0
100
AcDbLine
 10
-4.0
 20
-1.882683432365
 30
1.923879532511
 11
-4.0
 21
-1.5
 31
2.0
  0
LINE
  5
71
100
AcDbEntity
  8
0
100
AcDbLine
 10
-5.5
 20
-1.882683432365
 30
1.923879532511
 11
-4.0
 21
-1.882683432365
 31
1.923879532511
  0
LINE
  5
72
100
AcDbEntity
  8
0
100
AcDbLine
 10
-4.0
 20
-1.5
 30
2.0
 11
-5.5
 21
-1.5
 31
2.0
  0
LINE
  5
73
100
AcDbEntity
  8
0
100
AcDbLine
 10
-5.5
 20
-1.882683432365
 30
1.923879532511
 11
-5.5
 21
-2.207106781187
 31
1.707106781187
  0
LINE
  5
74
100
AcDbEntity
  8
0
100
AcDbLine
 10
-4.0
 20
-2.207106781187
 30
1.707106781187
 11
-4.0
 21
-1.882683432365
 31
1.923879532511
  0
LINE
  5
75
100
AcDbEntity
  8
0
100
AcDbLine
 10
-5.5
 20
-2.207106781187
 30
1.707106781187
 11
-4.0
 21
-2.207106781187
 31
1.707106781187
  0
LINE
  5
76
100
AcDbEntity
  8
0
100
AcDbLine
 10
-4.0
 20
-1.882683432365
 30
1.923879532511
 11
-5.5
 21
-1.882683432365
 31
1.923879532511
  0
3DFACE
  5
77
100
AcDbEntity
  8
0
100
AcDbFace
 10
-5.5
 20
-1.75
 30
1.25
 11
-5.5
 21
-1.75
 31
0.75
 12
-6.5
 22
-1.75
 32
0.75
 13
-6.5
 23
-1.75
 33
1.25
  0
3DFACE
  5
78
100
AcDbEntity
  8
0
100
AcDbFace
 10
-5.5
 20
-1.75
 30
0.75
 11
-5.5
 21
-1.75
 31
0.75
 12
-6.5
 22
-1.75
 32
0.75
 13
-6.5
 23
-1.75
 33
0.75
  0
3DFACE
  5
79
100
AcDbEntity
  8
0
100
AcDbFace
 10
-6.5
 20
-1.75
 30
1.25
 11
-6.5
 21
-1.75
 31
0.75
 12
-6.5
 22
-1.25
 32
0.75
 13
-6.5
 23
-1.25
 33
1.25
  0
3DFACE
  5
7A
100
AcDbEntity
  8
0
100
AcDbFace
 10
-6.5
 20
-1.75
 30
0.75
 11
-6.5
 21
-1.75
 31
0.75
 12
-6.5
 22
-1.75
 32
0.75
 13
-6.5
 23
-1.25
 33
0.75
  0
3DFACE
  5
7B
100
AcDbEntity
  8
0
100
AcDbFace
 10
-6.5
 20
-1.25
 30
1.25
 11
-6.5
 21
-1.25
 31
0.75
 12
-5.5
 22
-1.25
 32
0.75
 13
-5.5
 23
-1.25
 33
1.25
  0
3DFACE
  5
7C
100
AcDbEntity
  8
0
100
AcDbFace
 10
-6.5
 20
-1.25
 30
0.75
 11
-6.5
 21
-1.75
 31
0.75
 12
-5.5
 22
-1.75
 32
0.75
 13
-5.5
 23
-1.25
 33
0.75
  0
3DFACE
  5
7D
100
AcDbEntity
  8
0
100
AcDbFace
 10
-5.5
 20
-1.25
 30
1.25
 11
-5.5
 21
-1.25
 31
0.75
 12
-5.5
 22
-1.25
 32
1.25
 13
-5.5
 23
-1.25
 33
1.25
  0
3DFACE
  5
7E
100
AcDbEntity
  8
0
100
AcDbFace
 10
-5.5
 20
-1.25
 30
0.75
 11
-5.5
 21
-1.75
 31
0.75
 12
-5.5
 22
-1.75
 32
1.25
 13
-5.5
 23
-1.25
 33
1.25
  0
3DFACE
  5
7F
100
AcDbEntity
  8
0
100
AcDbFace
 10
-5.5
 20
-1.25
 30
1.25
 11
-5.5
 21
-1.25
 31
1.25
 12
-6.5
 22
-1.25
 32
1.25
 13
-6.5
 23
-1.25
 33
1.25
  0
3DFACE
  5
80
100
AcDbEntity
  8
0
100
AcDbFace
 10
-5.5
 20
-1.25
 30
1.25
 11
-5.5
 21
-1.75
 31
1.25
 12
-6.5
 22
-1.75
 32
1.25
 13
-6.5
 23
-1.25
 33
1.25
  0
3DFACE
  5
81
100
AcDbEntity
  8
0
100
AcDbFace
 10
6.5
 20
-1.25
 30
0.75
 11
6.5
 21
-1.25
 31
1.25
 12
5.5
 22
-1.25
 32
1.25
 13
5.5
 23
-1.25
 33
0.75
  0
3DFACE
  5
82
100
AcDbEntity
  8
0
100
AcDbFace
 10
6.5
 20
-1.25
 30
1.25
 11
6.5
 21
-1.25
 31
1.25
 12
5.5
 22
-1.25
 32
1.25
 13
5.5
 23
-1.25
 33
1.25
  0
3DFACE
  5
83
100
AcDbEntity
  8
0
100
AcDbFace
 10
5.5
 20
-1.25
 30
0.75
 11
5.5
 21
-1.25
 31
1.25
 12
5.5
 22
-1.75
 32
1.25
 13
5.5
 23
-1.75
 33
0.75
  0
3DFACE
  5
84
100
AcDbEntity
  8
0
100
AcDbFace
 10
5.5
 20
-1.25
 30
1.25
 11
5.5
 21
-1.25
 31
1.25
 12
5.5
 22
-1.25
 32
1.25
 13
5.5
 23
-1.75
 33
1.25
  0
3DFACE
  5
85
100
AcDbEntity
  8
0
100
AcDbFace
 10
5.5
 20
-1.75
 30
0.75
 11
5.5
 21
-1.75
 31
1.25
 12
6.5
 22
-1.75
 32
1.25
 13
6.5
 23
-1.75
 33
0.75
  0
3DFACE
  5
86
100
AcDbEntity
  8
0
100
AcDbFace
 10
5.5
 20
-1.75
 30
1.25
 11
5.5
 21
-1.25
 31
1.25
 12
6.5
 22
-1.25
 32
1.25
 13
6.5
 23
-1.75
 33
1.25
  0
3DFACE
  5
87
100
AcDbEntity
  8
0
100
AcDbFace
 10
6.5
 20
-1.75
 30
0.75
 11
6.5
 21
-1.75
 31
1.25
 12
6.5
 22
-1.75
 32
0.75
 13
6.5
 23
-1.75
 33
0.75
  0
3DFACE
  5
88
100
AcDbEntity
  8
0
100
AcDbFace
 10
6.5
 20
-1.75
 30
1.25
 11
6.5
 21
-1.25
 31
1.25
 12
6.5
 22
-1.25
 32
0.75
 13
6.5
 23
-1.75
 33
0.75
  0
3DFACE
  5
89
100
AcDbEntity
  8
0
100
AcDbFace
 10
6.5
 20
-1.75
 30
0.75
 11
6.5
 21
-1.75
 31
0.75
 12
5.5
 22
-1.75
 32
0.75
 13
5.5
 23
-1.75
 33
0.75
  0
3DFACE
  5
8A
100
AcDbEntity
  8
0
100
AcDbFace
 10
6.5
 20
-1.75
 30
0.75
 11
6.5
 21
-1.25
 31
0.75
 12
5.5
 22
-1.25
 32
0.75
 13
5.5
 23
-1.75
 33
0.75
  0
3DFACE
  5
8B
100
AcDbEntity
  8
0
100
AcDbFace
 10
-5.5
 20
-1.5
 30
2.0
 11
-5.5
 21
-1.882683432365
 31
1.923879532511
 12
-4.0
 22
-1.882683432365
 32
1.923879532511
 13
-4.0
 23
-1.5
 33
2.0
  0
3DFACE
  5
8C
100
AcDbEntity
  8
0
100
AcDbFace
 10
-5.5
 20
-1.882683432365
 30
1.923879532511
 11
-5.5
 21
-2.207106781187
 31
1.707106781187
 12
-4.0
 22
-2.207106781187
 32
1.707106781187
 13
-4.0
 23
-1.882683432365
 33
1.923879532511
  0
3DFACE
  5
8D
100
AcDbEntity
  8
0
100
AcDbFace
 10
-8.0
 20
-5.657457896301
 30
-0.722075445643
 11
-8.0
 21
-4.681980515339
 31
-2.181980515339
 12
-6.5
 22
-4.681980515339
 32
-2.181980515339
 13
-6.5
 23
-5.657457896301
 33
-0.722075445643
  0
3DFACE
  5
8E
100
AcDbEntity
  8
0
100
AcDbFace
 10
-8.0
 20
-4.681980515339
 30
-2.181980515339
 11
-8.0
 21
-3.222075445643
 31
-3.157457896301
 12
-6.5
 22
-3.222075445643
 32
-3.157457896301
 13
-6.5
 23
-4.681980515339
 33
-2.181980515339
  0
3DFACE
  5
8F
100
AcDbEntity
  8
0
100
AcDbFace
 10
-8.0
 20
-3.222075445643
 30
-3.157457896301
 11
-8.0
 21
-1.5
 31
-3.5
 12
-6.5
 22
-1.5
 32
-3.5
 13
-6.5
 23
-3.222075445643
 33
-3.157457896301
  0
3DFACE
  5
90
100
AcDbEntity
  8
0
100
AcDbFace
 10
-8.0
 20
-1.5
 30
-3.5
 11
-8.0
 21
0.222075445643
 31
-3.157457896301
 12
-6.5
 22
0.222075445643
 32
-3.157457896301
 13
-6.5
 23
-1.5
 33
-3.5
  0
3DFACE
  5
91
100
AcDbEntity
  8
0
100
AcDbFace
 10
-8.0
 20
0.222075445643
 30
-3.157457896301
 11
-8.0
 21
1.681980515339
 31
-2.181980515339
 12
-6.5
 22
1.681980515339
 32
-2.181980515339
 13
-6.5
 23
0.222075445643
 33
-3.157457896301
  0
3DFACE
  5
92
100
AcDbEntity
  8
0
100
AcDbFace
 10
-8.0
 20
1.681980515339
 30
-2.181980515339
 11
-8.0
 21
2.657457896301
 31
-0.722075445643
 12
-6.5
 22
2.657457896301
 32
-0.722075445643
 13
-6.5
 23
1.681980515339
 33
-2.181980515339
  0
3DFACE
  5
93
100
AcDbEntity
  8
0
100
AcDbFace
 10
-8.0
 20
2.657457896301
 30
-0.722075445643
 11
-8.0
 21
3.0
 31
1.0
 12
-6.5
 22
3.0
 32
1.0
 13
-6.5
 23
2.657457896301
 33
-0.722075445643
  0
3DFACE
  5
94
100
AcDbEntity
  8
0
100
AcDbFace
 10
-8.0
 20
3.0
 30
1.0
 11
-8.0
 21
2.657457896301
 31
2.722075445643
 12
-6.5
 22
2.657457896301
 32
2.722075445643
 13
-6.5
 23
3.0
 33
1.0
  0
3DFACE
  5
95
100
AcDbEntity
  8
0
100
AcDbFace
 10
-8.0
 20
2.657457896301
 30
2.722075445643
 11
-8.0
 21
1.681980515339
 31
4.181980515339
 12
-6.5
 22
1.681980515339
 32
4.181980515339
 13
-6.5
 23
2.657457896301
 33
2.722075445643
  0
3DFACE
  5
96
100
AcDbEntity
  8
0
100
AcDbFace
 10
-8.0
 20
1.681980515339
 30
4.181980515339
 11
-8.0
 21
0.222075445643
 31
5.157457896301
 12
-6.5
 22
0.222075445643
 32
5.157457896301
 13
-6.5
 23
1.681980515339
 33
4.181980515339
  0
3DFACE
  5
97
100
AcDbEntity
  8
0
100
AcDbFace
 10
-8.0
 20
0.222075445643
 30
5.157457896301
 11
-8.0
 21
-1.5
 31
5.5
 12
-6.5
 22
-1.5
 32
5.5
 13
-6.5
 23
0.222075445643
 33
5.157457896301
  0
3DFACE
  5
98
100
AcDbEntity
  8
0
100
AcDbFace
 10
-8.0
 20
-1.5
 30
5.5
 11
-8.0
 21
-3.222075445643
 31
5.157457896301
 12
-6.5
 22
-3.222075445643
 32
5.157457896301
 13
-6.5
 23
-1.5
 33
5.5
  0
3DFACE
  5
99
100
AcDbEntity
  8
0
100
AcDbFace
 10
-8.0
 20
-3.222075445643
 30
5.157457896301
 11
-8.0
 21
-4.681980515339
 31
4.181980515339
 12
-6.5
 22
-4.681980515339
 32
4.181980515339
 13
-6.5
 23
-3.222075445643
 33
5.157457896301
  0
3DFACE
  5
9A
100
AcDbEntity
  8
0
100
AcDbFace
 10
-8.0
 20
-4.681980515339
 30
4.181980515339
 11
-8.0
 21
-5.657457896301
 31
2.722075445643
 12
-6.5
 22
-5.657457896301
 32
2.722075445643
 13
-6.5
 23
-4.681980515339
 33
4.181980515339
  0
3DFACE
  5
9B
100
AcDbEntity
  8
0
100
AcDbFace
 10
-8.0
 20
-5.657457896301
 30
2.722075445643
 11
-8.0
 21
-6.0
 31
1.0
 12
-6.5
 22
-6.0
 32
1.0
 13
-6.5
 23
-5.657457896301
 33
2.722075445643
  0
3DFACE
  5
9C
100
AcDbEntity
  8
0
100
AcDbFace
 10
-8.0
 20
-6.0
 30
1.0
 11
-8.0
 21
-5.657457896301
 31
-0.722075445643
 12
-6.5
 22
-5.657457896301
 32
-0.722075445643
 13
-6.5
 23
-6.0
 33
1.0
  0
3DFACE
  5
9D
100
AcDbEntity
  8
0
100
AcDbFace
 10
6.5
 20
-5.657457896301
 30
-0.722075445643
 11
6.5
 21
-4.681980515339
 31
-2.181980515339
 12
8.0
 22
-4.681980515339
 32
-2.181980515339
 13
8.0
 23
-5.657457896301
 33
-0.722075445643
  0
3DFACE
  5
9E
100
AcDbEntity
  8
0
100
AcDbFace
 10
6.5
 20
-4.681980515339
 30
-2.181980515339
 11
6.5
 21
-3.222075445643
 31
-3.157457896301
 12
8.0
 22
-3.222075445643
 32
-3.157457896301
 13
8.0
 23
-4.681980515339
 33
-2.181980515339
  0
3DFACE
  5
9F
100
AcDbEntity
  8
0
100
AcDbFace
 10
6.5
 20
-3.222075445643
 30
-3.157457896301
 11
6.5
 21
-1.5
 31
-3.5
 12
8.0
 22
-1.5
 32
-3.5
 13
8.0
 23
-3.222075445643
 33
-3.157457896301
  0
3DFACE
  5
A0
100
AcDbEntity
  8
0
100
AcDbFace
 10
6.5
 20
-1.5
 30
-3.5
 11
6.5
 21
0.222075445643
 31
-3.157457896301
 12
8.0
 22
0.222075445643
 32
-3.157457896301
 13
8.0
 23
-1.5
 33
-3.5
  0
3DFACE
  5
A1
100
AcDbEntity
  8
0
100
AcDbFace
 10
6.5
 20
0.222075445643
 30
-3.157457896301
 11
6.5
 21
1.681980515339
 31
-2.181980515339
 12
8.0
 22
1.681980515339
 32
-2.181980515339
 13
8.0
 23
0.222075445643
 33
-3.157457896301
  0
3DFACE
  5
A2
100
AcDbEntity
  8
0
100
AcDbFace
 10
6.5
 20
1.681980515339
 30
-2.181980515339
 11
6.5
 21
2.657457896301
 31
-0.722075445643
 12
8.0
 22
2.657457896301
 32
-0.722075445643
 13
8.0
 23
1.681980515339
 33
-2.181980515339
  0
3DFACE
  5
A3
100
AcDbEntity
  8
0
100
AcDbFace
 10
6.5
 20
2.657457896301
 30
-0.722075445643
 11
6.5
 21
3.0
 31
1.0
 12
8.0
 22
3.0
 32
1.0
 13
8.0
 23
2.657457896301
 33
-0.722075445643
  0
3DFACE
  5
A4
100
AcDbEntity
  8
0
100
AcDbFace
 10
6.5
 20
3.0
 30
1.0
 11
6.5
 21
2.657457896301
 31
2.722075445643
 12
8.0
 22
2.657457896301
 32
2.722075445643
 13
8.0
 23
3.0
 33
1.0
  0
3DFACE
  5
A5
100
AcDbEntity
  8
0
100
AcDbFace
 10
6.5
 20
2.657457896301
 30
2.722075445643
 11
6.5
 21
1.681980515339
 31
4.181980515339
 12
8.0
 22
1.681980515339
 32
4.181980515339
 13
8.0
 23
2.657457896301
 33
2.722075445643
  0
3DFACE
  5
A6
100
AcDbEntity
  8
0
100
AcDbFace
 10
6.5
 20
1.681980515339
 30
4.181980515339
 11
6.5
 21
0.222075445643
 31
5.157457896301
 12
8.0
 22
0.222075445643
 32
5.157457896301
 13
8.0
 23
1.681980515339
 33
4.181980515339
  0
3DFACE
  5
A7
100
AcDbEntity
  8
0
100
AcDbFace
 10
6.5
 20
0.222075445643
 30
5.157457896301
 11
6.5
 21
-1.5
 31
5.5
 12
8.0
 22
-1.5
 32
5.5
 13
8.0
 23
0.222075445643
 33
5.157457896301
  0
3DFACE
  5
A8
100
AcDbEntity
  8
0
100
AcDbFace
 10
6.5
 20
-1.5
 30
5.5
 11
6.5
 21
-3.222075445643
 31
5.157457896301
 12
8.0
 22
-3.222075445643
 32
5.157457896301
 13
8.0
 23
-1.5
 33
5.5
  0
3DFACE
  5
A9
100
AcDbEntity
  8
0
100
AcDbFace
 10
6.5
 20
-3.222075445643
 30
5.157457896301
 11
6.5
 21
-4.681980515339
 31
4.181980515339
 12
8.0
 22
-4.681980515339
 32
4.181980515339
 13
8.0
 23
-3.222075445643
 33
5.157457896301
  0
3DFACE
  5
AA
100
AcDbEntity
  8
0
100
AcDbFace
 10
6.5
 20
-4.681980515339
 30
4.181980515339
 11
6.5
 21
-5.657457896301
 31
2.722075445643
 12
8.0
 22
-5.657457896301
 32
2.722075445643
 13
8.0
 23
-4.681980515339
 33
4.181980515339
  0
3DFACE
  5
AB
100
AcDbEntity
  8
0
100
AcDbFace
 10
6.5
 20
-5.657457896301
 30
2.722075445643
 11
6.5
 21
-6.0
 31
1.0
 12
8.0
 22
-6.0
 32
1.0
 13
8.0
 23
-5.657457896301
 33
2.722075445643
  0
3DFACE
  5
AC
100
AcDbEntity
  8
0
100
AcDbFace
 10
6.5
 20
-6.0
 30
1.0
 11
6.5
 21
-5.657457896301
 31
-0.722075445643
 12
8.0
 22
-5.657457896301
 32
-0.722075445643
 13
8.0
 23
-6.0
 33
1.0
  0
3DFACE
  5
AD
100
AcDbEntity
  8
0
100
AcDbFace
 10
-4.25
 20
-16.0
 30
0.0
 11
4.25
 21
-16.0
 31
0.0
 12
4.25
 22
-16.75
 32
0.0
 13
-4.25
 23
-16.75
 33
0.0
  0
3DFACE
  5
AE
100
AcDbEntity
  8
0
100
AcDbFace
 10
-4.25
 20
-16.0
 30
2.0
 11
4.25
 21
-16.0
 31
2.0
 12
4.25
 22
-16.75
 32
2.0
 13
-4.25
 23
-16.75
 33
2.0
  0
3DFACE
  5
AF
100
AcDbEntity
  8
0
100
AcDbFace
 10
-4.25
 20
-16.75
 30
2.0
 11
-4.25
 21
-16.75
 31
0.0
 12
4.25
 22
-16.75
 32
0.0
 13
4.25
 23
-16.75
 33
2.0
  0
3DFACE
  5
B0
100
AcDbEntity
  8
0
100
AcDbFace
 10
4.25
 20
-18.0
 30
2.0
 11
4.25
 21
-18.0
 31
-1.0
 12
4.25
 22
-16.0
 32
-1.0
 13
4.25
 23
-16.0
 33
2.0
  0
3DFACE
  5
B1
100
AcDbEntity
  8
0
100
AcDbFace
 10
-4.25
 20
-18.0
 30
-1.0
 11
-4.25
 21
-18.0
 31
2.0
 12
-4.25
 22
-16.0
 32
2.0
 13
-4.25
 23
-16.0
 33
-1.0
  0
3DFACE
  5
B2
100
AcDbEntity
  8
0
100
AcDbFace
 10
-4.25
 20
-16.0
 30
2.0
 11
-3.0
 21
-16.0
 31
2.0
 12
-3.0
 22
-16.0
 32
0.0
 13
-4.25
 23
-16.0
 33
0.0
  0
3DFACE
  5
B3
100
AcDbEntity
  8
0
100
AcDbFace
 10
3.0
 20
-16.0
 30
2.0
 11
4.25
 21
-16.0
 31
2.0
 12
4.25
 22
-16.0
 32
0.0
 13
3.0
 23
-16.0
 33
0.0
  0
3DFACE
  5
B4
100
AcDbEntity
  8
0
100
AcDbFace
 10
4.25
 20
-16.75
 30
0.0
 11
4.25
 21
-16.75
 31
-1.0
 12
2.25
 22
-16.75
 32
0.0
 13
2.25
 23
-16.75
 33
0.0
  0
3DFACE
  5
B5
100
AcDbEntity
  8
0
100
AcDbFace
 10
4.25
 20
-16.0
 30
0.0
 11
4.25
 21
-16.0
 31
-1.0
 12
2.25
 22
-16.0
 32
0.0
 13
2.25
 23
-16.0
 33
0.0
  0
3DFACE
  5
B6
100
AcDbEntity
  8
0
100
AcDbFace
 10
2.25
 20
-16.75
 30
0.0
 11
2.25
 21
-16.0
 31
0.0
 12
4.25
 22
-16.0
 32
-1.0
 13
4.25
 23
-16.75
 33
-1.0
  0
3DFACE
  5
B7
100
AcDbEntity
  8
0
100
AcDbFace
 10
-2.25
 20
-16.75
 30
0.0
 11
-2.25
 21
-16.0
 31
0.0
 12
-4.25
 22
-16.0
 32
-1.0
 13
-4.25
 23
-16.75
 33
-1.0
  0
3DFACE
  5
B8
100
AcDbEntity
  8
0
100
AcDbFace
 10
-4.25
 20
-16.75
 30
0.0
 11
-4.25
 21
-16.75
 31
-1.0
 12
-2.25
 22
-16.75
 32
0.0
 13
-2.25
 23
-16.75
 33
0.0
  0
3DFACE
  5
B9
100
AcDbEntity
  8
0
100
AcDbFace
 10
-4.25
 20
-16.0
 30
0.0
 11
-4.25
 21
-16.0
 31
-1.0
 12
-2.25
 22
-16.0
 32
0.0
 13
-2.25
 23
-16.0
 33
0.0
  0
3DFACE
  5
BA
100
AcDbEntity
  8
0
100
AcDbFace
 10
4.25
 20
-17.25
 30
2.0
 11
4.25
 21
-19.25
 31
2.0
 12
3.75
 22
-19.25
 32
2.0
 13
3.75
 23
-17.25
 33
2.0
  0
3DFACE
  5
BB
100
AcDbEntity
  8
0
100
AcDbFace
 10
-4.25
 20
-17.25
 30
2.0
 11
-4.25
 21
-19.25
 31
2.0
 12
-3.75
 22
-19.25
 32
2.0
 13
-3.75
 23
-17.25
 33
2.0
  0
3DFACE
  5
BC
100
AcDbEntity
  8
0
100
AcDbFace
 10
4.25
 20
-19.25
 30
3.0
 11
4.25
 21
-18.75
 31
3.0
 12
-4.25
 22
-18.75
 32
3.0
 13
-4.25
 23
-19.25
 33
3.0
  0
3DFACE
  5
BD
100
AcDbEntity
  8
0
100
AcDbFace
 10
-4.047835429046
 20
-19.115484941564
 30
2.0
 11
-4.088388347648
 21
-19.088388347648
 31
2.0
 12
-4.088388347648
 22
-19.088388347648
 32
3.0
 13
-4.047835429046
 23
-19.115484941564
 33
3.0
  0
3DFACE
  5
BE
100
AcDbEntity
  8
0
100
AcDbFace
 10
-4.088388347648
 20
-19.088388347648
 30
2.0
 11
-4.115484941564
 21
-19.047835429046
 31
2.0
 12
-4.115484941564
 22
-19.047835429046
 32
3.0
 13
-4.088388347648
 23
-19.088388347648
 33
3.0
  0
3DFACE
  5
BF
100
AcDbEntity
  8
0
100
AcDbFace
 10
-4.115484941564
 20
-19.047835429046
 30
2.0
 11
-4.125
 21
-19.0
 31
2.0
 12
-4.125
 22
-19.0
 32
3.0
 13
-4.115484941564
 23
-19.047835429046
 33
3.0
  0
3DFACE
  5
C0
100
AcDbEntity
  8
0
100
AcDbFace
 10
-4.125
 20
-19.0
 30
2.0
 11
-4.115484941564
 21
-18.952164570954
 31
2.0
 12
-4.115484941564
 22
-18.952164570954
 32
3.0
 13
-4.125
 23
-19.0
 33
3.0
  0
3DFACE
  5
C1
100
AcDbEntity
  8
0
100
AcDbFace
 10
-4.115484941564
 20
-18.952164570954
 30
2.0
 11
-4.088388347648
 21
-18.911611652352
 31
2.0
 12
-4.088388347648
 22
-18.911611652352
 32
3.0
 13
-4.115484941564
 23
-18.952164570954
 33
3.0
  0
3DFACE
  5
C2
100
AcDbEntity
  8
0
100
AcDbFace
 10
-4.088388347648
 20
-18.911611652352
 30
2.0
 11
-4.047835429046
 21
-18.884515058436
 31
2.0
 12
-4.047835429046
 22
-18.884515058436
 32
3.0
 13
-4.088388347648
 23
-18.911611652352
 33
3.0
  0
3DFACE
  5
C3
100
AcDbEntity
  8
0
100
AcDbFace
 10
-4.047835429046
 20
-18.884515058436
 30
2.0
 11
-4.0
 21
-18.875
 31
2.0
 12
-4.0
 22
-18.875
 32
3.0
 13
-4.047835429046
 23
-18.884515058436
 33
3.0
  0
3DFACE
  5
C4
100
AcDbEntity
  8
0
100
AcDbFace
 10
-4.0
 20
-18.875
 30
2.0
 11
-3.952164570954
 21
-18.884515058436
 31
2.0
 12
-3.952164570954
 22
-18.884515058436
 32
3.0
 13
-4.0
 23
-18.875
 33
3.0
  0
3DFACE
  5
C5
100
AcDbEntity
  8
0
100
AcDbFace
 10
-3.952164570954
 20
-18.884515058436
 30
2.0
 11
-3.911611652352
 21
-18.911611652352
 31
2.0
 12
-3.911611652352
 22
-18.911611652352
 32
3.0
 13
-3.952164570954
 23
-18.884515058436
 33
3.0
  0
3DFACE
  5
C6
100
AcDbEntity
  8
0
100
AcDbFace
 10
-3.911611652352
 20
-18.911611652352
 30
2.0
 11
-3.884515058436
 21
-18.952164570954
 31
2.0
 12
-3.884515058436
 22
-18.952164570954
 32
3.0
 13
-3.911611652352
 23
-18.911611652352
 33
3.0
  0
3DFACE
  5
C7
100
AcDbEntity
  8
0
100
AcDbFace
 10
-3.884515058436
 20
-18.952164570954
 30
2.0
 11
-3.875
 21
-19.0
 31
2.0
 12
-3.875
 22
-19.0
 32
3.0
 13
-3.884515058436
 23
-18.952164570954
 33
3.0
  0
3DFACE
  5
C8
100
AcDbEntity
  8
0
100
AcDbFace
 10
-3.875
 20
-19.0
 30
2.0
 11
-3.884515058436
 21
-19.047835429046
 31
2.0
 12
-3.884515058436
 22
-19.047835429046
 32
3.0
 13
-3.875
 23
-19.0
 33
3.0
  0
3DFACE
  5
C9
100
AcDbEntity
  8
0
100
AcDbFace
 10
-3.884515058436
 20
-19.047835429046
 30
2.0
 11
-3.911611652352
 21
-19.088388347648
 31
2.0
 12
-3.911611652352
 22
-19.088388347648
 32
3.0
 13
-3.884515058436
 23
-19.047835429046
 33
3.0
  0
3DFACE
  5
CA
100
AcDbEntity
  8
0
100
AcDbFace
 10
-3.911611652352
 20
-19.088388347648
 30
2.0
 11
-3.952164570954
 21
-19.115484941564
 31
2.0
 12
-3.952164570954
 22
-19.115484941564
 32
3.0
 13
-3.911611652352
 23
-19.088388347648
 33
3.0
  0
3DFACE
  5
CB
100
AcDbEntity
  8
0
100
AcDbFace
 10
-3.952164570954
 20
-19.115484941564
 30
2.0
 11
-4.0
 21
-19.125
 31
2.0
 12
-4.0
 22
-19.125
 32
3.0
 13
-3.952164570954
 23
-19.115484941564
 33
3.0
  0
3DFACE
  5
CC
100
AcDbEntity
  8
0
100
AcDbFace
 10
-4.0
 20
-19.125
 30
2.0
 11
-4.047835429046
 21
-19.115484941564
 31
2.0
 12
-4.047835429046
 22
-19.115484941564
 32
3.0
 13
-4.0
 23
-19.125
 33
3.0
  0
3DFACE
  5
CD
100
AcDbEntity
  8
0
100
AcDbFace
 10
4.047835429046
 20
-19.115484941564
 30
2.0
 11
4.088388347648
 21
-19.088388347648
 31
2.0
 12
4.088388347648
 22
-19.088388347648
 32
3.0
 13
4.047835429046
 23
-19.115484941564
 33
3.0
  0
3DFACE
  5
CE
100
AcDbEntity
  8
0
100
AcDbFace
 10
4.088388347648
 20
-19.088388347648
 30
2.0
 11
4.115484941564
 21
-19.047835429046
 31
2.0
 12
4.115484941564
 22
-19.047835429046
 32
3.0
 13
4.088388347648
 23
-19.088388347648
 33
3.0
  0
3DFACE
  5
CF
100
AcDbEntity
  8
0
100
AcDbFace
 10
4.115484941564
 20
-19.047835429046
 30
2.0
 11
4.125
 21
-19.0
 31
2.0
 12
4.125
 22
-19.0
 32
3.0
 13
4.115484941564
 23
-19.047835429046
 33
3.0
  0
3DFACE
  5
D0
100
AcDbEntity
  8
0
100
AcDbFace
 10
4.125
 20
-19.0
 30
2.0
 11
4.115484941564
 21
-18.952164570954
 31
2.0
 12
4.115484941564
 22
-18.952164570954
 32
3.0
 13
4.125
 23
-19.0
 33
3.0
  0
3DFACE
  5
D1
100
AcDbEntity
  8
0
100
AcDbFace
 10
4.115484941564
 20
-18.952164570954
 30
2.0
 11
4.088388347648
 21
-18.911611652352
 31
2.0
 12
4.088388347648
 22
-18.911611652352
 32
3.0
 13
4.115484941564
 23
-18.952164570954
 33
3.0
  0
3DFACE
  5
D2
100
AcDbEntity
  8
0
100
AcDbFace
 10
4.088388347648
 20
-18.911611652352
 30
2.0
 11
4.047835429046
 21
-18.884515058436
 31
2.0
 12
4.047835429046
 22
-18.884515058436
 32
3.0
 13
4.088388347648
 23
-18.911611652352
 33
3.0
  0
3DFACE
  5
D3
100
AcDbEntity
  8
0
100
AcDbFace
 10
4.047835429046
 20
-18.884515058436
 30
2.0
 11
4.0
 21
-18.875
 31
2.0
 12
4.0
 22
-18.875
 32
3.0
 13
4.047835429046
 23
-18.884515058436
 33
3.0
  0
3DFACE
  5
D4
100
AcDbEntity
  8
0
100
AcDbFace
 10
4.0
 20
-18.875
 30
2.0
 11
3.952164570954
 21
-18.884515058436
 31
2.0
 12
3.952164570954
 22
-18.884515058436
 32
3.0
 13
4.0
 23
-18.875
 33
3.0
  0
3DFACE
  5
D5
100
AcDbEntity
  8
0
100
AcDbFace
 10
3.952164570954
 20
-18.884515058436
 30
2.0
 11
3.911611652352
 21
-18.911611652352
 31
2.0
 12
3.911611652352
 22
-18.911611652352
 32
3.0
 13
3.952164570954
 23
-18.884515058436
 33
3.0
  0
3DFACE
  5
D6
100
AcDbEntity
  8
0
100
AcDbFace
 10
3.911611652352
 20
-18.911611652352
 30
2.0
 11
3.884515058436
 21
-18.952164570954
 31
2.0
 12
3.884515058436
 22
-18.952164570954
 32
3.0
 13
3.911611652352
 23
-18.911611652352
 33
3.0
  0
3DFACE
  5
D7
100
AcDbEntity
  8
0
100
AcDbFace
 10
3.884515058436
 20
-18.952164570954
 30
2.0
 11
3.875
 21
-19.0
 31
2.0
 12
3.875
 22
-19.0
 32
3.0
 13
3.884515058436
 23
-18.952164570954
 33
3.0
  0
3DFACE
  5
D8
100
AcDbEntity
  8
0
100
AcDbFace
 10
3.875
 20
-19.0
 30
2.0
 11
3.884515058436
 21
-19.047835429046
 31
2.0
 12
3.884515058436
 22
-19.047835429046
 32
3.0
 13
3.875
 23
-19.0
 33
3.0
  0
3DFACE
  5
D9
100
AcDbEntity
  8
0
100
AcDbFace
 10
3.884515058436
 20
-19.047835429046
 30
2.0
 11
3.911611652352
 21
-19.088388347648
 31
2.0
 12
3.911611652352
 22
-19.088388347648
 32
3.0
 13
3.884515058436
 23
-19.047835429046
 33
3.0
  0
3DFACE
  5
DA
100
AcDbEntity
  8
0
100
AcDbFace
 10
3.911611652352
 20
-19.088388347648
 30
2.0
 11
3.952164570954
 21
-19.115484941564
 31
2.0
 12
3.952164570954
 22
-19.115484941564
 32
3.0
 13
3.911611652352
 23
-19.088388347648
 33
3.0
  0
3DFACE
  5
DB
100
AcDbEntity
  8
0
100
AcDbFace
 10
3.952164570954
 20
-19.115484941564
 30
2.0
 11
4.0
 21
-19.125
 31
2.0
 12
4.0
 22
-19.125
 32
3.0
 13
3.952164570954
 23
-19.115484941564
 33
3.0
  0
3DFACE
  5
DC
100
AcDbEntity
  8
0
100
AcDbFace
 10
4.0
 20
-19.125
 30
2.0
 11
4.047835429046
 21
-19.115484941564
 31
2.0
 12
4.047835429046
 22
-19.115484941564
 32
3.0
 13
4.0
 23
-19.125
 33
3.0
  0
3DFACE
  5
DD
100
AcDbEntity
  8
0
100
AcDbFace
 10
-4.273917714523
 20
-17.990484941564
 30
0.476082285477
 11
-4.273917714523
 21
-17.963388347648
 31
0.435529366875
 12
-5.773917714523
 22
-17.963388347648
 32
0.435529366875
 13
-5.773917714523
 23
-17.990484941564
 33
0.476082285477
  0
3DFACE
  5
DE
100
AcDbEntity
  8
0
100
AcDbFace
 10
-4.273917714523
 20
-17.963388347648
 30
0.435529366875
 11
-4.273917714523
 21
-17.922835429046
 31
0.408432772959
 12
-5.773917714523
 22
-17.922835429046
 32
0.408432772959
 13
-5.773917714523
 23
-17.963388347648
 33
0.435529366875
  0
3DFACE
  5
DF
100
AcDbEntity
  8
0
100
AcDbFace
 10
-4.273917714523
 20
-17.922835429046
 30
0.408432772959
 11
-4.273917714523
 21
-17.875
 31
0.398917714523
 12
-5.773917714523
 22
-17.875
 32
0.398917714523
 13
-5.773917714523
 23
-17.922835429046
 33
0.408432772959
  0
3DFACE
  5
E0
100
AcDbEntity
  8
0
100
AcDbFace
 10
-4.273917714523
 20
-17.875
 30
0.398917714523
 11
-4.273917714523
 21
-17.827164570954
 31
0.408432772959
 12
-5.773917714523
 22
-17.827164570954
 32
0.408432772959
 13
-5.773917714523
 23
-17.875
 33
0.398917714523
  0
3DFACE
  5
E1
100
AcDbEntity
  8
0
100
AcDbFace
 10
-4.273917714523
 20
-17.827164570954
 30
0.408432772959
 11
-4.273917714523
 21
-17.786611652352
 31
0.435529366875
 12
-5.773917714523
 22
-17.786611652352
 32
0.435529366875
 13
-5.773917714523
 23
-17.827164570954
 33
0.408432772959
  0
3DFACE
  5
E2
100
AcDbEntity
  8
0
100
AcDbFace
 10
-4.273917714523
 20
-17.786611652352
 30
0.435529366875
 11
-4.273917714523
 21
-17.759515058436
 31
0.476082285477
 12
-5.773917714523
 22
-17.759515058436
 32
0.476082285477
 13
-5.773917714523
 23
-17.786611652352
 33
0.435529366875
  0
3DFACE
  5
E3
100
AcDbEntity
  8
0
100
AcDbFace
 10
-4.273917714523
 20
-17.759515058436
 30
0.476082285477
 11
-4.273917714523
 21
-17.75
 31
0.523917714523
 12
-5.773917714523
 22
-17.75
 32
0.523917714523
 13
-5.773917714523
 23
-17.759515058436
 33
0.476082285477
  0
3DFACE
  5
E4
100
AcDbEntity
  8
0
100
AcDbFace
 10
-4.273917714523
 20
-17.75
 30
0.523917714523
 11
-4.273917714523
 21
-17.759515058436
 31
0.571753143568
 12
-5.773917714523
 22
-17.759515058436
 32
0.571753143568
 13
-5.773917714523
 23
-17.75
 33
0.523917714523
  0
3DFACE
  5
E5
100
AcDbEntity
  8
0
100
AcDbFace
 10
-4.273917714523
 20
-17.759515058436
 30
0.571753143568
 11
-4.273917714523
 21
-17.786611652352
 31
0.612306062171
 12
-5.773917714523
 22
-17.786611652352
 32
0.612306062171
 13
-5.773917714523
 23
-17.759515058436
 33
0.571753143568
  0
3DFACE
  5
E6
100
AcDbEntity
  8
0
100
AcDbFace
 10
-4.273917714523
 20
-17.786611652352
 30
0.612306062171
 11
-4.273917714523
 21
-17.827164570954
 31
0.639402656087
 12
-5.773917714523
 22
-17.827164570954
 32
0.639402656087
 13
-5.773917714523
 23
-17.786611652352
 33
0.612306062171
  0
3DFACE
  5
E7
100
AcDbEntity
  8
0
100
AcDbFace
 10
-4.273917714523
 20
-17.827164570954
 30
0.639402656087
 11
-4.273917714523
 21
-17.875
 31
0.648917714523
 12
-5.773917714523
 22
-17.875
 32
0.648917714523
 13
-5.773917714523
 23
-17.827164570954
 33
0.639402656087
  0
3DFACE
  5
E8
100
AcDbEntity
  8
0
100
AcDbFace
 10
-4.273917714523
 20
-17.875
 30
0.648917714523
 11
-4.273917714523
 21
-17.922835429046
 31
0.639402656087
 12
-5.773917714523
 22
-17.922835429046
 32
0.639402656087
 13
-5.773917714523
 23
-17.875
 33
0.648917714523
  0
3DFACE
  5
E9
100
AcDbEntity
  8
0
100
AcDbFace
 10
-4.273917714523
 20
-17.922835429046
 30
0.639402656087
 11
-4.273917714523
 21
-17.963388347648
 31
0.612306062171
 12
-5.773917714523
 22
-17.963388347648
 32
0.612306062171
 13
-5.773917714523
 23
-17.922835429046
 33
0.639402656087
  0
3DFACE
  5
EA
100
AcDbEntity
  8
0
100
AcDbFace
 10
-4.273917714523
 20
-17.963388347648
 30
0.612306062171
 11
-4.273917714523
 21
-17.990484941564
 31
0.571753143568
 12
-5.773917714523
 22
-17.990484941564
 32
0.571753143568
 13
-5.773917714523
 23
-17.963388347648
 33
0.612306062171
  0
3DFACE
  5
EB
100
AcDbEntity
  8
0
100
AcDbFace
 10
-4.273917714523
 20
-17.990484941564
 30
0.571753143568
 11
-4.273917714523
 21
-18.0
 31
0.523917714523
 12
-5.773917714523
 22
-18.0
 32
0.523917714523
 13
-5.773917714523
 23
-17.990484941564
 33
0.571753143568
  0
3DFACE
  5
EC
100
AcDbEntity
  8
0
100
AcDbFace
 10
-4.273917714523
 20
-18.0
 30
0.523917714523
 11
-4.273917714523
 21
-17.990484941564
 31
0.476082285477
 12
-5.773917714523
 22
-17.990484941564
 32
0.476082285477
 13
-5.773917714523
 23
-18.0
 33
0.523917714523
  0
3DFACE
  5
ED
100
AcDbEntity
  8
0
100
AcDbFace
 10
4.273917714523
 20
-17.990484941564
 30
0.476082285477
 11
4.273917714523
 21
-17.963388347648
 31
0.435529366875
 12
5.773917714523
 22
-17.963388347648
 32
0.435529366875
 13
5.773917714523
 23
-17.990484941564
 33
0.476082285477
  0
3DFACE
  5
EE
100
AcDbEntity
  8
0
100
AcDbFace
 10
4.273917714523
 20
-17.963388347648
 30
0.435529366875
 11
4.273917714523
 21
-17.922835429046
 31
0.408432772959
 12
5.773917714523
 22
-17.922835429046
 32
0.408432772959
 13
5.773917714523
 23
-17.963388347648
 33
0.435529366875
  0
3DFACE
  5
EF
100
AcDbEntity
  8
0
100
AcDbFace
 10
4.273917714523
 20
-17.922835429046
 30
0.408432772959
 11
4.273917714523
 21
-17.875
 31
0.398917714523
 12
5.773917714523
 22
-17.875
 32
0.398917714523
 13
5.773917714523
 23
-17.922835429046
 33
0.408432772959
  0
3DFACE
  5
F0
100
AcDbEntity
  8
0
100
AcDbFace
 10
4.273917714523
 20
-17.875
 30
0.398917714523
 11
4.273917714523
 21
-17.827164570954
 31
0.408432772959
 12
5.773917714523
 22
-17.827164570954
 32
0.408432772959
 13
5.773917714523
 23
-17.875
 33
0.398917714523
  0
3DFACE
  5
F1
100
AcDbEntity
  8
0
100
AcDbFace
 10
4.273917714523
 20
-17.827164570954
 30
0.408432772959
 11
4.273917714523
 21
-17.786611652352
 31
0.435529366875
 12
5.773917714523
 22
-17.786611652352
 32
0.435529366875
 13
5.773917714523
 23
-17.827164570954
 33
0.408432772959
  0
3DFACE
  5
F2
100
AcDbEntity
  8
0
100
AcDbFace
 10
4.273917714523
 20
-17.786611652352
 30
0.435529366875
 11
4.273917714523
 21
-17.759515058436
 31
0.476082285477
 12
5.773917714523
 22
-17.759515058436
 32
0.476082285477
 13
5.773917714523
 23
-17.786611652352
 33
0.435529366875
  0
3DFACE
  5
F3
100
AcDbEntity
  8
0
100
AcDbFace
 10
4.273917714523
 20
-17.759515058436
 30
0.476082285477
 11
4.273917714523
 21
-17.75
 31
0.523917714523
 12
5.773917714523
 22
-17.75
 32
0.523917714523
 13
5.773917714523
 23
-17.759515058436
 33
0.476082285477
  0
3DFACE
  5
F4
100
AcDbEntity
  8
0
100
AcDbFace
 10
4.273917714523
 20
-17.75
 30
0.523917714523
 11
4.273917714523
 21
-17.759515058436
 31
0.571753143568
 12
5.773917714523
 22
-17.759515058436
 32
0.571753143568
 13
5.773917714523
 23
-17.75
 33
0.523917714523
  0
3DFACE
  5
F5
100
AcDbEntity
  8
0
100
AcDbFace
 10
4.273917714523
 20
-17.759515058436
 30
0.571753143568
 11
4.273917714523
 21
-17.786611652352
 31
0.612306062171
 12
5.773917714523
 22
-17.786611652352
 32
0.612306062171
 13
5.773917714523
 23
-17.759515058436
 33
0.571753143568
  0
3DFACE
  5
F6
100
AcDbEntity
  8
0
100
AcDbFace
 10
4.273917714523
 20
-17.786611652352
 30
0.612306062171
 11
4.273917714523
 21
-17.827164570954
 31
0.639402656087
 12
5.773917714523
 22
-17.827164570954
 32
0.639402656087
 13
5.773917714523
 23
-17.786611652352
 33
0.612306062171
  0
3DFACE
  5
F7
100
AcDbEntity
  8
0
100
AcDbFace
 10
4.273917714523
 20
-17.827164570954
 30
0.639402656087
 11
4.273917714523
 21
-17.875
 31
0.648917714523
 12
5.773917714523
 22
-17.875
 32
0.648917714523
 13
5.773917714523
 23
-17.827164570954
 33
0.639402656087
  0
3DFACE
  5
F8
100
AcDbEntity
  8
0
100
AcDbFace
 10
4.273917714523
 20
-17.875
 30
0.648917714523
 11
4.273917714523
 21
-17.922835429046
 31
0.639402656087
 12
5.773917714523
 22
-17.922835429046
 32
0.639402656087
 13
5.773917714523
 23
-17.875
 33
0.648917714523
  0
3DFACE
  5
F9
100
AcDbEntity
  8
0
100
AcDbFace
 10
4.273917714523
 20
-17.922835429046
 30
0.639402656087
 11
4.273917714523
 21
-17.963388347648
 31
0.612306062171
 12
5.773917714523
 22
-17.963388347648
 32
0.612306062171
 13
5.773917714523
 23
-17.922835429046
 33
0.639402656087
  0
3DFACE
  5
FA
100
AcDbEntity
  8
0
100
AcDbFace
 10
4.273917714523
 20
-17.963388347648
 30
0.612306062171
 11
4.273917714523
 21
-17.990484941564
 31
0.571753143568
 12
5.773917714523
 22
-17.990484941564
 32
0.571753143568
 13
5.773917714523
 23
-17.963388347648
 33
0.612306062171
  0
3DFACE
  5
FB
100
AcDbEntity
  8
0
100
AcDbFace
 10
4.273917714523
 20
-17.990484941564
 30
0.571753143568
 11
4.273917714523
 21
-18.0
 31
0.523917714523
 12
5.773917714523
 22
-18.0
 32
0.523917714523
 13
5.773917714523
 23
-17.990484941564
 33
0.571753143568
  0
3DFACE
  5
FC
100
AcDbEntity
  8
0
100
AcDbFace
 10
4.273917714523
 20
-18.0
 30
0.523917714523
 11
4.273917714523
 21
-17.990484941564
 31
0.476082285477
 12
5.773917714523
 22
-17.990484941564
 32
0.476082285477
 13
5.773917714523
 23
-18.0
 33
0.523917714523
  0
3DFACE
  5
FD
100
AcDbEntity
  8
0
100
AcDbFace
 10
-5.75
 20
-20.752608480662
 30
-0.743721155187
 11
-5.75
 21
-20.048097038856
 31
-1.798097038856
 12
-7.25
 22
-20.048097038856
 32
-1.798097038856
 13
-7.25
 23
-20.752608480662
 33
-0.743721155187
  0
3DFACE
  5
FE
100
AcDbEntity
  8
0
100
AcDbFace
 10
-5.75
 20
-20.048097038856
 30
-1.798097038856
 11
-5.75
 21
-18.993721155187
 31
-2.502608480662
 12
-7.25
 22
-18.993721155187
 32
-2.502608480662
 13
-7.25
 23
-20.048097038856
 33
-1.798097038856
  0
3DFACE
  5
FF
100
AcDbEntity
  8
0
100
AcDbFace
 10
-5.75
 20
-18.993721155187
 30
-2.502608480662
 11
-5.75
 21
-17.75
 31
-2.75
 12
-7.25
 22
-17.75
 32
-2.75
 13
-7.25
 23
-18.993721155187
 33
-2.502608480662
  0
3DFACE
  5
100
100
AcDbEntity
  8
0
100
AcDbFace
 10
-5.75
 20
-17.75
 30
-2.75
 11
-5.75
 21
-16.506278844813
 31
-2.502608480662
 12
-7.25
 22
-16.506278844813
 32
-2.502608480662
 13
-7.25
 23
-17.75
 33
-2.75
  0
3DFACE
  5
101
100
AcDbEntity
  8
0
100
AcDbFace
 10
-5.75
 20
-16.506278844813
 30
-2.502608480662
 11
-5.75
 21
-15.451902961144
 31
-1.798097038856
 12
-7.25
 22
-15.451902961144
 32
-1.798097038856
 13
-7.25
 23
-16.506278844813
 33
-2.502608480662
  0
3DFACE
  5
102
100
AcDbEntity
  8
0
100
AcDbFace
 10
-5.75
 20
-15.451902961144
 30
-1.798097038856
 11
-5.75
 21
-14.747391519338
 31
-0.743721155187
 12
-7.25
 22
-14.747391519338
 32
-0.743721155187
 13
-7.25
 23
-15.451902961144
 33
-1.798097038856
  0
3DFACE
  5
103
100
AcDbEntity
  8
0
100
AcDbFace
 10
-5.75
 20
-14.747391519338
 30
-0.743721155187
 11
-5.75
 21
-14.5
 31
0.5
 12
-7.25
 22
-14.5
 32
0.5
 13
-7.25
 23
-14.747391519338
 33
-0.743721155187
  0
3DFACE
  5
104
100
AcDbEntity
  8
0
100
AcDbFace
 10
-5.75
 20
-14.5
 30
0.5
 11
-5.75
 21
-14.747391519338
 31
1.743721155187
 12
-7.25
 22
-14.747391519338
 32
1.743721155187
 13
-7.25
 23
-14.5
 33
0.5
  0
3DFACE
  5
105
100
AcDbEntity
  8
0
100
AcDbFace
 10
-5.75
 20
-14.747391519338
 30
1.743721155187
 11
-5.75
 21
-15.451902961144
 31
2.798097038856
 12
-7.25
 22
-15.451902961144
 32
2.798097038856
 13
-7.25
 23
-14.747391519338
 33
1.743721155187
  0
3DFACE
  5
106
100
AcDbEntity
  8
0
100
AcDbFace
 10
-5.75
 20
-15.451902961144
 30
2.798097038856
 11
-5.75
 21
-16.506278844813
 31
3.502608480662
 12
-7.25
 22
-16.506278844813
 32
3.502608480662
 13
-7.25
 23
-15.451902961144
 33
2.798097038856
  0
3DFACE
  5
107
100
AcDbEntity
  8
0
100
AcDbFace
 10
-5.75
 20
-16.506278844813
 30
3.502608480662
 11
-5.75
 21
-17.75
 31
3.75
 12
-7.25
 22
-17.75
 32
3.75
 13
-7.25
 23
-16.506278844813
 33
3.502608480662
  0
3DFACE
  5
108
100
AcDbEntity
  8
0
100
AcDbFace
 10
-5.75
 20
-17.75
 30
3.75
 11
-5.75
 21
-18.993721155187
 31
3.502608480662
 12
-7.25
 22
-18.993721155187
 32
3.502608480662
 13
-7.25
 23
-17.75
 33
3.75
  0
3DFACE
  5
109
100
AcDbEntity
  8
0
100
AcDbFace
 10
-5.75
 20
-18.993721155187
 30
3.502608480662
 11
-5.75
 21
-20.048097038856
 31
2.798097038856
 12
-7.25
 22
-20.048097038856
 32
2.798097038856
 13
-7.25
 23
-18.993721155187
 33
3.502608480662
  0
3DFACE
  5
10A
100
AcDbEntity
  8
0
100
AcDbFace
 10
-5.75
 20
-20.048097038856
 30
2.798097038856
 11
-5.75
 21
-20.752608480662
 31
1.743721155187
 12
-7.25
 22
-20.752608480662
 32
1.743721155187
 13
-7.25
 23
-20.048097038856
 33
2.798097038856
  0
3DFACE
  5
10B
100
AcDbEntity
  8
0
100
AcDbFace
 10
-5.75
 20
-20.752608480662
 30
1.743721155187
 11
-5.75
 21
-21.0
 31
0.5
 12
-7.25
 22
-21.0
 32
0.5
 13
-7.25
 23
-20.752608480662
 33
1.743721155187
  0
3DFACE
  5
10C
100
AcDbEntity
  8
0
100
AcDbFace
 10
-5.75
 20
-21.0
 30
0.5
 11
-5.75
 21
-20.752608480662
 31
-0.743721155187
 12
-7.25
 22
-20.752608480662
 32
-0.743721155187
 13
-7.25
 23
-21.0
 33
0.5
  0
3DFACE
  5
10D
100
AcDbEntity
  8
0
100
AcDbFace
 10
5.75
 20
-20.752608480662
 30
-0.743721155187
 11
5.75
 21
-20.048097038856
 31
-1.798097038856
 12
7.25
 22
-20.048097038856
 32
-1.798097038856
 13
7.25
 23
-20.752608480662
 33
-0.743721155187
  0
3DFACE
  5
10E
100
AcDbEntity
  8
0
100
AcDbFace
 10
5.75
 20
-20.048097038856
 30
-1.798097038856
 11
5.75
 21
-18.993721155187
 31
-2.502608480662
 12
7.25
 22
-18.993721155187
 32
-2.502608480662
 13
7.25
 23
-20.048097038856
 33
-1.798097038856
  0
3DFACE
  5
10F
100
AcDbEntity
  8
0
100
AcDbFace
 10
5.75
 20
-18.993721155187
 30
-2.502608480662
 11
5.75
 21
-17.75
 31
-2.75
 12
7.25
 22
-17.75
 32
-2.75
 13
7.25
 23
-18.993721155187
 33
-2.502608480662
  0
3DFACE
  5
110
100
AcDbEntity
  8
0
100
AcDbFace
 10
5.75
 20
-17.75
 30
-2.75
 11
5.75
 21
-16.506278844813
 31
-2.502608480662
 12
7.25
 22
-16.506278844813
 32
-2.502608480662
 13
7.25
 23
-17.75
 33
-2.75
  0
3DFACE
  5
111
100
AcDbEntity
  8
0
100
AcDbFace
 10
5.75
 20
-16.506278844813
 30
-2.502608480662
 11
5.75
 21
-15.451902961144
 31
-1.798097038856
 12
7.25
 22
-15.451902961144
 32
-1.798097038856
 13
7.25
 23
-16.506278844813
 33
-2.502608480662
  0
3DFACE
  5
112
100
AcDbEntity
  8
0
100
AcDbFace
 10
5.75
 20
-15.451902961144
 30
-1.798097038856
 11
5.75
 21
-14.747391519338
 31
-0.743721155187
 12
7.25
 22
-14.747391519338
 32
-0.743721155187
 13
7.25
 23
-15.451902961144
 33
-1.798097038856
  0
3DFACE
  5
113
100
AcDbEntity
  8
0
100
AcDbFace
 10
5.75
 20
-14.747391519338
 30
-0.743721155187
 11
5.75
 21
-14.5
 31
0.5
 12
7.25
 22
-14.5
 32
0.5
 13
7.25
 23
-14.747391519338
 33
-0.743721155187
  0
3DFACE
  5
114
100
AcDbEntity
  8
0
100
AcDbFace
 10
5.75
 20
-14.5
 30
0.5
 11
5.75
 21
-14.747391519338
 31
1.743721155187
 12
7.25
 22
-14.747391519338
 32
1.743721155187
 13
7.25
 23
-14.5
 33
0.5
  0
3DFACE
  5
115
100
AcDbEntity
  8
0
100
AcDbFace
 10
5.75
 20
-14.747391519338
 30
1.743721155187
 11
5.75
 21
-15.451902961144
 31
2.798097038856
 12
7.25
 22
-15.451902961144
 32
2.798097038856
 13
7.25
 23
-14.747391519338
 33
1.743721155187
  0
3DFACE
  5
116
100
AcDbEntity
  8
0
100
AcDbFace
 10
5.75
 20
-15.451902961144
 30
2.798097038856
 11
5.75
 21
-16.506278844813
 31
3.502608480662
 12
7.25
 22
-16.506278844813
 32
3.502608480662
 13
7.25
 23
-15.451902961144
 33
2.798097038856
  0
3DFACE
  5
117
100
AcDbEntity
  8
0
100
AcDbFace
 10
5.75
 20
-16.506278844813
 30
3.502608480662
 11
5.75
 21
-17.75
 31
3.75
 12
7.25
 22
-17.75
 32
3.75
 13
7.25
 23
-16.506278844813
 33
3.502608480662
  0
3DFACE
  5
118
100
AcDbEntity
  8
0
100
AcDbFace
 10
5.75
 20
-17.75
 30
3.75
 11
5.75
 21
-18.993721155187
 31
3.502608480662
 12
7.25
 22
-18.993721155187
 32
3.502608480662
 13
7.25
 23
-17.75
 33
3.75
  0
3DFACE
  5
119
100
AcDbEntity
  8
0
100
AcDbFace
 10
5.75
 20
-18.993721155187
 30
3.502608480662
 11
5.75
 21
-20.048097038856
 31
2.798097038856
 12
7.25
 22
-20.048097038856
 32
2.798097038856
 13
7.25
 23
-18.993721155187
 33
3.502608480662
  0
3DFACE
  5
11A
100
AcDbEntity
  8
0
100
AcDbFace
 10
5.75
 20
-20.048097038856
 30
2.798097038856
 11
5.75
 21
-20.752608480662
 31
1.743721155187
 12
7.25
 22
-20.752608480662
 32
1.743721155187
 13
7.25
 23
-20.048097038856
 33
2.798097038856
  0
3DFACE
  5
11B
100
AcDbEntity
  8
0
100
AcDbFace
 10
5.75
 20
-20.752608480662
 30
1.743721155187
 11
5.75
 21
-21.0
 31
0.5
 12
7.25
 22
-21.0
 32
0.5
 13
7.25
 23
-20.752608480662
 33
1.743721155187
  0
3DFACE
  5
11C
100
AcDbEntity
  8
0
100
AcDbFace
 10
5.75
 20
-21.0
 30
0.5
 11
5.75
 21
-20.752608480662
 31
-0.743721155187
 12
7.25
 22
-20.752608480662
 32
-0.743721155187
 13
7.25
 23
-21.0
 33
0.5
  0
3DFACE
  5
11D
100
AcDbEntity
  8
0
100
AcDbFace
 10
1.0
 20
-17.5
 30
0.75
 11
1.0
 21
-17.5
 31
3.0
 12
-1.0
 22
-17.5
 32
3.0
 13
-1.0
 23
-17.5
 33
0.75
  0
3DFACE
  5
11E
100
AcDbEntity
  8
0
100
AcDbFace
 10
1.0
 20
-17.5
 30
3.0
 11
1.0
 21
-17.5
 31
3.0
 12
-1.0
 22
-17.5
 32
3.0
 13
-1.0
 23
-17.5
 33
3.0
  0
3DFACE
  5
11F
100
AcDbEntity
  8
0
100
AcDbFace
 10
-1.0
 20
-17.5
 30
0.75
 11
-1.0
 21
-17.5
 31
3.0
 12
-1.0
 22
-18.25
 32
3.0
 13
-1.0
 23
-18.25
 33
0.75
  0
3DFACE
  5
120
100
AcDbEntity
  8
0
100
AcDbFace
 10
-1.0
 20
-17.5
 30
3.0
 11
-1.0
 21
-17.5
 31
3.0
 12
-1.0
 22
-17.5
 32
3.0
 13
-1.0
 23
-18.25
 33
3.0
  0
3DFACE
  5
121
100
AcDbEntity
  8
0
100
AcDbFace
 10
-1.0
 20
-18.25
 30
0.75
 11
-1.0
 21
-18.25
 31
3.0
 12
1.0
 22
-18.25
 32
3.0
 13
1.0
 23
-18.25
 33
0.75
  0
3DFACE
  5
122
100
AcDbEntity
  8
0
100
AcDbFace
 10
-1.0
 20
-18.25
 30
3.0
 11
-1.0
 21
-17.5
 31
3.0
 12
1.0
 22
-17.5
 32
3.0
 13
1.0
 23
-18.25
 33
3.0
  0
3DFACE
  5
123
100
AcDbEntity
  8
0
100
AcDbFace
 10
1.0
 20
-18.25
 30
0.75
 11
1.0
 21
-18.25
 31
3.0
 12
1.0
 22
-18.25
 32
0.75
 13
1.0
 23
-18.25
 33
0.75
  0
3DFACE
  5
124
100
AcDbEntity
  8
0
100
AcDbFace
 10
1.0
 20
-18.25
 30
3.0
 11
1.0
 21
-17.5
 31
3.0
 12
1.0
 22
-17.5
 32
0.75
 13
1.0
 23
-18.25
 33
0.75
  0
3DFACE
  5
125
100
AcDbEntity
  8
0
100
AcDbFace
 10
1.0
 20
-18.25
 30
0.75
 11
1.0
 21
-18.25
 31
0.75
 12
-1.0
 22
-18.25
 32
0.75
 13
-1.0
 23
-18.25
 33
0.75
  0
3DFACE
  5
126
100
AcDbEntity
  8
0
100
AcDbFace
 10
1.0
 20
-18.25
 30
0.75
 11
1.0
 21
-17.5
 31
0.75
 12
-1.0
 22
-17.5
 32
0.75
 13
-1.0
 23
-18.25
 33
0.75
  0
3DFACE
  5
127
100
AcDbEntity
  8
0
100
AcDbFace
 10
4.0
 20
0.0
 30
2.0
 11
4.0
 21
0.0
 31
14.0
 12
4.0
 22
-9.0
 32
14.0
 13
4.0
 23
-13.0
 33
5.5
  0
3DFACE
  5
128
100
AcDbEntity
  8
0
100
AcDbFace
 10
4.0
 20
0.0
 30
2.0
 11
4.0
 21
-13.0
 31
5.5
 12
4.0
 22
-13.0
 32
2.0
 13
4.0
 23
-13.0
 33
2.0
  0
3DFACE
  5
129
100
AcDbEntity
  8
0
100
AcDbFace
 10
-4.0
 20
0.0
 30
2.0
 11
-4.0
 21
-13.0
 31
5.5
 12
-4.0
 22
-13.0
 32
2.0
 13
-4.0
 23
-13.0
 33
2.0
  0
3DFACE
  5
12A
100
AcDbEntity
  8
0
100
AcDbFace
 10
-4.0
 20
0.0
 30
2.0
 11
-4.0
 21
0.0
 31
14.0
 12
-4.0
 22
-9.0
 32
14.0
 13
-4.0
 23
-13.0
 33
5.5
  0
3DFACE
  5
12B
100
AcDbEntity
  8
0
100
AcDbFace
 10
4.25
 20
0.0
 30
2.0
 11
4.25
 21
0.0
 31
14.0
 12
4.25
 22
-9.0
 32
14.0
 13
4.25
 23
-13.0
 33
5.5
  0
3DFACE
  5
12C
100
AcDbEntity
  8
0
100
AcDbFace
 10
4.25
 20
0.0
 30
2.0
 11
4.25
 21
-13.0
 31
5.5
 12
4.25
 22
-13.0
 32
2.0
 13
4.25
 23
-13.0
 33
2.0
  0
3DFACE
  5
12D
100
AcDbEntity
  8
0
100
AcDbFace
 10
-4.25
 20
0.0
 30
2.0
 11
-4.25
 21
0.0
 31
14.0
 12
-4.25
 22
-9.0
 32
14.0
 13
-4.25
 23
-13.0
 33
5.5
  0
3DFACE
  5
12E
100
AcDbEntity
  8
0
100
AcDbFace
 10
-4.25
 20
0.0
 30
2.0
 11
-4.25
 21
-13.0
 31
5.5
 12
-4.25
 22
-13.0
 32
2.0
 13
-4.25
 23
-13.0
 33
2.0
  0
3DFACE
  5
12F
100
AcDbEntity
  8
0
100
AcDbFace
 10
-4.25
 20
0.0
 30
14.0
 11
-4.0
 21
0.0
 31
14.0
 12
-4.0
 22
-9.0
 32
14.0
 13
-4.25
 23
-9.0
 33
14.0
  0
3DFACE
  5
130
100
AcDbEntity
  8
0
100
AcDbFace
 10
-4.25
 20
-9.0
 30
14.0
 11
-4.0
 21
-9.0
 31
14.0
 12
-4.0
 22
-13.0
 32
5.5
 13
-4.25
 23
-13.0
 33
5.5
  0
3DFACE
  5
131
100
AcDbEntity
  8
0
100
AcDbFace
 10
-4.25
 20
-13.0
 30
5.5
 11
-4.0
 21
-13.0
 31
5.5
 12
-4.0
 22
-13.0
 32
2.0
 13
-4.25
 23
-13.0
 33
2.0
  0
3DFACE
  5
132
100
AcDbEntity
  8
0
100
AcDbFace
 10
-4.25
 20
0.0
 30
14.0
 11
-4.0
 21
0.0
 31
14.0
 12
-4.0
 22
0.0
 32
2.0
 13
-4.25
 23
0.0
 33
2.0
  0
3DFACE
  5
133
100
AcDbEntity
  8
0
100
AcDbFace
 10
4.25
 20
0.0
 30
14.0
 11
4.0
 21
0.0
 31
14.0
 12
4.0
 22
-9.0
 32
14.0
 13
4.25
 23
-9.0
 33
14.0
  0
3DFACE
  5
134
100
AcDbEntity
  8
0
100
AcDbFace
 10
4.25
 20
0.0
 30
14.0
 11
4.0
 21
0.0
 31
14.0
 12
4.0
 22
0.0
 32
2.0
 13
4.25
 23
0.0
 33
2.0
  0
3DFACE
  5
135
100
AcDbEntity
  8
0
100
AcDbFace
 10
4.25
 20
-9.0
 30
14.0
 11
4.0
 21
-9.0
 31
14.0
 12
4.0
 22
-13.0
 32
5.5
 13
4.25
 23
-13.0
 33
5.5
  0
3DFACE
  5
136
100
AcDbEntity
  8
0
100
AcDbFace
 10
4.25
 20
-13.0
 30
5.5
 11
4.0
 21
-13.0
 31
5.5
 12
4.0
 22
-13.0
 32
2.0
 13
4.25
 23
-13.0
 33
2.0
  0
3DFACE
  5
137
100
AcDbEntity
  8
0
100
AcDbFace
 10
4.0
 20
0.75
 30
6.25
 11
4.0
 21
0.75
 31
7.0
 12
-4.0
 22
0.75
 32
7.0
 13
-4.0
 23
0.75
 33
6.25
  0
3DFACE
  5
138
100
AcDbEntity
  8
0
100
AcDbFace
 10
4.0
 20
0.75
 30
7.0
 11
4.0
 21
0.75
 31
7.0
 12
-4.0
 22
0.75
 32
7.0
 13
-4.0
 23
0.75
 33
7.0
  0
3DFACE
  5
139
100
AcDbEntity
  8
0
100
AcDbFace
 10
-4.0
 20
0.75
 30
6.25
 11
-4.0
 21
0.75
 31
7.0
 12
-4.0
 22
-0.75
 32
7.0
 13
-4.0
 23
-0.75
 33
6.25
  0
3DFACE
  5
13A
100
AcDbEntity
  8
0
100
AcDbFace
 10
-4.0
 20
0.75
 30
7.0
 11
-4.0
 21
0.75
 31
7.0
 12
-4.0
 22
0.75
 32
7.0
 13
-4.0
 23
-0.75
 33
7.0
  0
3DFACE
  5
13B
100
AcDbEntity
  8
0
100
AcDbFace
 10
-4.0
 20
-0.75
 30
6.25
 11
-4.0
 21
-0.75
 31
7.0
 12
4.0
 22
-0.75
 32
7.0
 13
4.0
 23
-0.75
 33
6.25
  0
3DFACE
  5
13C
100
AcDbEntity
  8
0
100
AcDbFace
 10
-4.0
 20
-0.75
 30
7.0
 11
-4.0
 21
0.75
 31
7.0
 12
4.0
 22
0.75
 32
7.0
 13
4.0
 23
-0.75
 33
7.0
  0
3DFACE
  5
13D
100
AcDbEntity
  8
0
100
AcDbFace
 10
4.0
 20
-0.75
 30
6.25
 11
4.0
 21
-0.75
 31
7.0
 12
4.0
 22
-0.75
 32
6.25
 13
4.0
 23
-0.75
 33
6.25
  0
3DFACE
  5
13E
100
AcDbEntity
  8
0
100
AcDbFace
 10
4.0
 20
-0.75
 30
7.0
 11
4.0
 21
0.75
 31
7.0
 12
4.0
 22
0.75
 32
6.25
 13
4.0
 23
-0.75
 33
6.25
  0
3DFACE
  5
13F
100
AcDbEntity
  8
0
100
AcDbFace
 10
4.0
 20
-0.75
 30
6.25
 11
4.0
 21
-0.75
 31
6.25
 12
-4.0
 22
-0.75
 32
6.25
 13
-4.0
 23
-0.75
 33
6.25
  0
3DFACE
  5
140
100
AcDbEntity
  8
0
100
AcDbFace
 10
4.0
 20
-0.75
 30
6.25
 11
4.0
 21
0.75
 31
6.25
 12
-4.0
 22
0.75
 32
6.25
 13
-4.0
 23
-0.75
 33
6.25
  0
3DFACE
  5
141
100
AcDbEntity
  8
0
100
AcDbFace
 10
8.0
 20
-1.5
 30
5.5
 11
8.0
 21
-1.5
 31
-3.5
 12
8.0
 22
-3.222075445643
 32
-3.157457896301
 13
8.0
 23
-3.222075445643
 33
5.157457896301
  0
3DFACE
  5
142
100
AcDbEntity
  8
0
100
AcDbFace
 10
8.0
 20
-3.222075445643
 30
5.157457896301
 11
8.0
 21
-4.681980515339
 31
4.181980515339
 12
8.0
 22
-4.681980515339
 32
-2.181980515339
 13
8.0
 23
-3.222075445643
 33
-3.157457896301
  0
3DFACE
  5
143
100
AcDbEntity
  8
0
100
AcDbFace
 10
8.0
 20
-5.657457896301
 30
-0.722075445643
 11
8.0
 21
-4.681980515339
 31
-2.181980515339
 12
8.0
 22
-4.681980515339
 32
4.181980515339
 13
8.0
 23
-5.657457896301
 33
2.722075445643
  0
3DFACE
  5
144
100
AcDbEntity
  8
0
100
AcDbFace
 10
8.0
 20
-6.0
 30
1.0
 11
8.0
 21
-5.657457896301
 31
2.722075445643
 12
8.0
 22
-5.657457896301
 32
-0.722075445643
 13
8.0
 23
-5.657457896301
 33
-0.722075445643
  0
3DFACE
  5
145
100
AcDbEntity
  8
0
100
AcDbFace
 10
8.0
 20
-1.5
 30
5.5
 11
8.0
 21
-1.5
 31
-3.5
 12
8.0
 22
0.222075445643
 32
-3.157457896301
 13
8.0
 23
0.222075445643
 33
5.157457896301
  0
3DFACE
  5
146
100
AcDbEntity
  8
0
100
AcDbFace
 10
8.0
 20
1.681980515339
 30
4.181980515339
 11
8.0
 21
1.681980515339
 31
-2.181980515339
 12
8.0
 22
0.222075445643
 32
-3.157457896301
 13
8.0
 23
0.222075445643
 33
5.157457896301
  0
3DFACE
  5
147
100
AcDbEntity
  8
0
100
AcDbFace
 10
8.0
 20
1.681980515339
 30
-2.181980515339
 11
8.0
 21
2.657457896301
 31
-0.722075445643
 12
8.0
 22
2.657457896301
 32
2.722075445643
 13
8.0
 23
1.681980515339
 33
4.181980515339
  0
3DFACE
  5
148
100
AcDbEntity
  8
0
100
AcDbFace
 10
8.0
 20
2.657457896301
 30
-0.722075445643
 11
8.0
 21
3.0
 31
1.0
 12
8.0
 22
2.657457896301
 32
2.722075445643
 13
8.0
 23
2.657457896301
 33
2.722075445643
  0
3DFACE
  5
149
100
AcDbEntity
  8
0
100
AcDbFace
 10
-8.0
 20
-6.0
 30
1.0
 11
-8.0
 21
-5.657457896301
 31
2.722075445643
 12
-8.0
 22
-5.657457896301
 32
-0.722075445643
 13
-8.0
 23
-5.657457896301
 33
-0.722075445643
  0
3DFACE
  5
14A
100
AcDbEntity
  8
0
100
AcDbFace
 10
-8.0
 20
-5.657457896301
 30
-0.722075445643
 11
-8.0
 21
-4.681980515339
 31
-2.181980515339
 12
-8.0
 22
-4.681980515339
 32
4.181980515339
 13
-8.0
 23
-5.657457896301
 33
2.722075445643
  0
3DFACE
  5
14B
100
AcDbEntity
  8
0
100
AcDbFace
 10
-8.0
 20
-3.222075445643
 30
5.157457896301
 11
-8.0
 21
-4.681980515339
 31
4.181980515339
 12
-8.0
 22
-4.681980515339
 32
-2.181980515339
 13
-8.0
 23
-3.222075445643
 33
-3.157457896301
  0
3DFACE
  5
14C
100
AcDbEntity
  8
0
100
AcDbFace
 10
-8.0
 20
-1.5
 30
5.5
 11
-8.0
 21
-1.5
 31
-3.5
 12
-8.0
 22
-3.222075445643
 32
-3.157457896301
 13
-8.0
 23
-3.222075445643
 33
5.157457896301
  0
3DFACE
  5
14D
100
AcDbEntity
  8
0
100
AcDbFace
 10
-8.0
 20
-1.5
 30
5.5
 11
-8.0
 21
-1.5
 31
-3.5
 12
-8.0
 22
0.222075445643
 32
-3.157457896301
 13
-8.0
 23
0.222075445643
 33
5.157457896301
  0
3DFACE
  5
14E
100
AcDbEntity
  8
0
100
AcDbFace
 10
-8.0
 20
1.681980515339
 30
4.181980515339
 11
-8.0
 21
1.681980515339
 31
-2.181980515339
 12
-8.0
 22
0.222075445643
 32
-3.157457896301
 13
-8.0
 23
0.222075445643
 33
5.157457896301
  0
3DFACE
  5
14F
100
AcDbEntity
  8
0
100
AcDbFace
 10
-8.0
 20
1.681980515339
 30
-2.181980515339
 11
-8.0
 21
2.657457896301
 31
-0.722075445643
 12
-8.0
 22
2.657457896301
 32
2.722075445643
 13
-8.0
 23
1.681980515339
 33
4.181980515339
  0
3DFACE
  5
150
100
AcDbEntity
  8
0
100
AcDbFace
 10
-8.0
 20
2.657457896301
 30
-0.722075445643
 11
-8.0
 21
3.0
 31
1.0
 12
-8.0
 22
2.657457896301
 32
2.722075445643
 13
-8.0
 23
2.657457896301
 33
2.722075445643
  0
3DFACE
  5
151
100
AcDbEntity
  8
0
100
AcDbFace
 10
7.25
 20
-17.75
 30
-2.75
 11
7.25
 21
-17.75
 31
3.75
 12
7.25
 22
-18.993721155187
 32
3.502608480662
 13
7.25
 23
-18.993721155187
 33
-2.502608480662
  0
3DFACE
  5
152
100
AcDbEntity
  8
0
100
AcDbFace
 10
7.25
 20
-18.993721155187
 30
-2.502608480662
 11
7.25
 21
-20.048097038856
 31
-1.798097038856
 12
7.25
 22
-20.048097038856
 32
2.798097038856
 13
7.25
 23
-18.993721155187
 33
3.502608480662
  0
3DFACE
  5
153
100
AcDbEntity
  8
0
100
AcDbFace
 10
7.25
 20
-20.048097038856
 30
-1.798097038856
 11
7.25
 21
-20.752608480662
 31
-0.743721155187
 12
7.25
 22
-20.752608480662
 32
1.743721155187
 13
7.25
 23
-20.048097038856
 33
2.798097038856
  0
3DFACE
  5
154
100
AcDbEntity
  8
0
100
AcDbFace
 10
7.25
 20
-20.752608480662
 30
-0.743721155187
 11
7.25
 21
-21.0
 31
0.5
 12
7.25
 22
-20.752608480662
 32
1.743721155187
 13
7.25
 23
-20.752608480662
 33
1.743721155187
  0
3DFACE
  5
155
100
AcDbEntity
  8
0
100
AcDbFace
 10
7.25
 20
-17.75
 30
-2.75
 11
7.25
 21
-17.75
 31
3.75
 12
7.25
 22
-16.506278844813
 32
3.502608480662
 13
7.25
 23
-16.506278844813
 33
-2.502608480662
  0
3DFACE
  5
156
100
AcDbEntity
  8
0
100
AcDbFace
 10
7.25
 20
-16.506278844813
 30
-2.502608480662
 11
7.25
 21
-16.506278844813
 31
3.502608480662
 12
7.25
 22
-15.451902961144
 32
2.798097038856
 13
7.25
 23
-15.451902961144
 33
-1.798097038856
  0
3DFACE
  5
157
100
AcDbEntity
  8
0
100
AcDbFace
 10
7.25
 20
-15.451902961144
 30
-1.798097038856
 11
7.25
 21
-15.451902961144
 31
2.798097038856
 12
7.25
 22
-14.747391519338
 32
1.743721155187
 13
7.25
 23
-14.747391519338
 33
-0.743721155187
  0
3DFACE
  5
158
100
AcDbEntity
  8
0
100
AcDbFace
 10
7.25
 20
-14.747391519338
 30
-0.743721155187
 11
7.25
 21
-14.747391519338
 31
1.743721155187
 12
7.25
 22
-14.5
 32
0.5
 13
7.25
 23
-14.5
 33
0.5
  0
3DFACE
  5
159
100
AcDbEntity
  8
0
100
AcDbFace
 10
-7.25
 20
-20.752608480662
 30
-0.743721155187
 11
-7.25
 21
-21.0
 31
0.5
 12
-7.25
 22
-20.752608480662
 32
1.743721155187
 13
-7.25
 23
-20.752608480662
 33
1.743721155187
  0
3DFACE
  5
15A
100
AcDbEntity
  8
0
100
AcDbFace
 10
-7.25
 20
-20.048097038856
 30
-1.798097038856
 11
-7.25
 21
-20.752608480662
 31
-0.743721155187
 12
-7.25
 22
-20.752608480662
 32
1.743721155187
 13
-7.25
 23
-20.048097038856
 33
2.798097038856
  0
3DFACE
  5
15B
100
AcDbEntity
  8
0
100
AcDbFace
 10
-7.25
 20
-18.993721155187
 30
-2.502608480662
 11
-7.25
 21
-20.048097038856
 31
-1.798097038856
 12
-7.25
 22
-20.048097038856
 32
2.798097038856
 13
-7.25
 23
-18.993721155187
 33
3.502608480662
  0
3DFACE
  5
15C
100
AcDbEntity
  8
0
100
AcDbFace
 10
-7.25
 20
-17.75
 30
-2.75
 11
-7.25
 21
-17.75
 31
3.75
 12
-7.25
 22
-18.993721155187
 32
3.502608480662
 13
-7.25
 23
-18.993721155187
 33
-2.502608480662
  0
3DFACE
  5
15D
100
AcDbEntity
  8
0
100
AcDbFace
 10
-7.25
 20
-17.75
 30
-2.75
 11
-7.25
 21
-17.75
 31
3.75
 12
-7.25
 22
-16.506278844813
 32
3.502608480662
 13
-7.25
 23
-16.506278844813
 33
-2.502608480662
  0
3DFACE
  5
15E
100
AcDbEntity
  8
0
100
AcDbFace
 10
-7.25
 20
-16.506278844813
 30
-2.502608480662
 11
-7.25
 21
-16.506278844813
 31
3.502608480662
 12
-7.25
 22
-15.451902961144
 32
2.798097038856
 13
-7.25
 23
-15.451902961144
 33
-1.798097038856
  0
3DFACE
  5
15F
100
AcDbEntity
  8
0
100
AcDbFace
 10
-7.25
 20
-15.451902961144
 30
-1.798097038856
 11
-7.25
 21
-15.451902961144
 31
2.798097038856
 12
-7.25
 22
-14.747391519338
 32
1.743721155187
 13
-7.25
 23
-14.747391519338
 33
-0.743721155187
  0
3DFACE
  5
160
100
AcDbEntity
  8
0
100
AcDbFace
 10
-7.25
 20
-14.747391519338
 30
-0.743721155187
 11
-7.25
 21
-14.747391519338
 31
1.743721155187
 12
-7.25
 22
-14.5
 32
0.5
 13
-7.25
 23
-14.5
 33
0.5
  0
3DFACE
  5
161
100
AcDbEntity
  8
0
100
AcDbFace
 10
-4.0
 20
-1.115484941564
 30
12.952164570954
 11
-4.0
 21
-1.088388347648
 31
12.911611652352
 12
-1.125
 22
-1.088388347648
 32
12.911611652352
 13
-1.125
 23
-1.115484941564
 33
12.952164570954
  0
3DFACE
  5
162
100
AcDbEntity
  8
0
100
AcDbFace
 10
-4.0
 20
-1.088388347648
 30
12.911611652352
 11
-4.0
 21
-1.047835429046
 31
12.884515058436
 12
-1.125
 22
-1.047835429046
 32
12.884515058436
 13
-1.125
 23
-1.088388347648
 33
12.911611652352
  0
3DFACE
  5
163
100
AcDbEntity
  8
0
100
AcDbFace
 10
-4.0
 20
-1.047835429046
 30
12.884515058436
 11
-4.0
 21
-1.0
 31
12.875
 12
-1.125
 22
-1.0
 32
12.875
 13
-1.125
 23
-1.047835429046
 33
12.884515058436
  0
3DFACE
  5
164
100
AcDbEntity
  8
0
100
AcDbFace
 10
-4.0
 20
-1.0
 30
12.875
 11
-4.0
 21
-0.952164570954
 31
12.884515058436
 12
-1.125
 22
-0.952164570954
 32
12.884515058436
 13
-1.125
 23
-1.0
 33
12.875
  0
3DFACE
  5
165
100
AcDbEntity
  8
0
100
AcDbFace
 10
-4.0
 20
-0.952164570954
 30
12.884515058436
 11
-4.0
 21
-0.911611652352
 31
12.911611652352
 12
-1.125
 22
-0.911611652352
 32
12.911611652352
 13
-1.125
 23
-0.952164570954
 33
12.884515058436
  0
3DFACE
  5
166
100
AcDbEntity
  8
0
100
AcDbFace
 10
-4.0
 20
-0.911611652352
 30
12.911611652352
 11
-4.0
 21
-0.884515058436
 31
12.952164570954
 12
-1.125
 22
-0.884515058436
 32
12.952164570954
 13
-1.125
 23
-0.911611652352
 33
12.911611652352
  0
3DFACE
  5
167
100
AcDbEntity
  8
0
100
AcDbFace
 10
-4.0
 20
-0.884515058436
 30
12.952164570954
 11
-4.0
 21
-0.875
 31
13.0
 12
-1.125
 22
-0.875
 32
13.0
 13
-1.125
 23
-0.884515058436
 33
12.952164570954
  0
3DFACE
  5
168
100
AcDbEntity
  8
0
100
AcDbFace
 10
-4.0
 20
-0.875
 30
13.0
 11
-4.0
 21
-0.884515058436
 31
13.047835429046
 12
-1.125
 22
-0.884515058436
 32
13.047835429046
 13
-1.125
 23
-0.875
 33
13.0
  0
3DFACE
  5
169
100
AcDbEntity
  8
0
100
AcDbFace
 10
-4.0
 20
-0.884515058436
 30
13.047835429046
 11
-4.0
 21
-0.911611652352
 31
13.088388347648
 12
-1.125
 22
-0.911611652352
 32
13.088388347648
 13
-1.125
 23
-0.884515058436
 33
13.047835429046
  0
3DFACE
  5
16A
100
AcDbEntity
  8
0
100
AcDbFace
 10
-4.0
 20
-0.911611652352
 30
13.088388347648
 11
-4.0
 21
-0.952164570954
 31
13.115484941564
 12
-1.125
 22
-0.952164570954
 32
13.115484941564
 13
-1.125
 23
-0.911611652352
 33
13.088388347648
  0
3DFACE
  5
16B
100
AcDbEntity
  8
0
100
AcDbFace
 10
-4.0
 20
-0.952164570954
 30
13.115484941564
 11
-4.0
 21
-1.0
 31
13.125
 12
-1.125
 22
-1.0
 32
13.125
 13
-1.125
 23
-0.952164570954
 33
13.115484941564
  0
3DFACE
  5
16C
100
AcDbEntity
  8
0
100
AcDbFace
 10
-4.0
 20
-1.0
 30
13.125
 11
-4.0
 21
-1.047835429046
 31
13.115484941564
 12
-1.125
 22
-1.047835429046
 32
13.115484941564
 13
-1.125
 23
-1.0
 33
13.125
  0
3DFACE
  5
16D
100
AcDbEntity
  8
0
100
AcDbFace
 10
-4.0
 20
-1.047835429046
 30
13.115484941564
 11
-4.0
 21
-1.088388347648
 31
13.088388347648
 12
-1.125
 22
-1.088388347648
 32
13.088388347648
 13
-1.125
 23
-1.047835429046
 33
13.115484941564
  0
3DFACE
  5
16E
100
AcDbEntity
  8
0
100
AcDbFace
 10
-4.0
 20
-1.088388347648
 30
13.088388347648
 11
-4.0
 21
-1.115484941564
 31
13.047835429046
 12
-1.125
 22
-1.115484941564
 32
13.047835429046
 13
-1.125
 23
-1.088388347648
 33
13.088388347648
  0
3DFACE
  5
16F
100
AcDbEntity
  8
0
100
AcDbFace
 10
-4.0
 20
-1.115484941564
 30
13.047835429046
 11
-4.0
 21
-1.125
 31
13.0
 12
-1.125
 22
-1.125
 32
13.0
 13
-1.125
 23
-1.115484941564
 33
13.047835429046
  0
3DFACE
  5
170
100
AcDbEntity
  8
0
100
AcDbFace
 10
-4.0
 20
-1.125
 30
13.0
 11
-4.0
 21
-1.115484941564
 31
12.952164570954
 12
-1.125
 22
-1.115484941564
 32
12.952164570954
 13
-1.125
 23
-1.125
 33
13.0
  0
3DFACE
  5
171
100
AcDbEntity
  8
0
100
AcDbFace
 10
4.0
 20
-1.115484941564
 30
13.047835429046
 11
4.0
 21
-1.088388347648
 31
13.088388347648
 12
0.625
 22
-1.088388347648
 32
13.088388347648
 13
0.625
 23
-1.115484941564
 33
13.047835429046
  0
3DFACE
  5
172
100
AcDbEntity
  8
0
100
AcDbFace
 10
4.0
 20
-1.088388347648
 30
13.088388347648
 11
4.0
 21
-1.047835429046
 31
13.115484941564
 12
0.625
 22
-1.047835429046
 32
13.115484941564
 13
0.625
 23
-1.088388347648
 33
13.088388347648
  0
3DFACE
  5
173
100
AcDbEntity
  8
0
100
AcDbFace
 10
4.0
 20
-1.047835429046
 30
13.115484941564
 11
4.0
 21
-1.0
 31
13.125
 12
0.625
 22
-1.0
 32
13.125
 13
0.625
 23
-1.047835429046
 33
13.115484941564
  0
3DFACE
  5
174
100
AcDbEntity
  8
0
100
AcDbFace
 10
4.0
 20
-1.0
 30
13.125
 11
4.0
 21
-0.952164570954
 31
13.115484941564
 12
0.625
 22
-0.952164570954
 32
13.115484941564
 13
0.625
 23
-1.0
 33
13.125
  0
3DFACE
  5
175
100
AcDbEntity
  8
0
100
AcDbFace
 10
4.0
 20
-0.952164570954
 30
13.115484941564
 11
4.0
 21
-0.911611652352
 31
13.088388347648
 12
0.625
 22
-0.911611652352
 32
13.088388347648
 13
0.625
 23
-0.952164570954
 33
13.115484941564
  0
3DFACE
  5
176
100
AcDbEntity
  8
0
100
AcDbFace
 10
4.0
 20
-0.911611652352
 30
13.088388347648
 11
4.0
 21
-0.884515058436
 31
13.047835429046
 12
0.625
 22
-0.884515058436
 32
13.047835429046
 13
0.625
 23
-0.911611652352
 33
13.088388347648
  0
3DFACE
  5
177
100
AcDbEntity
  8
0
100
AcDbFace
 10
4.0
 20
-0.884515058436
 30
13.047835429046
 11
4.0
 21
-0.875
 31
13.0
 12
0.625
 22
-0.875
 32
13.0
 13
0.625
 23
-0.884515058436
 33
13.047835429046
  0
3DFACE
  5
178
100
AcDbEntity
  8
0
100
AcDbFace
 10
4.0
 20
-0.875
 30
13.0
 11
4.0
 21
-0.884515058436
 31
12.952164570954
 12
0.625
 22
-0.884515058436
 32
12.952164570954
 13
0.625
 23
-0.875
 33
13.0
  0
3DFACE
  5
179
100
AcDbEntity
  8
0
100
AcDbFace
 10
4.0
 20
-0.884515058436
 30
12.952164570954
 11
4.0
 21
-0.911611652352
 31
12.911611652352
 12
0.625
 22
-0.911611652352
 32
12.911611652352
 13
0.625
 23
-0.884515058436
 33
12.952164570954
  0
3DFACE
  5
17A
100
AcDbEntity
  8
0
100
AcDbFace
 10
4.0
 20
-0.911611652352
 30
12.911611652352
 11
4.0
 21
-0.952164570954
 31
12.884515058436
 12
0.625
 22
-0.952164570954
 32
12.884515058436
 13
0.625
 23
-0.911611652352
 33
12.911611652352
  0
3DFACE
  5
17B
100
AcDbEntity
  8
0
100
AcDbFace
 10
4.0
 20
-0.952164570954
 30
12.884515058436
 11
4.0
 21
-1.0
 31
12.875
 12
0.625
 22
-1.0
 32
12.875
 13
0.625
 23
-0.952164570954
 33
12.884515058436
  0
3DFACE
  5
17C
100
AcDbEntity
  8
0
100
AcDbFace
 10
4.0
 20
-1.0
 30
12.875
 11
4.0
 21
-1.047835429046
 31
12.884515058436
 12
0.625
 22
-1.047835429046
 32
12.884515058436
 13
0.625
 23
-1.0
 33
12.875
  0
3DFACE
  5
17D
100
AcDbEntity
  8
0
100
AcDbFace
 10
4.0
 20
-1.047835429046
 30
12.884515058436
 11
4.0
 21
-1.088388347648
 31
12.911611652352
 12
0.625
 22
-1.088388347648
 32
12.911611652352
 13
0.625
 23
-1.047835429046
 33
12.884515058436
  0
3DFACE
  5
17E
100
AcDbEntity
  8
0
100
AcDbFace
 10
4.0
 20
-1.088388347648
 30
12.911611652352
 11
4.0
 21
-1.115484941564
 31
12.952164570954
 12
0.625
 22
-1.115484941564
 32
12.952164570954
 13
0.625
 23
-1.088388347648
 33
12.911611652352
  0
3DFACE
  5
17F
100
AcDbEntity
  8
0
100
AcDbFace
 10
4.0
 20
-1.115484941564
 30
12.952164570954
 11
4.0
 21
-1.125
 31
13.0
 12
0.625
 22
-1.125
 32
13.0
 13
0.625
 23
-1.115484941564
 33
12.952164570954
  0
3DFACE
  5
180
100
AcDbEntity
  8
0
100
AcDbFace
 10
4.0
 20
-1.125
 30
13.0
 11
4.0
 21
-1.115484941564
 31
13.047835429046
 12
0.625
 22
-1.115484941564
 32
13.047835429046
 13
0.625
 23
-1.125
 33
13.0
  0
3DFACE
  5
181
100
AcDbEntity
  8
0
100
AcDbFace
 10
0.239177145228
 20
-12.0
 30
13.57742470782
 11
0.441941738242
 21
-12.0
 31
13.441941738242
 12
0.441941738242
 22
21.0
 32
13.441941738242
 13
0.239177145228
 23
21.0
 33
13.57742470782
  0
3DFACE
  5
182
100
AcDbEntity
  8
0
100
AcDbFace
 10
0.441941738242
 20
-12.0
 30
13.441941738242
 11
0.57742470782
 21
-12.0
 31
13.239177145228
 12
0.57742470782
 22
21.0
 32
13.239177145228
 13
0.441941738242
 23
21.0
 33
13.441941738242
  0
3DFACE
  5
183
100
AcDbEntity
  8
0
100
AcDbFace
 10
0.57742470782
 20
-12.0
 30
13.239177145228
 11
0.625
 21
-12.0
 31
13.0
 12
0.625
 22
21.0
 32
13.0
 13
0.57742470782
 23
21.0
 33
13.239177145228
  0
3DFACE
  5
184
100
AcDbEntity
  8
0
100
AcDbFace
 10
0.625
 20
-12.0
 30
13.0
 11
0.57742470782
 21
-12.0
 31
12.760822854772
 12
0.57742470782
 22
21.0
 32
12.760822854772
 13
0.625
 23
21.0
 33
13.0
  0
3DFACE
  5
185
100
AcDbEntity
  8
0
100
AcDbFace
 10
0.57742470782
 20
-12.0
 30
12.760822854772
 11
0.441941738242
 21
-12.0
 31
12.558058261758
 12
0.441941738242
 22
21.0
 32
12.558058261758
 13
0.57742470782
 23
21.0
 33
12.760822854772
  0
3DFACE
  5
186
100
AcDbEntity
  8
0
100
AcDbFace
 10
0.441941738242
 20
-12.0
 30
12.558058261758
 11
0.239177145228
 21
-12.0
 31
12.42257529218
 12
0.239177145228
 22
21.0
 32
12.42257529218
 13
0.441941738242
 23
21.0
 33
12.558058261758
  0
3DFACE
  5
187
100
AcDbEntity
  8
0
100
AcDbFace
 10
0.239177145228
 20
-12.0
 30
12.42257529218
 11
0.0
 21
-12.0
 31
12.375
 12
0.0
 22
21.0
 32
12.375
 13
0.239177145228
 23
21.0
 33
12.42257529218
  0
3DFACE
  5
188
100
AcDbEntity
  8
0
100
AcDbFace
 10
0.0
 20
-12.0
 30
12.375
 11
-0.239177145228
 21
-12.0
 31
12.42257529218
 12
-0.239177145228
 22
21.0
 32
12.42257529218
 13
0.0
 23
21.0
 33
12.375
  0
3DFACE
  5
189
100
AcDbEntity
  8
0
100
AcDbFace
 10
-0.239177145228
 20
-12.0
 30
12.42257529218
 11
-0.441941738242
 21
-12.0
 31
12.558058261758
 12
-0.441941738242
 22
21.0
 32
12.558058261758
 13
-0.239177145228
 23
21.0
 33
12.42257529218
  0
3DFACE
  5
18A
100
AcDbEntity
  8
0
100
AcDbFace
 10
-0.441941738242
 20
-12.0
 30
12.558058261758
 11
-0.57742470782
 21
-12.0
 31
12.760822854772
 12
-0.57742470782
 22
21.0
 32
12.760822854772
 13
-0.441941738242
 23
21.0
 33
12.558058261758
  0
3DFACE
  5
18B
100
AcDbEntity
  8
0
100
AcDbFace
 10
-0.57742470782
 20
-12.0
 30
12.760822854772
 11
-0.625
 21
-12.0
 31
13.0
 12
-0.625
 22
21.0
 32
13.0
 13
-0.57742470782
 23
21.0
 33
12.760822854772
  0
3DFACE
  5
18C
100
AcDbEntity
  8
0
100
AcDbFace
 10
-0.625
 20
-12.0
 30
13.0
 11
-0.57742470782
 21
-12.0
 31
13.239177145228
 12
-0.57742470782
 22
21.0
 32
13.239177145228
 13
-0.625
 23
21.0
 33
13.0
  0
3DFACE
  5
18D
100
AcDbEntity
  8
0
100
AcDbFace
 10
-0.57742470782
 20
-12.0
 30
13.239177145228
 11
-0.441941738242
 21
-12.0
 31
13.441941738242
 12
-0.441941738242
 22
21.0
 32
13.441941738242
 13
-0.57742470782
 23
21.0
 33
13.239177145228
  0
3DFACE
  5
18E
100
AcDbEntity
  8
0
100
AcDbFace
 10
-0.441941738242
 20
-12.0
 30
13.441941738242
 11
-0.239177145228
 21
-12.0
 31
13.57742470782
 12
-0.239177145228
 22
21.0
 32
13.57742470782
 13
-0.441941738242
 23
21.0
 33
13.441941738242
  0
3DFACE
  5
18F
100
AcDbEntity
  8
0
100
AcDbFace
 10
-0.239177145228
 20
-12.0
 30
13.57742470782
 11
0.0
 21
-12.0
 31
13.625
 12
0.0
 22
21.0
 32
13.625
 13
-0.239177145228
 23
21.0
 33
13.57742470782
  0
3DFACE
  5
190
100
AcDbEntity
  8
0
100
AcDbFace
 10
0.0
 20
-12.0
 30
13.625
 11
0.239177145228
 21
-12.0
 31
13.57742470782
 12
0.239177145228
 22
21.0
 32
13.57742470782
 13
0.0
 23
21.0
 33
13.625
  0
3DFACE
  5
191
100
AcDbEntity
  8
0
100
AcDbFace
 10
-1.0
 20
21.0
 30
12.0
 11
-1.0
 21
21.0
 31
14.0
 12
1.0
 22
21.0
 32
14.0
 13
1.0
 23
21.0
 33
12.0
  0
3DFACE
  5
192
100
AcDbEntity
  8
0
100
AcDbFace
 10
-1.0
 20
21.0
 30
12.0
 11
-3.5
 21
25.0
 31
12.0
 12
3.5
 22
25.0
 32
12.0
 13
1.0
 23
21.0
 33
12.0
  0
3DFACE
  5
193
100
AcDbEntity
  8
0
100
AcDbFace
 10
-3.5
 20
25.0
 30
12.0
 11
-3.5
 21
27.0
 31
12.0
 12
3.5
 22
27.0
 32
12.0
 13
3.5
 23
25.0
 33
12.0
  0
3DFACE
  5
194
100
AcDbEntity
  8
0
100
AcDbFace
 10
-1.0
 20
21.0
 30
14.0
 11
-3.5
 21
25.0
 31
14.0
 12
3.5
 22
25.0
 32
14.0
 13
1.0
 23
21.0
 33
14.0
  0
3DFACE
  5
195
100
AcDbEntity
  8
0
100
AcDbFace
 10
-3.5
 20
25.0
 30
14.0
 11
-3.5
 21
27.0
 31
14.0
 12
3.5
 22
27.0
 32
14.0
 13
3.5
 23
25.0
 33
14.0
  0
3DFACE
  5
196
100
AcDbEntity
  8
0
100
AcDbFace
 10
1.0
 20
21.0
 30
12.0
 11
1.0
 21
21.0
 31
14.0
 12
3.5
 22
25.0
 32
14.0
 13
3.5
 23
25.0
 33
12.0
  0
3DFACE
  5
197
100
AcDbEntity
  8
0
100
AcDbFace
 10
3.5
 20
25.0
 30
12.0
 11
3.5
 21
25.0
 31
14.0
 12
3.5
 22
27.0
 32
14.0
 13
3.5
 23
27.0
 33
12.0
  0
3DFACE
  5
198
100
AcDbEntity
  8
0
100
AcDbFace
 10
-1.0
 20
21.0
 30
12.0
 11
-1.0
 21
21.0
 31
14.0
 12
-3.5
 22
25.0
 32
14.0
 13
-3.5
 23
25.0
 33
12.0
  0
3DFACE
  5
199
100
AcDbEntity
  8
0
100
AcDbFace
 10
-3.5
 20
25.0
 30
12.0
 11
-3.5
 21
25.0
 31
14.0
 12
-3.5
 22
27.0
 32
14.0
 13
-3.5
 23
27.0
 33
12.0
  0
3DFACE
  5
19A
100
AcDbEntity
  8
0
100
AcDbFace
 10
3.0
 20
27.0
 30
12.5
 11
3.0
 21
27.0
 31
13.5
 12
3.0
 22
29.0
 32
13.5
 13
3.0
 23
29.0
 33
12.5
  0
3DFACE
  5
19B
100
AcDbEntity
  8
0
100
AcDbFace
 10
3.0
 20
29.0
 30
13.5
 11
3.0
 21
29.0
 31
12.5
 12
1.25
 22
31.0
 32
12.5
 13
1.25
 23
31.0
 33
13.5
  0
3DFACE
  5
19C
100
AcDbEntity
  8
0
100
AcDbFace
 10
1.25
 20
31.0
 30
12.5
 11
1.25
 21
31.0
 31
13.5
 12
0.5
 22
31.0
 32
13.5
 13
0.5
 23
31.0
 33
12.5
  0
3DFACE
  5
19D
100
AcDbEntity
  8
0
100
AcDbFace
 10
0.5
 20
31.0
 30
13.5
 11
0.5
 21
31.0
 31
12.5
 12
0.5
 22
30.25
 32
12.5
 13
0.5
 23
30.25
 33
13.5
  0
3DFACE
  5
19E
100
AcDbEntity
  8
0
100
AcDbFace
 10
0.5
 20
30.25
 30
13.5
 11
0.5
 21
30.25
 31
12.5
 12
2.0
 22
29.0
 32
12.5
 13
2.0
 23
29.0
 33
13.5
  0
3DFACE
  5
19F
100
AcDbEntity
  8
0
100
AcDbFace
 10
2.0
 20
29.0
 30
13.5
 11
2.0
 21
29.0
 31
12.5
 12
2.0
 22
27.0
 32
12.5
 13
2.0
 23
27.0
 33
13.5
  0
3DFACE
  5
1A0
100
AcDbEntity
  8
0
100
AcDbFace
 10
3.5
 20
27.0
 30
14.0
 11
3.5
 21
27.0
 31
12.0
 12
-3.5
 22
27.0
 32
12.0
 13
-3.5
 23
27.0
 33
14.0
  0
3DFACE
  5
1A1
100
AcDbEntity
  8
0
100
AcDbFace
 10
3.0
 20
27.0
 30
13.5
 11
2.0
 21
27.0
 31
13.5
 12
2.0
 22
29.0
 32
13.5
 13
3.0
 23
29.0
 33
13.5
  0
3DFACE
  5
1A2
100
AcDbEntity
  8
0
100
AcDbFace
 10
3.0
 20
29.0
 30
13.5
 11
2.0
 21
29.0
 31
13.5
 12
0.5
 22
30.25
 32
13.5
 13
1.25
 23
31.0
 33
13.5
  0
3DFACE
  5
1A3
100
AcDbEntity
  8
0
100
AcDbFace
 10
1.25
 20
31.0
 30
13.5
 11
0.5
 21
30.25
 31
13.5
 12
0.5
 22
31.0
 32
13.5
 13
0.5
 23
31.0
 33
13.5
  0
3DFACE
  5
1A4
100
AcDbEntity
  8
0
100
AcDbFace
 10
3.0
 20
27.0
 30
12.5
 11
2.0
 21
27.0
 31
12.5
 12
2.0
 22
29.0
 32
12.5
 13
3.0
 23
29.0
 33
12.5
  0
3DFACE
  5
1A5
100
AcDbEntity
  8
0
100
AcDbFace
 10
3.0
 20
29.0
 30
12.5
 11
2.0
 21
29.0
 31
12.5
 12
0.5
 22
30.25
 32
12.5
 13
1.25
 23
31.0
 33
12.5
  0
3DFACE
  5
1A6
100
AcDbEntity
  8
0
100
AcDbFace
 10
1.25
 20
31.0
 30
12.5
 11
0.5
 21
30.25
 31
12.5
 12
0.5
 22
31.0
 32
12.5
 13
0.5
 23
31.0
 33
12.5
  0
3DFACE
  5
1A7
100
AcDbEntity
  8
0
100
AcDbFace
 10
-3.0
 20
27.0
 30
12.5
 11
-3.0
 21
27.0
 31
13.5
 12
-3.0
 22
29.0
 32
13.5
 13
-3.0
 23
29.0
 33
12.5
  0
3DFACE
  5
1A8
100
AcDbEntity
  8
0
100
AcDbFace
 10
-3.0
 20
29.0
 30
13.5
 11
-3.0
 21
29.0
 31
12.5
 12
-1.25
 22
31.0
 32
12.5
 13
-1.25
 23
31.0
 33
13.5
  0
3DFACE
  5
1A9
100
AcDbEntity
  8
0
100
AcDbFace
 10
-1.25
 20
31.0
 30
12.5
 11
-1.25
 21
31.0
 31
13.5
 12
-0.5
 22
31.0
 32
13.5
 13
-0.5
 23
31.0
 33
12.5
  0
3DFACE
  5
1AA
100
AcDbEntity
  8
0
100
AcDbFace
 10
-0.5
 20
31.0
 30
13.5
 11
-0.5
 21
31.0
 31
12.5
 12
-0.5
 22
30.25
 32
12.5
 13
-0.5
 23
30.25
 33
13.5
  0
3DFACE
  5
1AB
100
AcDbEntity
  8
0
100
AcDbFace
 10
-0.5
 20
30.25
 30
13.5
 11
-0.5
 21
30.25
 31
12.5
 12
-2.0
 22
29.0
 32
12.5
 13
-2.0
 23
29.0
 33
13.5
  0
3DFACE
  5
1AC
100
AcDbEntity
  8
0
100
AcDbFace
 10
-2.0
 20
29.0
 30
13.5
 11
-2.0
 21
29.0
 31
12.5
 12
-2.0
 22
27.0
 32
12.5
 13
-2.0
 23
27.0
 33
13.5
  0
3DFACE
  5
1AD
100
AcDbEntity
  8
0
100
AcDbFace
 10
-3.0
 20
27.0
 30
13.5
 11
-2.0
 21
27.0
 31
13.5
 12
-2.0
 22
29.0
 32
13.5
 13
-3.0
 23
29.0
 33
13.5
  0
3DFACE
  5
1AE
100
AcDbEntity
  8
0
100
AcDbFace
 10
-3.0
 20
29.0
 30
13.5
 11
-2.0
 21
29.0
 31
13.5
 12
-0.5
 22
30.25
 32
13.5
 13
-1.25
 23
31.0
 33
13.5
  0
3DFACE
  5
1AF
100
AcDbEntity
  8
0
100
AcDbFace
 10
-1.25
 20
31.0
 30
13.5
 11
-0.5
 21
30.25
 31
13.5
 12
-0.5
 22
31.0
 32
13.5
 13
-0.5
 23
31.0
 33
13.5
  0
3DFACE
  5
1B0
100
AcDbEntity
  8
0
100
AcDbFace
 10
-3.0
 20
27.0
 30
12.5
 11
-2.0
 21
27.0
 31
12.5
 12
-2.0
 22
29.0
 32
12.5
 13
-3.0
 23
29.0
 33
12.5
  0
3DFACE
  5
1B1
100
AcDbEntity
  8
0
100
AcDbFace
 10
-3.0
 20
29.0
 30
12.5
 11
-2.0
 21
29.0
 31
12.5
 12
-0.5
 22
30.25
 32
12.5
 13
-1.25
 23
31.0
 33
12.5
  0
3DFACE
  5
1B2
100
AcDbEntity
  8
0
100
AcDbFace
 10
-1.25
 20
31.0
 30
12.5
 11
-0.5
 21
30.25
 31
12.5
 12
-0.5
 22
31.0
 32
12.5
 13
-0.5
 23
31.0
 33
12.5
  0
3DFACE
  5
1B3
100
AcDbEntity
  8
0
100
AcDbFace
 10
-0.625
 20
-2.847759065023
 30
12.23463313527
 11
-0.625
 21
-2.414213562373
 31
11.585786437627
 12
-1.125
 22
-2.414213562373
 32
11.585786437627
 13
-1.125
 23
-2.847759065023
 33
12.23463313527
  0
3DFACE
  5
1B4
100
AcDbEntity
  8
0
100
AcDbFace
 10
-0.625
 20
-2.414213562373
 30
11.585786437627
 11
-0.625
 21
-1.76536686473
 31
11.152240934977
 12
-1.125
 22
-1.76536686473
 32
11.152240934977
 13
-1.125
 23
-2.414213562373
 33
11.585786437627
  0
3DFACE
  5
1B5
100
AcDbEntity
  8
0
100
AcDbFace
 10
-0.625
 20
-1.76536686473
 30
11.152240934977
 11
-0.625
 21
-1.0
 31
11.0
 12
-1.125
 22
-1.0
 32
11.0
 13
-1.125
 23
-1.76536686473
 33
11.152240934977
  0
3DFACE
  5
1B6
100
AcDbEntity
  8
0
100
AcDbFace
 10
-0.625
 20
-1.0
 30
11.0
 11
-0.625
 21
-0.23463313527
 31
11.152240934977
 12
-1.125
 22
-0.23463313527
 32
11.152240934977
 13
-1.125
 23
-1.0
 33
11.0
  0
3DFACE
  5
1B7
100
AcDbEntity
  8
0
100
AcDbFace
 10
-0.625
 20
-0.23463313527
 30
11.152240934977
 11
-0.625
 21
0.414213562373
 31
11.585786437627
 12
-1.125
 22
0.414213562373
 32
11.585786437627
 13
-1.125
 23
-0.23463313527
 33
11.152240934977
  0
3DFACE
  5
1B8
100
AcDbEntity
  8
0
100
AcDbFace
 10
-0.625
 20
0.414213562373
 30
11.585786437627
 11
-0.625
 21
0.847759065023
 31
12.23463313527
 12
-1.125
 22
0.847759065023
 32
12.23463313527
 13
-1.125
 23
0.414213562373
 33
11.585786437627
  0
3DFACE
  5
1B9
100
AcDbEntity
  8
0
100
AcDbFace
 10
-0.625
 20
0.847759065023
 30
12.23463313527
 11
-0.625
 21
1.0
 31
13.0
 12
-1.125
 22
1.0
 32
13.0
 13
-1.125
 23
0.847759065023
 33
12.23463313527
  0
3DFACE
  5
1BA
100
AcDbEntity
  8
0
100
AcDbFace
 10
-0.625
 20
1.0
 30
13.0
 11
-0.625
 21
0.847759065023
 31
13.76536686473
 12
-1.125
 22
0.847759065023
 32
13.76536686473
 13
-1.125
 23
1.0
 33
13.0
  0
3DFACE
  5
1BB
100
AcDbEntity
  8
0
100
AcDbFace
 10
-0.625
 20
0.847759065023
 30
13.76536686473
 11
-0.625
 21
0.414213562373
 31
14.414213562373
 12
-1.125
 22
0.414213562373
 32
14.414213562373
 13
-1.125
 23
0.847759065023
 33
13.76536686473
  0
3DFACE
  5
1BC
100
AcDbEntity
  8
0
100
AcDbFace
 10
-0.625
 20
0.414213562373
 30
14.414213562373
 11
-0.625
 21
-0.23463313527
 31
14.847759065023
 12
-1.125
 22
-0.23463313527
 32
14.847759065023
 13
-1.125
 23
0.414213562373
 33
14.414213562373
  0
3DFACE
  5
1BD
100
AcDbEntity
  8
0
100
AcDbFace
 10
-0.625
 20
-0.23463313527
 30
14.847759065023
 11
-0.625
 21
-1.0
 31
15.0
 12
-1.125
 22
-1.0
 32
15.0
 13
-1.125
 23
-0.23463313527
 33
14.847759065023
  0
3DFACE
  5
1BE
100
AcDbEntity
  8
0
100
AcDbFace
 10
-0.625
 20
-1.0
 30
15.0
 11
-0.625
 21
-1.76536686473
 31
14.847759065023
 12
-1.125
 22
-1.76536686473
 32
14.847759065023
 13
-1.125
 23
-1.0
 33
15.0
  0
3DFACE
  5
1BF
100
AcDbEntity
  8
0
100
AcDbFace
 10
-0.625
 20
-1.76536686473
 30
14.847759065023
 11
-0.625
 21
-2.414213562373
 31
14.414213562373
 12
-1.125
 22
-2.414213562373
 32
14.414213562373
 13
-1.125
 23
-1.76536686473
 33
14.847759065023
  0
3DFACE
  5
1C0
100
AcDbEntity
  8
0
100
AcDbFace
 10
-0.625
 20
-2.414213562373
 30
14.414213562373
 11
-0.625
 21
-2.847759065023
 31
13.76536686473
 12
-1.125
 22
-2.847759065023
 32
13.76536686473
 13
-1.125
 23
-2.414213562373
 33
14.414213562373
  0
3DFACE
  5
1C1
100
AcDbEntity
  8
0
100
AcDbFace
 10
-0.625
 20
-2.847759065023
 30
13.76536686473
 11
-0.625
 21
-3.0
 31
13.0
 12
-1.125
 22
-3.0
 32
13.0
 13
-1.125
 23
-2.847759065023
 33
13.76536686473
  0
3DFACE
  5
1C2
100
AcDbEntity
  8
0
100
AcDbFace
 10
-0.625
 20
-3.0
 30
13.0
 11
-0.625
 21
-2.847759065023
 31
12.23463313527
 12
-1.125
 22
-2.847759065023
 32
12.23463313527
 13
-1.125
 23
-3.0
 33
13.0
  0
ENDSEC
  0
SECTION
  2
OBJECTS
  0
DICTIONARY
  5
2D
100
AcDbDictionary
280
           0
281
           1
  3
ACAD_GROUP
350
2E
  3
ACAD_MLINESTYLE
350
2F
  3
ACAD_LAYOUT
350
1D
  3
ACAD_PLOTSTYLENAME
350
1E
  3
ACAD_PLOTSETTINGS
350
21
  3
ACAD_WIPEOUT_VARS
350
22
  0
DICTIONARY
  5
2E
102
{ACAD_REACTORS
330
2D
102
}
100
AcDbDictionary
280
           0
281
           1
  0
DICTIONARY
  5
2F
102
{ACAD_REACTORS
330
2D
102
}
100
AcDbDictionary
280
           0
281
           1
  3
STANDARD
350
30
  0
MLINESTYLE
  5
30
102
{ACAD_REACTORS
330
2F
102
}
100
AcDbMlineStyle
  2
Standard
 70
           0
  3

 62
           0
 51
90.0
 52
90.0
 71
           2
 49
0.5
 62
         256
  6
BYLAYER
 49
-0.5
 62
         256
  6
BYLAYER
  0
ACDBDICTIONARYWDFLT
  5
1E
102
{ACAD_REACTORS
330
2D
102
}
100
AcDbDictionary
281
           1
  3
Normal
350
1C
100
AcDbDictionaryWithDefault
340
1C
  0
ACDBPLACEHOLDER
  5
1C
102
{ACAD_REACTORS
330
1E
102
}
  0
LAYOUT
  5
1F
102
{ACAD_REACTORS
330
1D
102
}
100
AcDbPlotSettings
  1

  2

  4

  6

 40
0.0
 41
0.0
 42
0.0
 43
0.0
 44
0.0
 45
0.0
 46
0.0
 47
0.0
 48
0.0
 49
0.0
140
0.0
141
0.0
142
1.0
143
1.0
 70
        1024
 72
           0
 73
           0
 74
           0
  7

 75
           0
147
1.0
148
0.0
149
0.0
100
AcDbLayout
  1
Model
 70
           0
 71
           0
 10
0.0
 20
0.0
 11
0.0
 21
0.0
 12
0.0
 22
0.0
 32
0.0
 14
0.0
 24
0.0
 34
0.0
 15
0.0
 25
0.0
 35
0.0
146
0.0
 13
0.0
 23
0.0
 33
0.0
 16
0.0
 26
0.0
 36
0.0
 17
0.0
 27
0.0
 37
0.0
 76
           0
330
19
331
0
345
0
346
0
  0
LAYOUT
  5
20
102
{ACAD_REACTORS
330
1D
102
}
100
AcDbPlotSettings
  1

  2

  4

  6

 40
0.0
 41
0.0
 42
0.0
 43
0.0
 44
0.0
 45
0.0
 46
0.0
 47
0.0
 48
0.0
 49
0.0
140
0.0
141
0.0
142
1.0
143
1.0
 70
           0
 72
           0
 73
           0
 74
           0
  7

 75
           0
147
1.0
148
0.0
149
0.0
100
AcDbLayout
  1
Layout1
 70
           0
 71
           0
 10
0.0
 20
0.0
 11
0.0
 21
0.0
 12
0.0
 22
0.0
 32
0.0
 14
0.0
 24
0.0
 34
0.0
 15
0.0
 25
0.0
 35
0.0
146
0.0
 13
0.0
 23
0.0
 33
0.0
 16
0.0
 26
0.0
 36
0.0
 17
0.0
 27
0.0
 37
0.0
 76
           0
330
16
331
0
345
0
346
0
  0
DICTIONARY
  5
1D
102
{ACAD_REACTORS
330
2D
102
}
100
AcDbDictionary
280
           0
281
           1
  3
Layout1
350
20
  3
Model
350
1F
  0
DICTIONARY
  5
21
102
{ACAD_REACTORS
330
2D
102
}
100
AcDbDictionary
280
           0
281
           1
  0
WIPEOUTVARIABLES
  5
22
100
AcDbWipeoutVariables
 70
           1
  0
ENDSEC
  0
EOF
