   0
SECTION
   2
ENTITIES
   0
3DFACE
   8
0
  62
6
  10
111.890839
  20
-25.535534
  30
-10.686264
  11
110.890839
  21
-38.263458
  31
-9.686264
  12
117.961914
  22
-38.263458
  32
-2.615196
  13
118.961914
  23
-25.535534
  33
-3.615196
   0
3DFACE
   8
0
  62
6
  10
106.890839
  20
-26.949749
  30
-5.686264
  11
108.890839
  21
-35.435028
  31
-7.686264
  12
115.961914
  22
-35.435028
  32
-0.615196
  13
113.961914
  23
-26.949749
  33
1.384804
   0
3DFACE
   8
0
  62
6
  10
111.890839
  20
-25.535534
  30
-10.686264
  11
106.890839
  21
-26.949749
  31
-5.686264
  12
108.890839
  22
-35.435028
  32
-7.686264
  13
110.890839
  23
-38.263458
  33
-9.686264
   0
3DFACE
   8
0
  62
6
  10
108.890839
  20
-35.435028
  30
-7.686264
  11
110.890839
  21
-38.263458
  31
-9.686264
  12
117.961914
  22
-38.263458
  32
-2.615196
  13
115.961914
  23
-35.435028
  33
-0.615196
   0
3DFACE
   8
0
  62
6
  10
117.961914
  20
-38.263458
  30
-2.615196
  11
115.961914
  21
-35.435028
  31
-0.615196
  12
113.961914
  22
-26.949749
  32
1.384804
  13
118.961914
  23
-25.535534
  33
-3.615196
   0
3DFACE
   8
0
  62
6
  10
115.961914
  20
-41.091885
  30
-0.615196
  11
113.961914
  21
-38.263458
  31
1.384804
  12
107.961914
  22
-35.435028
  32
7.384804
  13
106.961899
  23
-42.506096
  33
8.384804
   0
3DFACE
   8
0
  62
6
  10
106.890839
  20
-38.263458
  30
-5.686264
  11
108.890839
  21
-41.091885
  31
-7.686264
  12
115.961914
  22
-41.091885
  32
-0.615196
  13
113.961914
  23
-38.263458
  33
1.384804
   0
3DFACE
   8
0
  62
6
  10
99.890839
  20
-42.506096
  30
1.313736
  11
100.890839
  21
-35.435028
  31
0.313736
  12
106.890839
  22
-38.263458
  32
-5.686264
  13
108.890839
  23
-41.091885
  33
-7.686264
   0
3DFACE
   8
0
  62
6
  10
100.890839
  20
-35.435028
  30
0.313736
  11
106.890839
  21
-38.263458
  31
-5.686264
  12
113.961914
  22
-38.263458
  32
1.384804
  13
107.961914
  23
-35.435028
  33
7.384804
   0
3DFACE
   8
0
  62
6
  10
99.890839
  20
-42.506096
  30
1.313736
  11
108.890839
  21
-41.091885
  31
-7.686264
  12
115.961914
  22
-41.091885
  32
-0.615196
  13
106.961899
  23
-42.506096
  33
8.384804
   0
3DFACE
   8
0
  62
6
  10
100.890839
  20
-9.979187
  30
0.313736
  11
111.890839
  21
-25.535534
  31
-10.686264
  12
118.961914
  22
-25.535534
  32
-3.615196
  13
107.961914
  23
-9.979187
  33
7.384804
   0
3DFACE
   8
0
  62
6
  10
97.890839
  20
-14.221825
  30
3.313736
  11
106.890839
  21
-26.949749
  31
-5.686264
  12
113.961914
  22
-26.949749
  32
1.384804
  13
104.961899
  23
-14.221825
  33
10.384804
   0
3DFACE
   8
0
  62
6
  10
104.961899
  20
-14.221825
  30
10.384804
  11
107.961914
  21
-9.979187
  31
7.384804
  12
100.890839
  22
-9.979187
  32
0.313736
  13
97.890839
  23
-14.221825
  33
3.313736
   0
3DFACE
   8
0
  62
6
  10
97.890839
  20
-14.221825
  30
3.313736
  11
100.890839
  21
-9.979187
  31
0.313736
  12
111.890839
  22
-25.535534
  32
-10.686264
  13
106.890839
  23
-26.949749
  33
-5.686264
   0
3DFACE
   8
0
  62
6
  10
113.961914
  20
-26.949749
  30
1.384804
  11
118.961914
  21
-25.535534
  31
-3.615196
  12
107.961914
  22
-9.979187
  32
7.384804
  13
104.961899
  23
-14.221825
  33
10.384804
   0
3DFACE
   8
0
  62
6
  10
107.961914
  20
-35.435028
  30
7.384804
  11
106.961899
  21
-42.506096
  31
8.384804
  12
95.961899
  22
-26.949749
  32
19.384804
  13
98.961899
  23
-22.707108
  33
16.384804
   0
3DFACE
   8
0
  62
6
  10
91.890839
  20
-22.707108
  30
9.313736
  11
88.890839
  21
-26.949749
  31
12.313736
  12
99.890839
  22
-42.506096
  32
1.313736
  13
100.890839
  23
-35.435028
  33
0.313736
   0
3DFACE
   8
0
  62
6
  10
98.961899
  20
-22.707108
  30
16.384804
  11
95.961899
  21
-26.949749
  31
19.384804
  12
88.890839
  22
-26.949749
  32
12.313736
  13
91.890839
  23
-22.707108
  33
9.313736
   0
3DFACE
   8
0
  62
6
  10
91.890839
  20
-22.707108
  30
9.313736
  11
100.890839
  21
-35.435028
  31
0.313736
  12
107.961914
  22
-35.435028
  32
7.384804
  13
98.961899
  23
-22.707108
  33
16.384804
   0
3DFACE
   8
0
  62
6
  10
88.890839
  20
-26.949749
  30
12.313736
  11
99.890839
  21
-42.506096
  31
1.313736
  12
106.961899
  22
-42.506096
  32
8.384804
  13
95.961899
  23
-26.949749
  33
19.384804
   0
3DFACE
   8
0
  62
3
  10
90.669006
  20
-1.493904
  30
26.091911
  11
96.669006
  21
6.991379
  31
20.091911
  12
93.916183
  22
9.592651
  32
22.844734
  13
90.669006
  23
-1.493904
  33
26.091911
   0
3DFACE
   8
0
  62
3
  10
90.669006
  20
-1.493904
  30
26.091911
  11
82.829636
  21
-6.086105
  31
33.931290
  12
84.669006
  22
-9.979187
  32
32.091904
  13
90.669006
  23
-1.493904
  33
26.091911
   0
3DFACE
   8
0
  62
3
  10
90.669006
  20
-1.493904
  30
26.091911
  11
82.183731
  21
-1.493904
  31
34.577194
  12
82.829636
  22
-6.086105
  32
33.931290
  13
90.669006
  23
-1.493904
  33
26.091911
   0
3DFACE
   8
0
  62
3
  10
90.669006
  20
-1.493904
  30
26.091911
  11
82.829636
  21
3.098297
  31
33.931290
  12
82.183731
  22
-1.493904
  32
34.577194
  13
90.669006
  23
-1.493904
  33
26.091911
   0
3DFACE
   8
0
  62
3
  10
90.669006
  20
-1.493904
  30
26.091911
  11
84.669006
  21
6.991379
  31
32.091904
  12
82.829636
  22
3.098297
  32
33.931290
  13
90.669006
  23
-1.493904
  33
26.091911
   0
3DFACE
   8
0
  62
3
  10
90.669006
  20
-1.493904
  30
26.091911
  11
87.421829
  21
9.592651
  31
29.339081
  12
84.669006
  22
6.991379
  32
32.091904
  13
90.669006
  23
-1.493904
  33
26.091911
   0
3DFACE
   8
0
  62
3
  10
90.669006
  20
-1.493904
  30
26.091911
  11
90.669006
  21
10.506096
  31
26.091911
  12
87.421829
  22
9.592651
  32
29.339081
  13
90.669006
  23
-1.493904
  33
26.091911
   0
3DFACE
   8
0
  62
3
  10
90.669006
  20
-1.493904
  30
26.091911
  11
93.916183
  21
9.592651
  31
22.844734
  12
90.669006
  22
10.506096
  32
26.091911
  13
90.669006
  23
-1.493904
  33
26.091911
   0
3DFACE
   8
0
  62
3
  10
94.669006
  20
-24.121323
  30
22.091911
  11
84.669006
  21
-9.979187
  31
32.091904
  12
96.669006
  22
6.991379
  32
20.091911
  13
106.669006
  23
-7.150757
  33
10.091911
   0
3DFACE
   8
0
  62
3
  10
96.426361
  20
-15.636040
  30
11.849274
  11
104.426361
  21
-4.322334
  31
3.849274
  12
108.146973
  22
-5.183533
  32
8.787804
  13
96.426361
  23
-15.636040
  33
11.849274
   0
3DFACE
   8
0
  62
3
  10
96.426361
  20
-15.636040
  30
11.849274
  11
108.146973
  21
-5.183533
  31
8.787804
  12
110.083221
  22
-7.636040
  32
14.192413
  13
96.426361
  23
-15.636040
  33
11.849274
   0
3DFACE
   8
0
  62
3
  10
96.426361
  20
-15.636040
  30
11.849274
  11
110.083221
  21
-7.636040
  31
14.192413
  12
109.940338
  22
-11.306473
  32
19.240303
  13
96.426361
  23
-15.636040
  33
11.849274
   0
3DFACE
   8
0
  62
3
  10
96.426361
  20
-15.636040
  30
11.849274
  11
109.940338
  21
-11.306473
  31
19.240303
  12
107.740082
  22
-15.636040
  32
23.162979
  13
96.426361
  23
-15.636040
  33
11.849274
   0
3DFACE
   8
0
  62
3
  10
96.426361
  20
-15.636040
  30
11.849274
  11
107.740082
  21
-15.636040
  31
23.162979
  12
103.817398
  22
-19.965607
  32
25.363243
  13
96.426361
  23
-15.636040
  33
11.849274
   0
3DFACE
   8
0
  62
3
  10
96.426361
  20
-15.636040
  30
11.849274
  11
103.817398
  21
-19.965607
  31
25.363243
  12
98.769516
  22
-23.636040
  32
25.506126
  13
96.426361
  23
-15.636040
  33
11.849274
   0
3DFACE
   8
0
  62
3
  10
96.426361
  20
-15.636040
  30
11.849274
  11
98.769516
  21
-23.636040
  31
25.506126
  12
93.364899
  22
-26.088543
  32
23.569878
  13
96.426361
  23
-15.636040
  33
11.849274
   0
3DFACE
   8
0
  62
3
  10
96.426361
  20
-15.636040
  30
11.849274
  11
93.364899
  21
-26.088543
  31
23.569878
  12
88.426361
  22
-26.949749
  32
19.849274
  13
96.426361
  23
-15.636040
  33
11.849274
   0
3DFACE
   8
0
  62
3
  10
96.426361
  20
-15.636040
  30
11.849274
  11
88.426361
  21
-26.949749
  31
19.849274
  12
84.705765
  22
-26.088543
  32
14.910736
  13
96.426361
  23
-15.636040
  33
11.849274
   0
3DFACE
   8
0
  62
3
  10
96.426361
  20
-15.636040
  30
11.849274
  11
84.705765
  21
-26.088543
  31
14.910736
  12
82.769516
  22
-23.636040
  32
9.506126
  13
96.426361
  23
-15.636040
  33
11.849274
   0
3DFACE
   8
0
  62
3
  10
96.426361
  20
-15.636040
  30
11.849274
  11
82.769516
  21
-23.636040
  31
9.506126
  12
82.912399
  22
-19.965607
  32
4.458237
  13
96.426361
  23
-15.636040
  33
11.849274
   0
3DFACE
   8
0
  62
3
  10
96.426361
  20
-15.636040
  30
11.849274
  11
82.912399
  21
-19.965607
  31
4.458237
  12
85.112656
  22
-15.636040
  32
0.535561
  13
96.426361
  23
-15.636040
  33
11.849274
   0
3DFACE
   8
0
  62
3
  10
96.426361
  20
-15.636040
  30
11.849274
  11
85.112656
  21
-15.636040
  31
0.535561
  12
89.035339
  22
-11.306473
  32
-1.664703
  13
96.426361
  23
-15.636040
  33
11.849274
   0
3DFACE
   8
0
  62
3
  10
96.426361
  20
-15.636040
  30
11.849274
  11
89.035339
  21
-11.306473
  31
-1.664703
  12
94.083221
  22
-7.636040
  32
-1.807587
  13
96.426361
  23
-15.636040
  33
11.849274
   0
3DFACE
   8
0
  62
3
  10
96.426361
  20
-15.636040
  30
11.849274
  11
94.083221
  21
-7.636040
  31
-1.807587
  12
99.487839
  22
-5.183533
  32
0.128662
  13
96.426361
  23
-15.636040
  33
11.849274
   0
3DFACE
   8
0
  62
3
  10
96.426361
  20
-15.636040
  30
11.849274
  11
99.487839
  21
-5.183533
  31
0.128662
  12
104.426361
  22
-4.322334
  32
3.849274
  13
96.426361
  23
-15.636040
  33
11.849274
   0
3DFACE
   8
0
  62
3
  10
98.426361
  20
-18.464466
  30
9.849274
  11
101.487839
  21
-8.011963
  31
-1.871338
  12
106.426361
  22
-7.150757
  32
1.849274
  13
98.426361
  23
-18.464466
  33
9.849274
   0
3DFACE
   8
0
  62
3
  10
98.426361
  20
-18.464466
  30
9.849274
  11
96.083221
  21
-10.464470
  31
-3.807587
  12
101.487839
  22
-8.011963
  32
-1.871338
  13
98.426361
  23
-18.464466
  33
9.849274
   0
3DFACE
   8
0
  62
3
  10
98.426361
  20
-18.464466
  30
9.849274
  11
91.035339
  21
-14.134895
  31
-3.664703
  12
96.083221
  22
-10.464470
  32
-3.807587
  13
98.426361
  23
-18.464466
  33
9.849274
   0
3DFACE
   8
0
  62
3
  10
98.426361
  20
-18.464466
  30
9.849274
  11
87.112656
  21
-18.464466
  31
-1.464439
  12
91.035339
  22
-14.134895
  32
-3.664703
  13
98.426361
  23
-18.464466
  33
9.849274
   0
3DFACE
   8
0
  62
3
  10
98.426361
  20
-18.464466
  30
9.849274
  11
84.912399
  21
-22.794037
  31
2.458237
  12
87.112656
  22
-18.464466
  32
-1.464439
  13
98.426361
  23
-18.464466
  33
9.849274
   0
3DFACE
   8
0
  62
3
  10
98.426361
  20
-18.464466
  30
9.849274
  11
84.769516
  21
-26.464466
  31
7.506126
  12
84.912399
  22
-22.794037
  32
2.458237
  13
98.426361
  23
-18.464466
  33
9.849274
   0
3DFACE
   8
0
  62
3
  10
98.426361
  20
-18.464466
  30
9.849274
  11
86.705765
  21
-28.916969
  31
12.910736
  12
84.769516
  22
-26.464466
  32
7.506126
  13
98.426361
  23
-18.464466
  33
9.849274
   0
3DFACE
   8
0
  62
3
  10
98.426361
  20
-18.464466
  30
9.849274
  11
90.426361
  21
-29.778175
  31
17.849274
  12
86.705765
  22
-28.916969
  32
12.910736
  13
98.426361
  23
-18.464466
  33
9.849274
   0
3DFACE
   8
0
  62
3
  10
98.426361
  20
-18.464466
  30
9.849274
  11
95.364899
  21
-28.916969
  31
21.569878
  12
90.426361
  22
-29.778175
  32
17.849274
  13
98.426361
  23
-18.464466
  33
9.849274
   0
3DFACE
   8
0
  62
3
  10
98.426361
  20
-18.464466
  30
9.849274
  11
100.769516
  21
-26.464466
  31
23.506126
  12
95.364899
  22
-28.916969
  32
21.569878
  13
98.426361
  23
-18.464466
  33
9.849274
   0
3DFACE
   8
0
  62
3
  10
98.426361
  20
-18.464466
  30
9.849274
  11
105.817398
  21
-22.794037
  31
23.363243
  12
100.769516
  22
-26.464466
  32
23.506126
  13
98.426361
  23
-18.464466
  33
9.849274
   0
3DFACE
   8
0
  62
3
  10
98.426361
  20
-18.464466
  30
9.849274
  11
109.740082
  21
-18.464466
  31
21.162979
  12
105.817398
  22
-22.794037
  32
23.363243
  13
98.426361
  23
-18.464466
  33
9.849274
   0
3DFACE
   8
0
  62
3
  10
98.426361
  20
-18.464466
  30
9.849274
  11
111.940338
  21
-14.134895
  31
17.240303
  12
109.740082
  22
-18.464466
  32
21.162979
  13
98.426361
  23
-18.464466
  33
9.849274
   0
3DFACE
   8
0
  62
3
  10
98.426361
  20
-18.464466
  30
9.849274
  11
112.083221
  21
-10.464470
  31
12.192413
  12
111.940338
  22
-14.134895
  32
17.240303
  13
98.426361
  23
-18.464466
  33
9.849274
   0
3DFACE
   8
0
  62
3
  10
98.426361
  20
-18.464466
  30
9.849274
  11
110.146973
  21
-8.011963
  31
6.787804
  12
112.083221
  22
-10.464470
  32
12.192413
  13
98.426361
  23
-18.464466
  33
9.849274
   0
3DFACE
   8
0
  62
3
  10
98.426361
  20
-18.464466
  30
9.849274
  11
106.426361
  21
-7.150757
  31
1.849274
  12
110.146973
  22
-8.011963
  32
6.787804
  13
98.426361
  23
-18.464466
  33
9.849274
   0
3DFACE
   8
0
  62
3
  10
101.487839
  20
-8.011963
  30
-1.871338
  11
99.487839
  21
-5.183533
  31
0.128662
  12
104.426361
  22
-4.322334
  32
3.849274
  13
106.426361
  23
-7.150757
  33
1.849274
   0
3DFACE
   8
0
  62
3
  10
94.083221
  20
-7.636040
  30
-1.807587
  11
96.083221
  21
-10.464470
  31
-3.807587
  12
101.487839
  22
-8.011963
  32
-1.871338
  13
99.487839
  23
-5.183533
  33
0.128662
   0
3DFACE
   8
0
  62
3
  10
89.035339
  20
-11.306473
  30
-1.664703
  11
91.035339
  21
-14.134895
  31
-3.664703
  12
96.083221
  22
-10.464470
  32
-3.807587
  13
94.083221
  23
-7.636040
  33
-1.807587
   0
3DFACE
   8
0
  62
3
  10
85.112656
  20
-15.636040
  30
0.535561
  11
87.112656
  21
-18.464466
  31
-1.464439
  12
91.035339
  22
-14.134895
  32
-3.664703
  13
89.035339
  23
-11.306473
  33
-1.664703
   0
3DFACE
   8
0
  62
3
  10
82.912399
  20
-19.965607
  30
4.458237
  11
84.912399
  21
-22.794037
  31
2.458237
  12
87.112656
  22
-18.464466
  32
-1.464439
  13
85.112656
  23
-15.636040
  33
0.535561
   0
3DFACE
   8
0
  62
3
  10
82.769516
  20
-23.636040
  30
9.506126
  11
84.769516
  21
-26.464466
  31
7.506126
  12
84.912399
  22
-22.794037
  32
2.458237
  13
82.912399
  23
-19.965607
  33
4.458237
   0
3DFACE
   8
0
  62
3
  10
84.705765
  20
-26.088543
  30
14.910736
  11
86.705765
  21
-28.916969
  31
12.910736
  12
84.769516
  22
-26.464466
  32
7.506126
  13
82.769516
  23
-23.636040
  33
9.506126
   0
3DFACE
   8
0
  62
3
  10
88.426361
  20
-26.949749
  30
19.849274
  11
90.426361
  21
-29.778175
  31
17.849274
  12
86.705765
  22
-28.916969
  32
12.910736
  13
84.705765
  23
-26.088543
  33
14.910736
   0
3DFACE
   8
0
  62
3
  10
93.364899
  20
-26.088543
  30
23.569878
  11
95.364899
  21
-28.916969
  31
21.569878
  12
90.426361
  22
-29.778175
  32
17.849274
  13
88.426361
  23
-26.949749
  33
19.849274
   0
3DFACE
   8
0
  62
3
  10
98.769516
  20
-23.636040
  30
25.506126
  11
100.769516
  21
-26.464466
  31
23.506126
  12
95.364899
  22
-28.916969
  32
21.569878
  13
93.364899
  23
-26.088543
  33
23.569878
   0
3DFACE
   8
0
  62
3
  10
103.817398
  20
-19.965607
  30
25.363243
  11
105.817398
  21
-22.794037
  31
23.363243
  12
100.769516
  22
-26.464466
  32
23.506126
  13
98.769516
  23
-23.636040
  33
25.506126
   0
3DFACE
   8
0
  62
3
  10
107.740082
  20
-15.636040
  30
23.162979
  11
109.740082
  21
-18.464466
  31
21.162979
  12
105.817398
  22
-22.794037
  32
23.363243
  13
103.817398
  23
-19.965607
  33
25.363243
   0
3DFACE
   8
0
  62
3
  10
109.940338
  20
-11.306473
  30
19.240303
  11
111.940338
  21
-14.134895
  31
17.240303
  12
109.740082
  22
-18.464466
  32
21.162979
  13
107.740082
  23
-15.636040
  33
23.162979
   0
3DFACE
   8
0
  62
3
  10
110.083221
  20
-7.636040
  30
14.192413
  11
112.083221
  21
-10.464470
  31
12.192413
  12
111.940338
  22
-14.134895
  32
17.240303
  13
109.940338
  23
-11.306473
  33
19.240303
   0
3DFACE
   8
0
  62
3
  10
108.146973
  20
-5.183533
  30
8.787804
  11
110.146973
  21
-8.011963
  31
6.787804
  12
112.083221
  22
-10.464470
  32
12.192413
  13
110.083221
  23
-7.636040
  33
14.192413
   0
3DFACE
   8
0
  62
3
  10
104.426361
  20
-4.322334
  30
3.849274
  11
106.426361
  21
-7.150757
  31
1.849274
  12
110.146973
  22
-8.011963
  32
6.787804
  13
108.146973
  23
-5.183533
  33
8.787804
   0
3DFACE
   8
0
  62
3
  10
86.183731
  20
-24.121323
  30
13.606628
  11
76.183731
  21
-9.979187
  31
23.606628
  12
88.183731
  22
6.991379
  32
11.606628
  13
98.183731
  23
-7.150757
  33
1.606628
   0
3DFACE
   8
0
  62
3
  10
82.183731
  20
-1.493904
  30
17.606628
  11
85.430908
  21
9.592651
  31
14.359451
  12
82.183731
  22
10.506096
  32
17.606628
  13
82.183731
  23
-1.493904
  33
17.606628
   0
3DFACE
   8
0
  62
3
  10
82.183731
  20
-1.493904
  30
17.606628
  11
82.183731
  21
10.506096
  31
17.606628
  12
78.936554
  22
9.592651
  32
20.853806
  13
82.183731
  23
-1.493904
  33
17.606628
   0
3DFACE
   8
0
  62
3
  10
82.183731
  20
-1.493904
  30
17.606628
  11
78.936554
  21
9.592651
  31
20.853806
  12
76.183731
  22
6.991379
  32
23.606628
  13
82.183731
  23
-1.493904
  33
17.606628
   0
3DFACE
   8
0
  62
3
  10
82.183731
  20
-1.493904
  30
17.606628
  11
76.183731
  21
6.991379
  31
23.606628
  12
74.344345
  22
3.098297
  32
25.446007
  13
82.183731
  23
-1.493904
  33
17.606628
   0
3DFACE
   8
0
  62
3
  10
82.183731
  20
-1.493904
  30
17.606628
  11
74.344345
  21
3.098297
  31
25.446007
  12
73.698441
  22
-1.493904
  32
26.091911
  13
82.183731
  23
-1.493904
  33
17.606628
   0
3DFACE
   8
0
  62
3
  10
82.183731
  20
-1.493904
  30
17.606628
  11
73.698441
  21
-1.493904
  31
26.091911
  12
74.344345
  22
-6.086105
  32
25.446007
  13
82.183731
  23
-1.493904
  33
17.606628
   0
3DFACE
   8
0
  62
3
  10
82.183731
  20
-1.493904
  30
17.606628
  11
74.344345
  21
-6.086105
  31
25.446007
  12
76.183731
  22
-9.979187
  32
23.606628
  13
82.183731
  23
-1.493904
  33
17.606628
   0
3DFACE
   8
0
  62
3
  10
82.183731
  20
-1.493904
  30
17.606628
  11
88.183731
  21
6.991379
  31
11.606628
  12
85.430908
  22
9.592651
  32
14.359451
  13
82.183731
  23
-1.493904
  33
17.606628
   0
3DFACE
   8
0
  62
3
  10
76.183731
  20
-9.979187
  30
23.606628
  11
84.669006
  21
-9.979187
  31
32.091904
  12
82.829636
  22
-6.086105
  32
33.931290
  13
74.344345
  23
-6.086105
  33
25.446007
   0
3DFACE
   8
0
  62
3
  10
82.829636
  20
-6.086105
  30
33.931290
  11
74.344345
  21
-6.086105
  31
25.446007
  12
73.698441
  22
-1.493904
  32
26.091911
  13
82.183731
  23
-1.493904
  33
34.577194
   0
3DFACE
   8
0
  62
3
  10
73.698441
  20
-1.493904
  30
26.091911
  11
82.183731
  21
-1.493904
  31
34.577194
  12
82.829636
  22
3.098297
  32
33.931290
  13
74.344345
  23
3.098297
  33
25.446007
   0
3DFACE
   8
0
  62
3
  10
82.829636
  20
3.098297
  30
33.931290
  11
74.344345
  21
3.098297
  31
25.446007
  12
76.183731
  22
6.991379
  32
23.606628
  13
84.669006
  23
6.991379
  33
32.091904
   0
3DFACE
   8
0
  62
3
  10
76.183731
  20
6.991379
  30
23.606628
  11
84.669006
  21
6.991379
  31
32.091904
  12
87.421829
  22
9.592651
  32
29.339081
  13
78.936554
  23
9.592651
  33
20.853806
   0
3DFACE
   8
0
  62
3
  10
87.421829
  20
9.592651
  30
29.339081
  11
78.936554
  21
9.592651
  31
20.853806
  12
82.183731
  22
10.506096
  32
17.606628
  13
90.669006
  23
10.506096
  33
26.091911
   0
3DFACE
   8
0
  62
3
  10
82.183731
  20
10.506096
  30
17.606628
  11
90.669006
  21
10.506096
  31
26.091911
  12
93.916183
  22
9.592651
  32
22.844734
  13
85.430908
  23
9.592651
  33
14.359451
   0
3DFACE
   8
0
  62
3
  10
93.916183
  20
9.592651
  30
22.844734
  11
85.430908
  21
9.592651
  31
14.359451
  12
88.183731
  22
6.991379
  32
11.606628
  13
96.669006
  23
6.991379
  33
20.091911
   0
3DFACE
   8
0
  62
3
  10
88.183731
  20
6.991379
  30
11.606628
  11
96.669006
  21
6.991379
  31
20.091911
  12
106.669006
  22
-7.150757
  32
10.091911
  13
98.183731
  23
-7.150757
  33
1.606628
   0
3DFACE
   8
0
  62
3
  10
84.669006
  20
-9.979187
  30
32.091904
  11
94.669006
  21
-24.121323
  31
22.091911
  12
86.183731
  22
-24.121323
  32
13.606628
  13
76.183731
  23
-9.979187
  33
23.606628
   0
3DFACE
   8
0
  62
3
  10
80.769516
  20
-1.493889
  30
16.192413
  11
84.016693
  21
9.592667
  31
12.945236
  12
80.769516
  22
10.506111
  32
16.192413
  13
80.769516
  23
-1.493889
  33
16.192413
   0
3DFACE
   8
0
  62
3
  10
80.769516
  20
-1.493889
  30
16.192413
  11
80.769516
  21
-13.493889
  31
16.192413
  12
84.016693
  22
-12.580444
  32
12.945236
  13
80.769516
  23
-1.493889
  33
16.192413
   0
3DFACE
   8
0
  62
3
  10
80.769516
  20
-1.493889
  30
16.192413
  11
84.016693
  21
-12.580444
  31
12.945236
  12
86.769516
  22
-9.979172
  32
10.192413
  13
80.769516
  23
-1.493889
  33
16.192413
   0
3DFACE
   8
0
  62
3
  10
80.769516
  20
-1.493889
  30
16.192413
  11
86.769516
  21
-9.979172
  31
10.192413
  12
88.608887
  22
-6.086090
  32
8.353035
  13
80.769516
  23
-1.493889
  33
16.192413
   0
3DFACE
   8
0
  62
3
  10
80.769516
  20
-1.493889
  30
16.192413
  11
88.608887
  21
-6.086090
  31
8.353035
  12
89.254791
  22
-1.493889
  32
7.707130
  13
80.769516
  23
-1.493889
  33
16.192413
   0
3DFACE
   8
0
  62
3
  10
80.769516
  20
-1.493889
  30
16.192413
  11
89.254791
  21
-1.493889
  31
7.707130
  12
88.608887
  22
3.098312
  32
8.353035
  13
80.769516
  23
-1.493889
  33
16.192413
   0
3DFACE
   8
0
  62
3
  10
80.769516
  20
-1.493889
  30
16.192413
  11
88.608887
  21
3.098312
  31
8.353035
  12
86.769516
  22
6.991394
  32
10.192413
  13
80.769516
  23
-1.493889
  33
16.192413
   0
3DFACE
   8
0
  62
3
  10
80.769516
  20
-1.493889
  30
16.192413
  11
86.769516
  21
6.991394
  31
10.192413
  12
84.016693
  22
9.592667
  32
12.945236
  13
80.769516
  23
-1.493889
  33
16.192413
   0
3DFACE
   8
0
  62
3
  10
66.627380
  20
-13.493889
  30
30.334549
  11
80.769516
  21
-13.493889
  31
16.192413
  12
80.769516
  22
10.506111
  32
16.192413
  13
66.627380
  23
10.506111
  33
30.334549
   0
3DFACE
   8
0
  62
3
  10
68.041595
  20
-13.493889
  30
31.748764
  11
82.183731
  21
-13.493889
  31
17.606628
  12
82.183731
  22
10.506096
  32
17.606628
  13
68.041595
  23
10.506111
  33
31.748764
   0
3DFACE
   8
0
  62
3
  10
82.183731
  20
-1.493904
  30
17.606628
  11
88.183731
  21
6.991379
  31
11.606628
  12
85.430908
  22
9.592651
  32
14.359451
  13
82.183731
  23
-1.493904
  33
17.606628
   0
3DFACE
   8
0
  62
3
  10
82.183731
  20
-1.493904
  30
17.606628
  11
90.023102
  21
3.098312
  31
9.767250
  12
88.183731
  22
6.991379
  32
11.606628
  13
82.183731
  23
-1.493904
  33
17.606628
   0
3DFACE
   8
0
  62
3
  10
82.183731
  20
-1.493904
  30
17.606628
  11
90.669006
  21
-1.493889
  31
9.121346
  12
90.023102
  22
3.098312
  32
9.767250
  13
82.183731
  23
-1.493904
  33
17.606628
   0
3DFACE
   8
0
  62
3
  10
82.183731
  20
-1.493904
  30
17.606628
  11
90.023102
  21
-6.086090
  31
9.767250
  12
90.669006
  22
-1.493889
  32
9.121346
  13
82.183731
  23
-1.493904
  33
17.606628
   0
3DFACE
   8
0
  62
3
  10
82.183731
  20
-1.493904
  30
17.606628
  11
88.183731
  21
-9.979172
  31
11.606628
  12
90.023102
  22
-6.086090
  32
9.767250
  13
82.183731
  23
-1.493904
  33
17.606628
   0
3DFACE
   8
0
  62
3
  10
82.183731
  20
-1.493904
  30
17.606628
  11
85.430908
  21
-12.580444
  31
14.359451
  12
88.183731
  22
-9.979172
  32
11.606628
  13
82.183731
  23
-1.493904
  33
17.606628
   0
3DFACE
   8
0
  62
3
  10
82.183731
  20
-1.493904
  30
17.606628
  11
82.183731
  21
-13.493889
  31
17.606628
  12
85.430908
  22
-12.580444
  32
14.359451
  13
82.183731
  23
-1.493904
  33
17.606628
   0
3DFACE
   8
0
  62
3
  10
82.183731
  20
-1.493904
  30
17.606628
  11
85.430908
  21
9.592651
  31
14.359451
  12
82.183731
  22
10.506096
  32
17.606628
  13
82.183731
  23
-1.493904
  33
17.606628
   0
3DFACE
   8
0
  62
3
  10
68.041595
  20
-13.493889
  30
31.748764
  11
66.627380
  21
-13.493889
  31
30.334549
  12
80.769516
  22
-13.493889
  32
16.192413
  13
82.183731
  23
-13.493889
  33
17.606628
   0
3DFACE
   8
0
  62
3
  10
80.769516
  20
-13.493889
  30
16.192413
  11
82.183731
  21
-13.493889
  31
17.606628
  12
85.430908
  22
-12.580444
  32
14.359451
  13
84.016693
  23
-12.580444
  33
12.945236
   0
3DFACE
   8
0
  62
3
  10
85.430908
  20
-12.580444
  30
14.359451
  11
84.016693
  21
-12.580444
  31
12.945236
  12
86.769516
  22
-9.979172
  32
10.192413
  13
88.183731
  23
-9.979172
  33
11.606628
   0
3DFACE
   8
0
  62
3
  10
86.769516
  20
-9.979172
  30
10.192413
  11
88.183731
  21
-9.979172
  31
11.606628
  12
90.023102
  22
-6.086090
  32
9.767250
  13
88.608887
  23
-6.086090
  33
8.353035
   0
3DFACE
   8
0
  62
3
  10
90.023102
  20
-6.086090
  30
9.767250
  11
88.608887
  21
-6.086090
  31
8.353035
  12
89.254791
  22
-1.493889
  32
7.707130
  13
90.669006
  23
-1.493889
  33
9.121346
   0
3DFACE
   8
0
  62
3
  10
89.254791
  20
-1.493889
  30
7.707130
  11
90.669006
  21
-1.493889
  31
9.121346
  12
90.023102
  22
3.098312
  32
9.767250
  13
88.608887
  23
3.098312
  33
8.353035
   0
3DFACE
   8
0
  62
3
  10
90.023102
  20
3.098312
  30
9.767250
  11
88.608887
  21
3.098312
  31
8.353035
  12
86.769516
  22
6.991394
  32
10.192413
  13
88.183731
  23
6.991379
  33
11.606628
   0
3DFACE
   8
0
  62
3
  10
86.769516
  20
6.991394
  30
10.192413
  11
88.183731
  21
6.991379
  31
11.606628
  12
85.430908
  22
9.592651
  32
14.359451
  13
84.016693
  23
9.592667
  33
12.945236
   0
3DFACE
   8
0
  62
3
  10
85.430908
  20
9.592651
  30
14.359451
  11
84.016693
  21
9.592667
  31
12.945236
  12
80.769516
  22
10.506111
  32
16.192413
  13
82.183731
  23
10.506096
  33
17.606628
   0
3DFACE
   8
0
  62
3
  10
80.769516
  20
10.506111
  30
16.192413
  11
82.183731
  21
10.506096
  31
17.606628
  12
68.041595
  22
10.506111
  32
31.748764
  13
66.627380
  23
10.506111
  33
30.334549
   0
3DFACE
   8
0
  62
3
  10
68.041595
  20
10.506111
  30
31.748764
  11
66.627380
  21
10.506111
  31
30.334549
  12
66.627380
  22
-13.493889
  32
30.334549
  13
68.041595
  23
-13.493889
  33
31.748764
   0
3DFACE
   8
0
  62
3
  10
77.941086
  20
10.506111
  30
41.648254
  11
76.526871
  21
10.506111
  31
40.234039
  12
76.526871
  22
-13.493889
  32
40.234039
  13
77.941086
  23
-13.493889
  33
41.648254
   0
3DFACE
   8
0
  62
3
  10
90.669006
  20
10.506096
  30
26.091911
  11
92.083221
  21
10.506111
  31
27.506126
  12
77.941086
  22
10.506111
  32
41.648254
  13
76.526871
  23
10.506111
  33
40.234039
   0
3DFACE
   8
0
  62
3
  10
95.330399
  20
9.592667
  30
24.258949
  11
93.916183
  21
9.592651
  31
22.844734
  12
90.669006
  22
10.506096
  32
26.091911
  13
92.083221
  23
10.506111
  33
27.506126
   0
3DFACE
   8
0
  62
3
  10
96.669006
  20
6.991379
  30
20.091911
  11
98.083221
  21
6.991394
  31
21.506126
  12
95.330399
  22
9.592667
  32
24.258949
  13
93.916183
  23
9.592651
  33
22.844734
   0
3DFACE
   8
0
  62
3
  10
99.922607
  20
3.098312
  30
19.666748
  11
98.508392
  21
3.098312
  31
18.252533
  12
96.669006
  22
6.991379
  32
20.091911
  13
98.083221
  23
6.991394
  33
21.506126
   0
3DFACE
   8
0
  62
3
  10
99.154297
  20
-1.493889
  30
17.606628
  11
100.568497
  21
-1.493889
  31
19.020844
  12
99.922607
  22
3.098312
  32
19.666748
  13
98.508392
  23
3.098312
  33
18.252533
   0
3DFACE
   8
0
  62
3
  10
99.922607
  20
-6.086090
  30
19.666748
  11
98.508392
  21
-6.086090
  31
18.252533
  12
99.154297
  22
-1.493889
  32
17.606628
  13
100.568497
  23
-1.493889
  33
19.020844
   0
3DFACE
   8
0
  62
3
  10
96.669006
  20
-9.979172
  30
20.091911
  11
98.083221
  21
-9.979172
  31
21.506126
  12
99.922607
  22
-6.086090
  32
19.666748
  13
98.508392
  23
-6.086090
  33
18.252533
   0
3DFACE
   8
0
  62
3
  10
95.330399
  20
-12.580444
  30
24.258949
  11
93.916183
  21
-12.580444
  31
22.844734
  12
96.669006
  22
-9.979172
  32
20.091911
  13
98.083221
  23
-9.979172
  33
21.506126
   0
3DFACE
   8
0
  62
3
  10
90.669006
  20
-13.493889
  30
26.091911
  11
92.083221
  21
-13.493889
  31
27.506126
  12
95.330399
  22
-12.580444
  32
24.258949
  13
93.916183
  23
-12.580444
  33
22.844734
   0
3DFACE
   8
0
  62
3
  10
77.941086
  20
-13.493889
  30
41.648254
  11
76.526871
  21
-13.493889
  31
40.234039
  12
90.669006
  22
-13.493889
  32
26.091911
  13
92.083221
  23
-13.493889
  33
27.506126
   0
3DFACE
   8
0
  62
3
  10
92.083221
  20
-1.493889
  30
27.506126
  11
95.330399
  21
9.592667
  31
24.258949
  12
92.083221
  22
10.506111
  32
27.506126
  13
92.083221
  23
-1.493889
  33
27.506126
   0
3DFACE
   8
0
  62
3
  10
92.083221
  20
-1.493889
  30
27.506126
  11
92.083221
  21
-13.493889
  31
27.506126
  12
95.330399
  22
-12.580444
  32
24.258949
  13
92.083221
  23
-1.493889
  33
27.506126
   0
3DFACE
   8
0
  62
3
  10
92.083221
  20
-1.493889
  30
27.506126
  11
95.330399
  21
-12.580444
  31
24.258949
  12
98.083221
  22
-9.979172
  32
21.506126
  13
92.083221
  23
-1.493889
  33
27.506126
   0
3DFACE
   8
0
  62
3
  10
92.083221
  20
-1.493889
  30
27.506126
  11
98.083221
  21
-9.979172
  31
21.506126
  12
99.922607
  22
-6.086090
  32
19.666748
  13
92.083221
  23
-1.493889
  33
27.506126
   0
3DFACE
   8
0
  62
3
  10
92.083221
  20
-1.493889
  30
27.506126
  11
99.922607
  21
-6.086090
  31
19.666748
  12
100.568497
  22
-1.493889
  32
19.020844
  13
92.083221
  23
-1.493889
  33
27.506126
   0
3DFACE
   8
0
  62
3
  10
92.083221
  20
-1.493889
  30
27.506126
  11
100.568497
  21
-1.493889
  31
19.020844
  12
99.922607
  22
3.098312
  32
19.666748
  13
92.083221
  23
-1.493889
  33
27.506126
   0
3DFACE
   8
0
  62
3
  10
92.083221
  20
-1.493889
  30
27.506126
  11
99.922607
  21
3.098312
  31
19.666748
  12
98.083221
  22
6.991394
  32
21.506126
  13
92.083221
  23
-1.493889
  33
27.506126
   0
3DFACE
   8
0
  62
3
  10
92.083221
  20
-1.493889
  30
27.506126
  11
98.083221
  21
6.991394
  31
21.506126
  12
95.330399
  22
9.592667
  32
24.258949
  13
92.083221
  23
-1.493889
  33
27.506126
   0
3DFACE
   8
0
  62
3
  10
77.941086
  20
-13.493889
  30
41.648254
  11
92.083221
  21
-13.493889
  31
27.506126
  12
92.083221
  22
10.506111
  32
27.506126
  13
77.941086
  23
10.506111
  33
41.648254
   0
3DFACE
   8
0
  62
3
  10
76.526871
  20
-13.493889
  30
40.234039
  11
90.669006
  21
-13.493889
  31
26.091911
  12
90.669006
  22
10.506096
  32
26.091911
  13
76.526871
  23
10.506111
  33
40.234039
   0
3DFACE
   8
0
  62
3
  10
90.669006
  20
-1.493904
  30
26.091911
  11
96.669006
  21
6.991379
  31
20.091911
  12
93.916183
  22
9.592651
  32
22.844734
  13
90.669006
  23
-1.493904
  33
26.091911
   0
3DFACE
   8
0
  62
3
  10
90.669006
  20
-1.493904
  30
26.091911
  11
98.508392
  21
3.098312
  31
18.252533
  12
96.669006
  22
6.991379
  32
20.091911
  13
90.669006
  23
-1.493904
  33
26.091911
   0
3DFACE
   8
0
  62
3
  10
90.669006
  20
-1.493904
  30
26.091911
  11
99.154297
  21
-1.493889
  31
17.606628
  12
98.508392
  22
3.098312
  32
18.252533
  13
90.669006
  23
-1.493904
  33
26.091911
   0
3DFACE
   8
0
  62
3
  10
90.669006
  20
-1.493904
  30
26.091911
  11
98.508392
  21
-6.086090
  31
18.252533
  12
99.154297
  22
-1.493889
  32
17.606628
  13
90.669006
  23
-1.493904
  33
26.091911
   0
3DFACE
   8
0
  62
3
  10
90.669006
  20
-1.493904
  30
26.091911
  11
96.669006
  21
-9.979172
  31
20.091911
  12
98.508392
  22
-6.086090
  32
18.252533
  13
90.669006
  23
-1.493904
  33
26.091911
   0
3DFACE
   8
0
  62
3
  10
90.669006
  20
-1.493904
  30
26.091911
  11
93.916183
  21
-12.580444
  31
22.844734
  12
96.669006
  22
-9.979172
  32
20.091911
  13
90.669006
  23
-1.493904
  33
26.091911
   0
3DFACE
   8
0
  62
3
  10
90.669006
  20
-1.493904
  30
26.091911
  11
90.669006
  21
-13.493889
  31
26.091911
  12
93.916183
  22
-12.580444
  32
22.844734
  13
90.669006
  23
-1.493904
  33
26.091911
   0
3DFACE
   8
0
  62
3
  10
90.669006
  20
-1.493904
  30
26.091911
  11
93.916183
  21
9.592651
  31
22.844734
  12
90.669006
  22
10.506096
  32
26.091911
  13
90.669006
  23
-1.493904
  33
26.091911
   0
3DFACE
   8
0
  62
2
  10
66.627380
  20
10.506096
  30
41.648254
  11
64.893188
  21
10.506096
  31
39.052872
  12
64.893188
  22
-13.493904
  32
39.052872
  13
66.627380
  23
-13.493904
  33
41.648254
   0
3DFACE
   8
0
  62
2
  10
64.893188
  20
10.506096
  30
32.929932
  11
64.893188
  21
-13.493904
  31
32.929932
  12
66.627380
  22
-13.493889
  32
30.334549
  13
66.627380
  23
10.506111
  33
30.334549
   0
3DFACE
   8
0
  62
2
  10
64.284225
  20
-13.493904
  30
35.991409
  11
64.284225
  21
10.506096
  31
35.991409
  12
64.893188
  22
10.506096
  32
32.929932
  13
64.893188
  23
-13.493904
  33
32.929932
   0
3DFACE
   8
0
  62
2
  10
64.893188
  20
10.506096
  30
39.052872
  11
64.893188
  21
-13.493904
  31
39.052872
  12
64.284225
  22
-13.493904
  32
35.991409
  13
64.284225
  23
10.506096
  33
35.991409
   0
3DFACE
   8
0
  62
2
  10
69.222763
  20
-13.493904
  30
43.382446
  11
69.222763
  21
10.506096
  31
43.382446
  12
66.627380
  22
10.506096
  32
41.648254
  13
66.627380
  23
-13.493904
  33
41.648254
   0
3DFACE
   8
0
  62
2
  10
72.284225
  20
10.506096
  30
43.991409
  11
72.284225
  21
-13.493904
  31
43.991409
  12
69.222763
  22
-13.493904
  32
43.382446
  13
69.222763
  23
10.506096
  33
43.382446
   0
3DFACE
   8
0
  62
2
  10
75.345703
  20
-13.493904
  30
43.382446
  11
75.345703
  21
10.506096
  31
43.382446
  12
72.284225
  22
10.506096
  32
43.991409
  13
72.284225
  23
-13.493904
  33
43.991409
   0
3DFACE
   8
0
  62
2
  10
77.941086
  20
10.506111
  30
41.648254
  11
77.941086
  21
-13.493889
  31
41.648254
  12
75.345703
  22
-13.493904
  32
43.382446
  13
75.345703
  23
10.506096
  33
43.382446
   0
3DFACE
   8
0
  62
2
  10
72.284225
  20
-13.493904
  30
35.991409
  11
66.627380
  21
-13.493889
  31
30.334549
  12
64.893188
  22
-13.493904
  32
32.929932
  13
72.284225
  23
-13.493904
  33
35.991409
   0
3DFACE
   8
0
  62
2
  10
72.284225
  20
-13.493904
  30
35.991409
  11
64.893188
  21
-13.493904
  31
32.929932
  12
64.284225
  22
-13.493904
  32
35.991409
  13
72.284225
  23
-13.493904
  33
35.991409
   0
3DFACE
   8
0
  62
2
  10
72.284225
  20
-13.493904
  30
35.991409
  11
64.284225
  21
-13.493904
  31
35.991409
  12
64.893188
  22
-13.493904
  32
39.052872
  13
72.284225
  23
-13.493904
  33
35.991409
   0
3DFACE
   8
0
  62
2
  10
72.284225
  20
-13.493904
  30
35.991409
  11
64.893188
  21
-13.493904
  31
39.052872
  12
66.627380
  22
-13.493904
  32
41.648254
  13
72.284225
  23
-13.493904
  33
35.991409
   0
3DFACE
   8
0
  62
2
  10
72.284225
  20
-13.493904
  30
35.991409
  11
66.627380
  21
-13.493904
  31
41.648254
  12
69.222763
  22
-13.493904
  32
43.382446
  13
72.284225
  23
-13.493904
  33
35.991409
   0
3DFACE
   8
0
  62
2
  10
72.284225
  20
-13.493904
  30
35.991409
  11
69.222763
  21
-13.493904
  31
43.382446
  12
72.284225
  22
-13.493904
  32
43.991409
  13
72.284225
  23
-13.493904
  33
35.991409
   0
3DFACE
   8
0
  62
2
  10
72.284225
  20
-13.493904
  30
35.991409
  11
72.284225
  21
-13.493904
  31
43.991409
  12
75.345703
  22
-13.493904
  32
43.382446
  13
72.284225
  23
-13.493904
  33
35.991409
   0
3DFACE
   8
0
  62
2
  10
72.284225
  20
-13.493904
  30
35.991409
  11
75.345703
  21
-13.493904
  31
43.382446
  12
77.941086
  22
-13.493889
  32
41.648254
  13
72.284225
  23
-13.493904
  33
35.991409
   0
3DFACE
   8
0
  62
2
  10
72.284225
  20
10.506096
  30
35.991409
  11
75.345703
  21
10.506096
  31
43.382446
  12
77.941086
  22
10.506111
  32
41.648254
  13
72.284225
  23
10.506096
  33
35.991409
   0
3DFACE
   8
0
  62
2
  10
72.284225
  20
10.506096
  30
35.991409
  11
72.284225
  21
10.506096
  31
43.991409
  12
75.345703
  22
10.506096
  32
43.382446
  13
72.284225
  23
10.506096
  33
35.991409
   0
3DFACE
   8
0
  62
2
  10
72.284225
  20
10.506096
  30
35.991409
  11
69.222763
  21
10.506096
  31
43.382446
  12
72.284225
  22
10.506096
  32
43.991409
  13
72.284225
  23
10.506096
  33
35.991409
   0
3DFACE
   8
0
  62
2
  10
72.284225
  20
10.506096
  30
35.991409
  11
66.627380
  21
10.506096
  31
41.648254
  12
69.222763
  22
10.506096
  32
43.382446
  13
72.284225
  23
10.506096
  33
35.991409
   0
3DFACE
   8
0
  62
2
  10
72.284225
  20
10.506096
  30
35.991409
  11
64.893188
  21
10.506096
  31
39.052872
  12
66.627380
  22
10.506096
  32
41.648254
  13
72.284225
  23
10.506096
  33
35.991409
   0
3DFACE
   8
0
  62
2
  10
72.284225
  20
10.506096
  30
35.991409
  11
64.284225
  21
10.506096
  31
35.991409
  12
64.893188
  22
10.506096
  32
39.052872
  13
72.284225
  23
10.506096
  33
35.991409
   0
3DFACE
   8
0
  62
2
  10
72.284225
  20
10.506096
  30
35.991409
  11
64.893188
  21
10.506096
  31
32.929932
  12
64.284225
  22
10.506096
  32
35.991409
  13
72.284225
  23
10.506096
  33
35.991409
   0
3DFACE
   8
0
  62
2
  10
72.284225
  20
10.506096
  30
35.991409
  11
66.627380
  21
10.506111
  31
30.334549
  12
64.893188
  22
10.506096
  32
32.929932
  13
72.284225
  23
10.506096
  33
35.991409
   0
3DFACE
   8
0
  62
3
  10
-58.961914
  20
18.506096
  30
100.000000
  11
-58.961914
  21
-21.493904
  31
100.000000
  12
-58.961914
  22
-21.493904
  32
-25.000000
  13
-58.961914
  23
18.506096
  33
-25.000000
   0
3DFACE
   8
0
  62
3
  10
-58.961914
  20
18.506096
  30
100.000000
  11
-58.961914
  21
-21.493904
  31
100.000000
  12
-98.961914
  22
-21.493904
  32
70.000000
  13
-98.961914
  23
18.506096
  33
70.000000
   0
3DFACE
   8
0
  62
3
  10
-98.961914
  20
18.506096
  30
70.000000
  11
-98.961914
  21
-21.493904
  31
70.000000
  12
-98.961914
  22
-21.493904
  32
-25.000000
  13
-98.961914
  23
18.506096
  33
-25.000000
   0
3DFACE
   8
0
  62
3
  10
-58.961914
  20
18.506096
  30
100.000000
  11
-98.961914
  21
18.506096
  31
70.000000
  12
-98.961914
  22
18.506096
  32
-25.000000
  13
-58.961914
  23
18.506096
  33
-25.000000
   0
3DFACE
   8
0
  62
3
  10
-58.961914
  20
-21.493904
  30
100.000000
  11
-98.961914
  21
-21.493904
  31
70.000000
  12
-98.961914
  22
-21.493904
  32
-25.000000
  13
-58.961914
  23
-21.493904
  33
-25.000000
   0
3DFACE
   8
0
  62
5
  10
-48.961914
  20
38.506096
  30
80.000000
  11
-48.961914
  21
18.506096
  31
80.000000
  12
-47.820107
  22
18.506096
  32
85.740250
  13
-47.820107
  23
38.506096
  33
85.740250
   0
3DFACE
   8
0
  62
5
  10
-47.820107
  20
38.506096
  30
85.740250
  11
-47.820107
  21
18.506096
  31
85.740250
  12
-44.568520
  22
18.506096
  32
90.606598
  13
-44.568520
  23
38.506096
  33
90.606598
   0
3DFACE
   8
0
  62
5
  10
-44.568520
  20
38.506096
  30
90.606598
  11
-44.568520
  21
18.506096
  31
90.606598
  12
-39.702164
  22
18.506096
  32
93.858200
  13
-39.702164
  23
38.506096
  33
93.858200
   0
3DFACE
   8
0
  62
5
  10
-39.702164
  20
38.506096
  30
93.858200
  11
-39.702164
  21
18.506096
  31
93.858200
  12
-33.961914
  22
18.506096
  32
95.000000
  13
-33.961914
  23
38.506096
  33
95.000000
   0
3DFACE
   8
0
  62
5
  10
-33.961914
  20
38.506096
  30
95.000000
  11
-33.961914
  21
18.506096
  31
95.000000
  12
-28.221664
  22
18.506096
  32
93.858200
  13
-28.221664
  23
38.506096
  33
93.858200
   0
3DFACE
   8
0
  62
5
  10
-28.221664
  20
38.506096
  30
93.858200
  11
-28.221664
  21
18.506096
  31
93.858200
  12
-23.355309
  22
18.506096
  32
90.606598
  13
-23.355309
  23
38.506096
  33
90.606598
   0
3DFACE
   8
0
  62
5
  10
-23.355309
  20
38.506096
  30
90.606598
  11
-23.355309
  21
18.506096
  31
90.606598
  12
-20.103714
  22
18.506096
  32
85.740250
  13
-20.103714
  23
38.506096
  33
85.740250
   0
3DFACE
   8
0
  62
5
  10
-20.103714
  20
38.506096
  30
85.740250
  11
-20.103714
  21
18.506096
  31
85.740250
  12
-18.961914
  22
18.506096
  32
80.000000
  13
-18.961914
  23
38.506096
  33
80.000000
   0
3DFACE
   8
0
  62
5
  10
-18.961914
  20
38.506096
  30
80.000000
  11
-18.961914
  21
18.506096
  31
80.000000
  12
-20.103714
  22
18.506096
  32
74.259750
  13
-20.103714
  23
38.506096
  33
74.259750
   0
3DFACE
   8
0
  62
5
  10
-20.103714
  20
38.506096
  30
74.259750
  11
-20.103714
  21
18.506096
  31
74.259750
  12
-23.355309
  22
18.506096
  32
69.393402
  13
-23.355309
  23
38.506096
  33
69.393402
   0
3DFACE
   8
0
  62
5
  10
-23.355309
  20
38.506096
  30
69.393402
  11
-23.355309
  21
18.506096
  31
69.393402
  12
-28.221664
  22
18.506096
  32
66.141800
  13
-28.221664
  23
38.506096
  33
66.141800
   0
3DFACE
   8
0
  62
5
  10
-28.221664
  20
38.506096
  30
66.141800
  11
-28.221664
  21
18.506096
  31
66.141800
  12
-33.961914
  22
18.506096
  32
65.000000
  13
-33.961914
  23
38.506096
  33
65.000000
   0
3DFACE
   8
0
  62
5
  10
-33.961914
  20
38.506096
  30
65.000000
  11
-33.961914
  21
18.506096
  31
65.000000
  12
-39.702164
  22
18.506096
  32
66.141800
  13
-39.702164
  23
38.506096
  33
66.141800
   0
3DFACE
   8
0
  62
5
  10
-39.702164
  20
38.506096
  30
66.141800
  11
-39.702164
  21
18.506096
  31
66.141800
  12
-44.568520
  22
18.506096
  32
69.393402
  13
-44.568520
  23
38.506096
  33
69.393402
   0
3DFACE
   8
0
  62
5
  10
-44.568520
  20
38.506096
  30
69.393402
  11
-44.568520
  21
18.506096
  31
69.393402
  12
-47.820107
  22
18.506096
  32
74.259750
  13
-47.820107
  23
38.506096
  33
74.259750
   0
3DFACE
   8
0
  62
5
  10
-47.820107
  20
38.506096
  30
74.259750
  11
-47.820107
  21
18.506096
  31
74.259750
  12
-48.961914
  22
18.506096
  32
80.000000
  13
-48.961914
  23
38.506096
  33
80.000000
   0
3DFACE
   8
0
  62
5
  10
-33.961914
  20
38.506096
  30
80.000000
  11
-48.961914
  21
38.506096
  31
80.000000
  12
-47.820107
  22
38.506096
  32
85.740250
  13
-33.961914
  23
38.506096
  33
80.000000
   0
3DFACE
   8
0
  62
5
  10
-33.961914
  20
38.506096
  30
80.000000
  11
-47.820107
  21
38.506096
  31
85.740250
  12
-44.568520
  22
38.506096
  32
90.606598
  13
-33.961914
  23
38.506096
  33
80.000000
   0
3DFACE
   8
0
  62
5
  10
-33.961914
  20
38.506096
  30
80.000000
  11
-44.568520
  21
38.506096
  31
90.606598
  12
-39.702164
  22
38.506096
  32
93.858200
  13
-33.961914
  23
38.506096
  33
80.000000
   0
3DFACE
   8
0
  62
5
  10
-33.961914
  20
38.506096
  30
80.000000
  11
-39.702164
  21
38.506096
  31
93.858200
  12
-33.961914
  22
38.506096
  32
95.000000
  13
-33.961914
  23
38.506096
  33
80.000000
   0
3DFACE
   8
0
  62
5
  10
-33.961914
  20
38.506096
  30
80.000000
  11
-33.961914
  21
38.506096
  31
95.000000
  12
-28.221664
  22
38.506096
  32
93.858200
  13
-33.961914
  23
38.506096
  33
80.000000
   0
3DFACE
   8
0
  62
5
  10
-33.961914
  20
38.506096
  30
80.000000
  11
-28.221664
  21
38.506096
  31
93.858200
  12
-23.355309
  22
38.506096
  32
90.606598
  13
-33.961914
  23
38.506096
  33
80.000000
   0
3DFACE
   8
0
  62
5
  10
-33.961914
  20
38.506096
  30
80.000000
  11
-23.355309
  21
38.506096
  31
90.606598
  12
-20.103714
  22
38.506096
  32
85.740250
  13
-33.961914
  23
38.506096
  33
80.000000
   0
3DFACE
   8
0
  62
5
  10
-33.961914
  20
38.506096
  30
80.000000
  11
-20.103714
  21
38.506096
  31
85.740250
  12
-18.961914
  22
38.506096
  32
80.000000
  13
-33.961914
  23
38.506096
  33
80.000000
   0
3DFACE
   8
0
  62
5
  10
-33.961914
  20
38.506096
  30
80.000000
  11
-18.961914
  21
38.506096
  31
80.000000
  12
-20.103714
  22
38.506096
  32
74.259750
  13
-33.961914
  23
38.506096
  33
80.000000
   0
3DFACE
   8
0
  62
5
  10
-33.961914
  20
38.506096
  30
80.000000
  11
-20.103714
  21
38.506096
  31
74.259750
  12
-23.355309
  22
38.506096
  32
69.393402
  13
-33.961914
  23
38.506096
  33
80.000000
   0
3DFACE
   8
0
  62
5
  10
-33.961914
  20
38.506096
  30
80.000000
  11
-23.355309
  21
38.506096
  31
69.393402
  12
-28.221664
  22
38.506096
  32
66.141800
  13
-33.961914
  23
38.506096
  33
80.000000
   0
3DFACE
   8
0
  62
5
  10
-33.961914
  20
38.506096
  30
80.000000
  11
-28.221664
  21
38.506096
  31
66.141800
  12
-33.961914
  22
38.506096
  32
65.000000
  13
-33.961914
  23
38.506096
  33
80.000000
   0
3DFACE
   8
0
  62
5
  10
-33.961914
  20
38.506096
  30
80.000000
  11
-33.961914
  21
38.506096
  31
65.000000
  12
-39.702164
  22
38.506096
  32
66.141800
  13
-33.961914
  23
38.506096
  33
80.000000
   0
3DFACE
   8
0
  62
5
  10
-33.961914
  20
38.506096
  30
80.000000
  11
-39.702164
  21
38.506096
  31
66.141800
  12
-44.568520
  22
38.506096
  32
69.393402
  13
-33.961914
  23
38.506096
  33
80.000000
   0
3DFACE
   8
0
  62
5
  10
-33.961914
  20
38.506096
  30
80.000000
  11
-44.568520
  21
38.506096
  31
69.393402
  12
-47.820107
  22
38.506096
  32
74.259750
  13
-33.961914
  23
38.506096
  33
80.000000
   0
3DFACE
   8
0
  62
5
  10
-33.961914
  20
38.506096
  30
80.000000
  11
-47.820107
  21
38.506096
  31
74.259750
  12
-48.961914
  22
38.506096
  32
80.000000
  13
-33.961914
  23
38.506096
  33
80.000000
   0
3DFACE
   8
0
  62
2
  10
-33.961914
  20
14.506096
  30
80.000000
  11
-26.308243
  21
14.506096
  31
61.522415
  12
-19.819778
  22
14.506096
  32
65.857864
  13
-33.961914
  23
14.506096
  33
80.000000
   0
3DFACE
   8
0
  62
2
  10
-33.961914
  20
14.506096
  30
80.000000
  11
-19.819778
  21
14.506096
  31
65.857864
  12
-15.484329
  22
14.506096
  32
72.346329
  13
-33.961914
  23
14.506096
  33
80.000000
   0
3DFACE
   8
0
  62
2
  10
-33.961914
  20
14.506096
  30
80.000000
  11
-15.484329
  21
14.506096
  31
72.346329
  12
-13.961914
  22
14.506096
  32
80.000000
  13
-33.961914
  23
14.506096
  33
80.000000
   0
3DFACE
   8
0
  62
2
  10
-33.961914
  20
14.506096
  30
80.000000
  11
-13.961914
  21
14.506096
  31
80.000000
  12
-15.484329
  22
14.506096
  32
87.653671
  13
-33.961914
  23
14.506096
  33
80.000000
   0
3DFACE
   8
0
  62
2
  10
-33.961914
  20
14.506096
  30
80.000000
  11
-15.484329
  21
14.506096
  31
87.653671
  12
-19.819778
  22
14.506096
  32
94.142136
  13
-33.961914
  23
14.506096
  33
80.000000
   0
3DFACE
   8
0
  62
2
  10
-33.961914
  20
14.506096
  30
80.000000
  11
-19.819778
  21
14.506096
  31
94.142136
  12
-26.308243
  22
14.506096
  32
98.477585
  13
-33.961914
  23
14.506096
  33
80.000000
   0
3DFACE
   8
0
  62
2
  10
-33.961914
  20
14.506096
  30
80.000000
  11
-26.308243
  21
14.506096
  31
98.477585
  12
-33.961914
  22
14.506096
  32
100.000000
  13
-33.961914
  23
14.506096
  33
80.000000
   0
3DFACE
   8
0
  62
2
  10
-33.961914
  20
14.506096
  30
80.000000
  11
-26.308243
  21
14.506096
  31
61.522415
  12
-33.961914
  22
14.506096
  32
58.797729
  13
-33.961914
  23
14.506096
  33
80.000000
   0
3DFACE
   8
0
  62
2
  10
-58.961914
  20
14.506096
  30
50.000000
  11
-33.961914
  21
14.506096
  31
58.797729
  12
-33.961914
  22
14.506096
  32
100.000000
  13
-58.961914
  23
14.506096
  33
100.000000
   0
3DFACE
   8
0
  62
2
  10
-33.961914
  20
18.506096
  30
80.000000
  11
-26.308243
  21
18.506096
  31
61.522415
  12
-33.961914
  22
18.506096
  32
58.797729
  13
-33.961914
  23
18.506096
  33
80.000000
   0
3DFACE
   8
0
  62
2
  10
-58.961914
  20
18.506096
  30
50.000000
  11
-33.961914
  21
18.506096
  31
58.797729
  12
-33.961914
  22
18.506096
  32
100.000000
  13
-58.961914
  23
18.506096
  33
100.000000
   0
3DFACE
   8
0
  62
2
  10
-33.961914
  20
18.506096
  30
80.000000
  11
-26.308243
  21
18.506096
  31
98.477585
  12
-33.961914
  22
18.506096
  32
100.000000
  13
-33.961914
  23
18.506096
  33
80.000000
   0
3DFACE
   8
0
  62
2
  10
-33.961914
  20
18.506096
  30
80.000000
  11
-19.819778
  21
18.506096
  31
94.142136
  12
-26.308243
  22
18.506096
  32
98.477585
  13
-33.961914
  23
18.506096
  33
80.000000
   0
3DFACE
   8
0
  62
2
  10
-33.961914
  20
18.506096
  30
80.000000
  11
-15.484329
  21
18.506096
  31
87.653671
  12
-19.819778
  22
18.506096
  32
94.142136
  13
-33.961914
  23
18.506096
  33
80.000000
   0
3DFACE
   8
0
  62
2
  10
-33.961914
  20
18.506096
  30
80.000000
  11
-13.961914
  21
18.506096
  31
80.000000
  12
-15.484329
  22
18.506096
  32
87.653671
  13
-33.961914
  23
18.506096
  33
80.000000
   0
3DFACE
   8
0
  62
2
  10
-33.961914
  20
18.506096
  30
80.000000
  11
-15.484329
  21
18.506096
  31
72.346329
  12
-13.961914
  22
18.506096
  32
80.000000
  13
-33.961914
  23
18.506096
  33
80.000000
   0
3DFACE
   8
0
  62
2
  10
-33.961914
  20
18.506096
  30
80.000000
  11
-19.819778
  21
18.506096
  31
65.857864
  12
-15.484329
  22
18.506096
  32
72.346329
  13
-33.961914
  23
18.506096
  33
80.000000
   0
3DFACE
   8
0
  62
2
  10
-33.961914
  20
18.506096
  30
80.000000
  11
-26.308243
  21
18.506096
  31
61.522415
  12
-19.819778
  22
18.506096
  32
65.857864
  13
-33.961914
  23
18.506096
  33
80.000000
   0
3DFACE
   8
0
  62
2
  10
-58.961914
  20
18.506096
  30
100.000000
  11
-33.961914
  21
18.506096
  31
100.000000
  12
-33.961914
  22
14.506096
  32
100.000000
  13
-58.961914
  23
14.506096
  33
100.000000
   0
3DFACE
   8
0
  62
2
  10
-58.961914
  20
18.506096
  30
50.000000
  11
-26.308243
  21
18.506096
  31
61.522415
  12
-26.308243
  22
14.506096
  32
61.522415
  13
-58.961914
  23
14.506096
  33
50.000000
   0
3DFACE
   8
0
  62
2
  10
-26.308243
  20
14.506096
  30
98.477585
  11
-26.308243
  21
18.506096
  31
98.477585
  12
-33.961914
  22
18.506096
  32
100.000000
  13
-33.961914
  23
14.506096
  33
100.000000
   0
3DFACE
   8
0
  62
2
  10
-19.819778
  20
14.506096
  30
94.142136
  11
-19.819778
  21
18.506096
  31
94.142136
  12
-26.308243
  22
18.506096
  32
98.477585
  13
-26.308243
  23
14.506096
  33
98.477585
   0
3DFACE
   8
0
  62
2
  10
-15.484329
  20
14.506096
  30
87.653671
  11
-15.484329
  21
18.506096
  31
87.653671
  12
-19.819778
  22
18.506096
  32
94.142136
  13
-19.819778
  23
14.506096
  33
94.142136
   0
3DFACE
   8
0
  62
2
  10
-13.961914
  20
14.506096
  30
80.000000
  11
-13.961914
  21
18.506096
  31
80.000000
  12
-15.484329
  22
18.506096
  32
87.653671
  13
-15.484329
  23
14.506096
  33
87.653671
   0
3DFACE
   8
0
  62
2
  10
-15.484329
  20
14.506096
  30
72.346329
  11
-15.484329
  21
18.506096
  31
72.346329
  12
-13.961914
  22
18.506096
  32
80.000000
  13
-13.961914
  23
14.506096
  33
80.000000
   0
3DFACE
   8
0
  62
2
  10
-19.819778
  20
14.506096
  30
65.857864
  11
-19.819778
  21
18.506096
  31
65.857864
  12
-15.484329
  22
18.506096
  32
72.346329
  13
-15.484329
  23
14.506096
  33
72.346329
   0
3DFACE
   8
0
  62
2
  10
-26.308243
  20
14.506096
  30
61.522415
  11
-26.308243
  21
18.506096
  31
61.522415
  12
-19.819778
  22
18.506096
  32
65.857864
  13
-19.819778
  23
14.506096
  33
65.857864
   0
3DFACE
   8
0
  62
2
  10
-26.308243
  20
-21.493904
  30
61.522415
  11
-26.308243
  21
-17.493904
  31
61.522415
  12
-19.819778
  22
-17.493904
  32
65.857864
  13
-19.819778
  23
-21.493904
  33
65.857864
   0
3DFACE
   8
0
  62
2
  10
-19.819778
  20
-21.493904
  30
65.857864
  11
-19.819778
  21
-17.493904
  31
65.857864
  12
-15.484329
  22
-17.493904
  32
72.346329
  13
-15.484329
  23
-21.493904
  33
72.346329
   0
3DFACE
   8
0
  62
2
  10
-15.484329
  20
-21.493904
  30
72.346329
  11
-15.484329
  21
-17.493904
  31
72.346329
  12
-13.961914
  22
-17.493904
  32
80.000000
  13
-13.961914
  23
-21.493904
  33
80.000000
   0
3DFACE
   8
0
  62
2
  10
-13.961914
  20
-21.493904
  30
80.000000
  11
-13.961914
  21
-17.493904
  31
80.000000
  12
-15.484329
  22
-17.493904
  32
87.653671
  13
-15.484329
  23
-21.493904
  33
87.653671
   0
3DFACE
   8
0
  62
2
  10
-15.484329
  20
-21.493904
  30
87.653671
  11
-15.484329
  21
-17.493904
  31
87.653671
  12
-19.819778
  22
-17.493904
  32
94.142136
  13
-19.819778
  23
-21.493904
  33
94.142136
   0
3DFACE
   8
0
  62
2
  10
-19.819778
  20
-21.493904
  30
94.142136
  11
-19.819778
  21
-17.493904
  31
94.142136
  12
-26.308243
  22
-17.493904
  32
98.477585
  13
-26.308243
  23
-21.493904
  33
98.477585
   0
3DFACE
   8
0
  62
2
  10
-26.308243
  20
-21.493904
  30
98.477585
  11
-26.308243
  21
-17.493904
  31
98.477585
  12
-33.961914
  22
-17.493904
  32
100.000000
  13
-33.961914
  23
-21.493904
  33
100.000000
   0
3DFACE
   8
0
  62
2
  10
-58.961914
  20
-17.493904
  30
50.000000
  11
-26.308243
  21
-17.493904
  31
61.522415
  12
-26.308243
  22
-21.493904
  32
61.522415
  13
-58.961914
  23
-21.493904
  33
50.000000
   0
3DFACE
   8
0
  62
2
  10
-58.961914
  20
-17.493904
  30
100.000000
  11
-33.961914
  21
-17.493904
  31
100.000000
  12
-33.961914
  22
-21.493904
  32
100.000000
  13
-58.961914
  23
-21.493904
  33
100.000000
   0
3DFACE
   8
0
  62
2
  10
-33.961914
  20
-17.493904
  30
80.000000
  11
-26.308243
  21
-17.493904
  31
61.522415
  12
-19.819778
  22
-17.493904
  32
65.857864
  13
-33.961914
  23
-17.493904
  33
80.000000
   0
3DFACE
   8
0
  62
2
  10
-33.961914
  20
-17.493904
  30
80.000000
  11
-19.819778
  21
-17.493904
  31
65.857864
  12
-15.484329
  22
-17.493904
  32
72.346329
  13
-33.961914
  23
-17.493904
  33
80.000000
   0
3DFACE
   8
0
  62
2
  10
-33.961914
  20
-17.493904
  30
80.000000
  11
-15.484329
  21
-17.493904
  31
72.346329
  12
-13.961914
  22
-17.493904
  32
80.000000
  13
-33.961914
  23
-17.493904
  33
80.000000
   0
3DFACE
   8
0
  62
2
  10
-33.961914
  20
-17.493904
  30
80.000000
  11
-13.961914
  21
-17.493904
  31
80.000000
  12
-15.484329
  22
-17.493904
  32
87.653671
  13
-33.961914
  23
-17.493904
  33
80.000000
   0
3DFACE
   8
0
  62
2
  10
-33.961914
  20
-17.493904
  30
80.000000
  11
-15.484329
  21
-17.493904
  31
87.653671
  12
-19.819778
  22
-17.493904
  32
94.142136
  13
-33.961914
  23
-17.493904
  33
80.000000
   0
3DFACE
   8
0
  62
2
  10
-33.961914
  20
-17.493904
  30
80.000000
  11
-19.819778
  21
-17.493904
  31
94.142136
  12
-26.308243
  22
-17.493904
  32
98.477585
  13
-33.961914
  23
-17.493904
  33
80.000000
   0
3DFACE
   8
0
  62
2
  10
-33.961914
  20
-17.493904
  30
80.000000
  11
-26.308243
  21
-17.493904
  31
98.477585
  12
-33.961914
  22
-17.493904
  32
100.000000
  13
-33.961914
  23
-17.493904
  33
80.000000
   0
3DFACE
   8
0
  62
2
  10
-58.961914
  20
-17.493904
  30
50.000000
  11
-33.961914
  21
-17.493904
  31
58.797729
  12
-33.961914
  22
-17.493904
  32
100.000000
  13
-58.961914
  23
-17.493904
  33
100.000000
   0
3DFACE
   8
0
  62
2
  10
-33.961914
  20
-17.493904
  30
80.000000
  11
-26.308243
  21
-17.493904
  31
61.522415
  12
-33.961914
  22
-17.493904
  32
58.797729
  13
-33.961914
  23
-17.493904
  33
80.000000
   0
3DFACE
   8
0
  62
2
  10
-58.961914
  20
-21.493904
  30
50.000000
  11
-33.961914
  21
-21.493904
  31
58.797729
  12
-33.961914
  22
-21.493904
  32
100.000000
  13
-58.961914
  23
-21.493904
  33
100.000000
   0
3DFACE
   8
0
  62
2
  10
-33.961914
  20
-21.493904
  30
80.000000
  11
-26.308243
  21
-21.493904
  31
61.522415
  12
-33.961914
  22
-21.493904
  32
58.797729
  13
-33.961914
  23
-21.493904
  33
80.000000
   0
3DFACE
   8
0
  62
2
  10
-33.961914
  20
-21.493904
  30
80.000000
  11
-26.308243
  21
-21.493904
  31
98.477585
  12
-33.961914
  22
-21.493904
  32
100.000000
  13
-33.961914
  23
-21.493904
  33
80.000000
   0
3DFACE
   8
0
  62
2
  10
-33.961914
  20
-21.493904
  30
80.000000
  11
-19.819778
  21
-21.493904
  31
94.142136
  12
-26.308243
  22
-21.493904
  32
98.477585
  13
-33.961914
  23
-21.493904
  33
80.000000
   0
3DFACE
   8
0
  62
2
  10
-33.961914
  20
-21.493904
  30
80.000000
  11
-15.484329
  21
-21.493904
  31
87.653671
  12
-19.819778
  22
-21.493904
  32
94.142136
  13
-33.961914
  23
-21.493904
  33
80.000000
   0
3DFACE
   8
0
  62
2
  10
-33.961914
  20
-21.493904
  30
80.000000
  11
-13.961914
  21
-21.493904
  31
80.000000
  12
-15.484329
  22
-21.493904
  32
87.653671
  13
-33.961914
  23
-21.493904
  33
80.000000
   0
3DFACE
   8
0
  62
2
  10
-33.961914
  20
-21.493904
  30
80.000000
  11
-15.484329
  21
-21.493904
  31
72.346329
  12
-13.961914
  22
-21.493904
  32
80.000000
  13
-33.961914
  23
-21.493904
  33
80.000000
   0
3DFACE
   8
0
  62
2
  10
-33.961914
  20
-21.493904
  30
80.000000
  11
-19.819778
  21
-21.493904
  31
65.857864
  12
-15.484329
  22
-21.493904
  32
72.346329
  13
-33.961914
  23
-21.493904
  33
80.000000
   0
3DFACE
   8
0
  62
2
  10
-33.961914
  20
-21.493904
  30
80.000000
  11
-26.308243
  21
-21.493904
  31
61.522415
  12
-19.819778
  22
-21.493904
  32
65.857864
  13
-33.961914
  23
-21.493904
  33
80.000000
   0
3DFACE
   8
0
  62
3
  10
-28.221664
  20
-17.493904
  30
93.858200
  11
-28.221664
  21
14.506096
  31
93.858200
  12
-33.961914
  22
14.506096
  32
95.000000
  13
-33.961914
  23
-17.493904
  33
95.000000
   0
3DFACE
   8
0
  62
3
  10
-47.820107
  20
-17.493904
  30
85.740250
  11
-47.820107
  21
14.506096
  31
85.740250
  12
-48.961914
  22
14.506096
  32
80.000000
  13
-48.961914
  23
-17.493904
  33
80.000000
   0
3DFACE
   8
0
  62
3
  10
-44.568520
  20
-17.493904
  30
90.606598
  11
-44.568520
  21
14.506096
  31
90.606598
  12
-47.820107
  22
14.506096
  32
85.740250
  13
-47.820107
  23
-17.493904
  33
85.740250
   0
3DFACE
   8
0
  62
3
  10
-39.702164
  20
-17.493904
  30
93.858200
  11
-39.702164
  21
14.506096
  31
93.858200
  12
-44.568520
  22
14.506096
  32
90.606598
  13
-44.568520
  23
-17.493904
  33
90.606598
   0
3DFACE
   8
0
  62
3
  10
-33.961914
  20
-17.493904
  30
95.000000
  11
-33.961914
  21
14.506096
  31
95.000000
  12
-39.702164
  22
14.506096
  32
93.858200
  13
-39.702164
  23
-17.493904
  33
93.858200
   0
3DFACE
   8
0
  62
3
  10
-44.568520
  20
-17.493904
  30
69.393402
  11
-44.568520
  21
14.506096
  31
69.393402
  12
-39.702164
  22
14.506096
  32
66.141800
  13
-39.702164
  23
-17.493904
  33
66.141800
   0
3DFACE
   8
0
  62
3
  10
-47.820107
  20
-17.493904
  30
74.259750
  11
-47.820107
  21
14.506096
  31
74.259750
  12
-44.568520
  22
14.506096
  32
69.393402
  13
-44.568520
  23
-17.493904
  33
69.393402
   0
3DFACE
   8
0
  62
3
  10
-48.961914
  20
-17.493904
  30
80.000000
  11
-48.961914
  21
14.506096
  31
80.000000
  12
-47.820107
  22
14.506096
  32
74.259750
  13
-47.820107
  23
-17.493904
  33
74.259750
   0
3DFACE
   8
0
  62
3
  10
-28.221664
  20
14.506096
  30
93.858200
  11
66.872269
  21
14.506096
  31
49.057037
  12
59.218597
  22
14.506096
  32
30.579437
  13
-39.702164
  23
14.506096
  33
66.141800
   0
3DFACE
   8
0
  62
3
  10
-28.221664
  20
-17.493904
  30
93.858200
  11
66.872269
  21
-17.493904
  31
49.057037
  12
59.218597
  22
-17.493904
  32
30.579437
  13
-39.702164
  23
-17.493904
  33
66.141800
   0
3DFACE
   8
0
  62
3
  10
-28.221664
  20
14.506096
  30
93.858200
  11
-28.221664
  21
-17.493904
  31
93.858200
  12
66.872269
  22
-17.493904
  32
49.057037
  13
66.872269
  23
14.506096
  33
49.057037
   0
3DFACE
   8
0
  62
3
  10
-39.702164
  20
14.506096
  30
66.141800
  11
-39.702164
  21
-17.493904
  31
66.141800
  12
59.218597
  22
-17.493904
  32
30.579437
  13
59.218597
  23
14.506096
  33
30.579437
   0
3DFACE
   8
0
  62
3
  10
66.872269
  20
14.506096
  30
49.057037
  11
76.111069
  21
14.506096
  31
45.230194
  12
68.457397
  22
14.506096
  32
26.752609
  13
59.218597
  23
14.506096
  33
30.579437
   0
3DFACE
   8
0
  62
3
  10
72.284225
  20
14.506096
  30
35.991409
  11
68.457397
  21
14.506096
  31
26.752609
  12
72.284225
  22
14.506096
  32
25.991402
  13
72.284225
  23
14.506096
  33
35.991409
   0
3DFACE
   8
0
  62
3
  10
72.284225
  20
14.506096
  30
35.991409
  11
72.284225
  21
14.506096
  31
25.991402
  12
76.111069
  22
14.506096
  32
26.752609
  13
72.284225
  23
14.506096
  33
35.991409
   0
3DFACE
   8
0
  62
3
  10
72.284225
  20
14.506096
  30
35.991409
  11
76.111069
  21
14.506096
  31
26.752609
  12
79.355301
  22
14.506096
  32
28.920334
  13
72.284225
  23
14.506096
  33
35.991409
   0
3DFACE
   8
0
  62
3
  10
72.284225
  20
14.506096
  30
35.991409
  11
79.355301
  21
14.506096
  31
28.920334
  12
81.523026
  22
14.506096
  32
32.164566
  13
72.284225
  23
14.506096
  33
35.991409
   0
3DFACE
   8
0
  62
3
  10
72.284225
  20
14.506096
  30
35.991409
  11
81.523026
  21
14.506096
  31
32.164566
  12
82.284225
  22
14.506096
  32
35.991409
  13
72.284225
  23
14.506096
  33
35.991409
   0
3DFACE
   8
0
  62
3
  10
72.284225
  20
14.506096
  30
35.991409
  11
82.284225
  21
14.506096
  31
35.991409
  12
81.523026
  22
14.506096
  32
39.818237
  13
72.284225
  23
14.506096
  33
35.991409
   0
3DFACE
   8
0
  62
3
  10
72.284225
  20
14.506096
  30
35.991409
  11
81.523026
  21
14.506096
  31
39.818237
  12
79.355301
  22
14.506096
  32
43.062469
  13
72.284225
  23
14.506096
  33
35.991409
   0
3DFACE
   8
0
  62
3
  10
72.284225
  20
14.506096
  30
35.991409
  11
79.355301
  21
14.506096
  31
43.062469
  12
76.111069
  22
14.506096
  32
45.230194
  13
72.284225
  23
14.506096
  33
35.991409
   0
3DFACE
   8
0
  62
3
  10
72.284225
  20
-17.493904
  30
35.991409
  11
79.355301
  21
-17.493904
  31
43.062469
  12
76.111069
  22
-17.493904
  32
45.230194
  13
72.284225
  23
-17.493904
  33
35.991409
   0
3DFACE
   8
0
  62
3
  10
72.284225
  20
-17.493904
  30
35.991409
  11
81.523026
  21
-17.493904
  31
39.818237
  12
79.355301
  22
-17.493904
  32
43.062469
  13
72.284225
  23
-17.493904
  33
35.991409
   0
3DFACE
   8
0
  62
3
  10
72.284225
  20
-17.493904
  30
35.991409
  11
82.284225
  21
-17.493904
  31
35.991409
  12
81.523026
  22
-17.493904
  32
39.818237
  13
72.284225
  23
-17.493904
  33
35.991409
   0
3DFACE
   8
0
  62
3
  10
72.284225
  20
-17.493904
  30
35.991409
  11
81.523026
  21
-17.493904
  31
32.164566
  12
82.284225
  22
-17.493904
  32
35.991409
  13
72.284225
  23
-17.493904
  33
35.991409
   0
3DFACE
   8
0
  62
3
  10
72.284225
  20
-17.493904
  30
35.991409
  11
79.355301
  21
-17.493904
  31
28.920334
  12
81.523026
  22
-17.493904
  32
32.164566
  13
72.284225
  23
-17.493904
  33
35.991409
   0
3DFACE
   8
0
  62
3
  10
72.284225
  20
-17.493904
  30
35.991409
  11
76.111069
  21
-17.493904
  31
26.752609
  12
79.355301
  22
-17.493904
  32
28.920334
  13
72.284225
  23
-17.493904
  33
35.991409
   0
3DFACE
   8
0
  62
3
  10
72.284225
  20
-17.493904
  30
35.991409
  11
72.284225
  21
-17.493904
  31
25.991402
  12
76.111069
  22
-17.493904
  32
26.752609
  13
72.284225
  23
-17.493904
  33
35.991409
   0
3DFACE
   8
0
  62
3
  10
72.284225
  20
-17.493904
  30
35.991409
  11
68.457397
  21
-17.493904
  31
26.752609
  12
72.284225
  22
-17.493904
  32
25.991402
  13
72.284225
  23
-17.493904
  33
35.991409
   0
3DFACE
   8
0
  62
3
  10
66.872269
  20
-17.493904
  30
49.057037
  11
76.111069
  21
-17.493904
  31
45.230194
  12
68.457397
  22
-17.493904
  32
26.752609
  13
59.218597
  23
-17.493904
  33
30.579437
   0
3DFACE
   8
0
  62
3
  10
66.872269
  20
-13.493904
  30
49.057037
  11
76.111069
  21
-13.493904
  31
45.230194
  12
68.457397
  22
-13.493904
  32
26.752609
  13
59.218597
  23
-13.493904
  33
30.579437
   0
3DFACE
   8
0
  62
3
  10
66.872269
  20
10.506096
  30
49.057037
  11
76.111069
  21
10.506096
  31
45.230194
  12
68.457397
  22
10.506096
  32
26.752609
  13
59.218597
  23
10.506096
  33
30.579437
   0
3DFACE
   8
0
  62
3
  10
72.284225
  20
-13.493904
  30
35.991409
  11
76.111069
  21
-13.493904
  31
26.752609
  12
79.355301
  22
-13.493904
  32
28.920334
  13
72.284225
  23
-13.493904
  33
35.991409
   0
3DFACE
   8
0
  62
3
  10
72.284225
  20
-13.493904
  30
35.991409
  11
79.355301
  21
-13.493904
  31
28.920334
  12
81.523026
  22
-13.493904
  32
32.164566
  13
72.284225
  23
-13.493904
  33
35.991409
   0
3DFACE
   8
0
  62
3
  10
72.284225
  20
-13.493904
  30
35.991409
  11
81.523026
  21
-13.493904
  31
32.164566
  12
82.284225
  22
-13.493904
  32
35.991409
  13
72.284225
  23
-13.493904
  33
35.991409
   0
3DFACE
   8
0
  62
3
  10
72.284225
  20
-13.493904
  30
35.991409
  11
82.284225
  21
-13.493904
  31
35.991409
  12
81.523026
  22
-13.493904
  32
39.818237
  13
72.284225
  23
-13.493904
  33
35.991409
   0
3DFACE
   8
0
  62
3
  10
72.284225
  20
-13.493904
  30
35.991409
  11
81.523026
  21
-13.493904
  31
39.818237
  12
79.355301
  22
-13.493904
  32
43.062469
  13
72.284225
  23
-13.493904
  33
35.991409
   0
3DFACE
   8
0
  62
3
  10
72.284225
  20
-13.493904
  30
35.991409
  11
79.355301
  21
-13.493904
  31
43.062469
  12
76.111069
  22
-13.493904
  32
45.230194
  13
72.284225
  23
-13.493904
  33
35.991409
   0
3DFACE
   8
0
  62
3
  10
72.284225
  20
-13.493904
  30
35.991409
  11
68.457397
  21
-13.493904
  31
26.752609
  12
72.284225
  22
-13.493904
  32
25.991402
  13
72.284225
  23
-13.493904
  33
35.991409
   0
3DFACE
   8
0
  62
3
  10
72.284225
  20
-13.493904
  30
35.991409
  11
72.284225
  21
-13.493904
  31
25.991402
  12
76.111069
  22
-13.493904
  32
26.752609
  13
72.284225
  23
-13.493904
  33
35.991409
   0
3DFACE
   8
0
  62
3
  10
72.284225
  20
10.506096
  30
35.991409
  11
76.111069
  21
10.506096
  31
26.752609
  12
79.355301
  22
10.506096
  32
28.920334
  13
72.284225
  23
10.506096
  33
35.991409
   0
3DFACE
   8
0
  62
3
  10
72.284225
  20
10.506096
  30
35.991409
  11
79.355301
  21
10.506096
  31
28.920334
  12
81.523026
  22
10.506096
  32
32.164566
  13
72.284225
  23
10.506096
  33
35.991409
   0
3DFACE
   8
0
  62
3
  10
72.284225
  20
10.506096
  30
35.991409
  11
81.523026
  21
10.506096
  31
32.164566
  12
82.284225
  22
10.506096
  32
35.991409
  13
72.284225
  23
10.506096
  33
35.991409
   0
3DFACE
   8
0
  62
3
  10
72.284225
  20
10.506096
  30
35.991409
  11
82.284225
  21
10.506096
  31
35.991409
  12
81.523026
  22
10.506096
  32
39.818237
  13
72.284225
  23
10.506096
  33
35.991409
   0
3DFACE
   8
0
  62
3
  10
72.284225
  20
10.506096
  30
35.991409
  11
81.523026
  21
10.506096
  31
39.818237
  12
79.355301
  22
10.506096
  32
43.062469
  13
72.284225
  23
10.506096
  33
35.991409
   0
3DFACE
   8
0
  62
3
  10
72.284225
  20
10.506096
  30
35.991409
  11
79.355301
  21
10.506096
  31
43.062469
  12
76.111069
  22
10.506096
  32
45.230194
  13
72.284225
  23
10.506096
  33
35.991409
   0
3DFACE
   8
0
  62
3
  10
72.284225
  20
10.506096
  30
35.991409
  11
68.457397
  21
10.506096
  31
26.752609
  12
72.284225
  22
10.506096
  32
25.991402
  13
72.284225
  23
10.506096
  33
35.991409
   0
3DFACE
   8
0
  62
3
  10
72.284225
  20
10.506096
  30
35.991409
  11
72.284225
  21
10.506096
  31
25.991402
  12
76.111069
  22
10.506096
  32
26.752609
  13
72.284225
  23
10.506096
  33
35.991409
   0
3DFACE
   8
0
  62
3
  10
66.872269
  20
10.506096
  30
49.057037
  11
66.872269
  21
-13.493904
  31
49.057037
  12
59.218597
  22
-13.493904
  32
30.579437
  13
59.218597
  23
10.506096
  33
30.579437
   0
3DFACE
   8
0
  62
3
  10
66.872269
  20
-17.493904
  30
49.057037
  11
66.872269
  21
-13.493904
  31
49.057037
  12
76.111069
  22
-13.493904
  32
45.230194
  13
76.111069
  23
-17.493904
  33
45.230194
   0
3DFACE
   8
0
  62
3
  10
76.111069
  20
-13.493904
  30
45.230194
  11
76.111069
  21
-17.493904
  31
45.230194
  12
79.355301
  22
-17.493904
  32
43.062469
  13
79.355301
  23
-13.493904
  33
43.062469
   0
3DFACE
   8
0
  62
3
  10
79.355301
  20
-17.493904
  30
43.062469
  11
79.355301
  21
-13.493904
  31
43.062469
  12
81.523026
  22
-13.493904
  32
39.818237
  13
81.523026
  23
-17.493904
  33
39.818237
   0
3DFACE
   8
0
  62
3
  10
81.523026
  20
-13.493904
  30
39.818237
  11
81.523026
  21
-17.493904
  31
39.818237
  12
82.284225
  22
-17.493904
  32
35.991409
  13
82.284225
  23
-13.493904
  33
35.991409
   0
3DFACE
   8
0
  62
3
  10
82.284225
  20
-17.493904
  30
35.991409
  11
82.284225
  21
-13.493904
  31
35.991409
  12
81.523026
  22
-13.493904
  32
32.164566
  13
81.523026
  23
-17.493904
  33
32.164566
   0
3DFACE
   8
0
  62
3
  10
81.523026
  20
-13.493904
  30
32.164566
  11
81.523026
  21
-17.493904
  31
32.164566
  12
79.355301
  22
-17.493904
  32
28.920334
  13
79.355301
  23
-13.493904
  33
28.920334
   0
3DFACE
   8
0
  62
3
  10
79.355301
  20
-17.493904
  30
28.920334
  11
79.355301
  21
-13.493904
  31
28.920334
  12
76.111069
  22
-13.493904
  32
26.752609
  13
76.111069
  23
-17.493904
  33
26.752609
   0
3DFACE
   8
0
  62
3
  10
76.111069
  20
-13.493904
  30
26.752609
  11
76.111069
  21
-17.493904
  31
26.752609
  12
72.284225
  22
-17.493904
  32
25.991402
  13
72.284225
  23
-13.493904
  33
25.991402
   0
3DFACE
   8
0
  62
3
  10
72.284225
  20
-17.493904
  30
25.991402
  11
72.284225
  21
-13.493904
  31
25.991402
  12
68.457397
  22
-13.493904
  32
26.752609
  13
68.457397
  23
-17.493904
  33
26.752609
   0
3DFACE
   8
0
  62
3
  10
68.457397
  20
-13.493904
  30
26.752609
  11
68.457397
  21
-17.493904
  31
26.752609
  12
59.218597
  22
-17.493904
  32
30.579437
  13
59.218597
  23
-13.493904
  33
30.579437
   0
3DFACE
   8
0
  62
3
  10
66.872269
  20
14.506096
  30
49.057037
  11
66.872269
  21
10.506096
  31
49.057037
  12
76.111069
  22
10.506096
  32
45.230194
  13
76.111069
  23
14.506096
  33
45.230194
   0
3DFACE
   8
0
  62
3
  10
76.111069
  20
10.506096
  30
45.230194
  11
76.111069
  21
14.506096
  31
45.230194
  12
79.355301
  22
14.506096
  32
43.062469
  13
79.355301
  23
10.506096
  33
43.062469
   0
3DFACE
   8
0
  62
3
  10
79.355301
  20
14.506096
  30
43.062469
  11
79.355301
  21
10.506096
  31
43.062469
  12
81.523026
  22
10.506096
  32
39.818237
  13
81.523026
  23
14.506096
  33
39.818237
   0
3DFACE
   8
0
  62
3
  10
81.523026
  20
10.506096
  30
39.818237
  11
81.523026
  21
14.506096
  31
39.818237
  12
82.284225
  22
14.506096
  32
35.991409
  13
82.284225
  23
10.506096
  33
35.991409
   0
3DFACE
   8
0
  62
3
  10
82.284225
  20
14.506096
  30
35.991409
  11
82.284225
  21
10.506096
  31
35.991409
  12
81.523026
  22
10.506096
  32
32.164566
  13
81.523026
  23
14.506096
  33
32.164566
   0
3DFACE
   8
0
  62
3
  10
81.523026
  20
10.506096
  30
32.164566
  11
81.523026
  21
14.506096
  31
32.164566
  12
79.355301
  22
14.506096
  32
28.920334
  13
79.355301
  23
10.506096
  33
28.920334
   0
3DFACE
   8
0
  62
3
  10
79.355301
  20
14.506096
  30
28.920334
  11
79.355301
  21
10.506096
  31
28.920334
  12
76.111069
  22
10.506096
  32
26.752609
  13
76.111069
  23
14.506096
  33
26.752609
   0
3DFACE
   8
0
  62
3
  10
76.111069
  20
10.506096
  30
26.752609
  11
76.111069
  21
14.506096
  31
26.752609
  12
72.284225
  22
14.506096
  32
25.991402
  13
72.284225
  23
10.506096
  33
25.991402
   0
3DFACE
   8
0
  62
3
  10
72.284225
  20
14.506096
  30
25.991402
  11
72.284225
  21
10.506096
  31
25.991402
  12
68.457397
  22
10.506096
  32
26.752609
  13
68.457397
  23
14.506096
  33
26.752609
   0
3DFACE
   8
0
  62
3
  10
68.457397
  20
10.506096
  30
26.752609
  11
68.457397
  21
14.506096
  31
26.752609
  12
59.218597
  22
14.506096
  32
30.579437
  13
59.218597
  23
10.506096
  33
30.579437
   0
3DFACE
   8
0
  62
5
  10
-78.961914
  20
42.506096
  30
-25.000000
  11
-92.820107
  21
42.506096
  31
-30.740250
  12
-93.961914
  22
42.506096
  32
-25.000000
  13
-78.961914
  23
42.506096
  33
-25.000000
   0
3DFACE
   8
0
  62
5
  10
-78.961914
  20
42.506096
  30
-25.000000
  11
-89.568512
  21
42.506096
  31
-35.606606
  12
-92.820107
  22
42.506096
  32
-30.740250
  13
-78.961914
  23
42.506096
  33
-25.000000
   0
3DFACE
   8
0
  62
5
  10
-78.961914
  20
42.506096
  30
-25.000000
  11
-84.702164
  21
42.506096
  31
-38.858192
  12
-89.568512
  22
42.506096
  32
-35.606606
  13
-78.961914
  23
42.506096
  33
-25.000000
   0
3DFACE
   8
0
  62
5
  10
-78.961914
  20
42.506096
  30
-25.000000
  11
-78.961914
  21
42.506096
  31
-40.000000
  12
-84.702164
  22
42.506096
  32
-38.858192
  13
-78.961914
  23
42.506096
  33
-25.000000
   0
3DFACE
   8
0
  62
5
  10
-78.961914
  20
42.506096
  30
-25.000000
  11
-73.221664
  21
42.506096
  31
-38.858192
  12
-78.961914
  22
42.506096
  32
-40.000000
  13
-78.961914
  23
42.506096
  33
-25.000000
   0
3DFACE
   8
0
  62
5
  10
-78.961914
  20
42.506096
  30
-25.000000
  11
-68.355309
  21
42.506096
  31
-35.606606
  12
-73.221664
  22
42.506096
  32
-38.858192
  13
-78.961914
  23
42.506096
  33
-25.000000
   0
3DFACE
   8
0
  62
5
  10
-78.961914
  20
42.506096
  30
-25.000000
  11
-65.103722
  21
42.506096
  31
-30.740250
  12
-68.355309
  22
42.506096
  32
-35.606606
  13
-78.961914
  23
42.506096
  33
-25.000000
   0
3DFACE
   8
0
  62
5
  10
-78.961914
  20
42.506096
  30
-25.000000
  11
-63.961914
  21
42.506096
  31
-25.000000
  12
-65.103722
  22
42.506096
  32
-30.740250
  13
-78.961914
  23
42.506096
  33
-25.000000
   0
3DFACE
   8
0
  62
5
  10
-78.961914
  20
42.506096
  30
-25.000000
  11
-65.103722
  21
42.506096
  31
-19.259750
  12
-63.961914
  22
42.506096
  32
-25.000000
  13
-78.961914
  23
42.506096
  33
-25.000000
   0
3DFACE
   8
0
  62
5
  10
-78.961914
  20
42.506096
  30
-25.000000
  11
-68.355309
  21
42.506096
  31
-14.393394
  12
-65.103722
  22
42.506096
  32
-19.259750
  13
-78.961914
  23
42.506096
  33
-25.000000
   0
3DFACE
   8
0
  62
5
  10
-78.961914
  20
42.506096
  30
-25.000000
  11
-73.221664
  21
42.506096
  31
-11.141808
  12
-68.355309
  22
42.506096
  32
-14.393394
  13
-78.961914
  23
42.506096
  33
-25.000000
   0
3DFACE
   8
0
  62
5
  10
-78.961914
  20
42.506096
  30
-25.000000
  11
-78.961914
  21
42.506096
  31
-10.000000
  12
-73.221664
  22
42.506096
  32
-11.141808
  13
-78.961914
  23
42.506096
  33
-25.000000
   0
3DFACE
   8
0
  62
5
  10
-78.961914
  20
42.506096
  30
-25.000000
  11
-84.702164
  21
42.506096
  31
-11.141808
  12
-78.961914
  22
42.506096
  32
-10.000000
  13
-78.961914
  23
42.506096
  33
-25.000000
   0
3DFACE
   8
0
  62
5
  10
-78.961914
  20
42.506096
  30
-25.000000
  11
-89.568512
  21
42.506096
  31
-14.393394
  12
-84.702164
  22
42.506096
  32
-11.141808
  13
-78.961914
  23
42.506096
  33
-25.000000
   0
3DFACE
   8
0
  62
5
  10
-78.961914
  20
42.506096
  30
-25.000000
  11
-92.820107
  21
42.506096
  31
-19.259750
  12
-89.568512
  22
42.506096
  32
-14.393394
  13
-78.961914
  23
42.506096
  33
-25.000000
   0
3DFACE
   8
0
  62
5
  10
-78.961914
  20
42.506096
  30
-25.000000
  11
-93.961914
  21
42.506096
  31
-25.000000
  12
-92.820107
  22
42.506096
  32
-19.259750
  13
-78.961914
  23
42.506096
  33
-25.000000
   0
3DFACE
   8
0
  62
5
  10
-92.820107
  20
42.506096
  30
-30.740250
  11
-92.820107
  21
22.506096
  31
-30.740250
  12
-93.961914
  22
22.506096
  32
-25.000000
  13
-93.961914
  23
42.506096
  33
-25.000000
   0
3DFACE
   8
0
  62
5
  10
-89.568512
  20
42.506096
  30
-35.606606
  11
-89.568512
  21
22.506096
  31
-35.606606
  12
-92.820107
  22
22.506096
  32
-30.740250
  13
-92.820107
  23
42.506096
  33
-30.740250
   0
3DFACE
   8
0
  62
5
  10
-84.702164
  20
42.506096
  30
-38.858192
  11
-84.702164
  21
22.506096
  31
-38.858192
  12
-89.568512
  22
22.506096
  32
-35.606606
  13
-89.568512
  23
42.506096
  33
-35.606606
   0
3DFACE
   8
0
  62
5
  10
-78.961914
  20
42.506096
  30
-40.000000
  11
-78.961914
  21
22.506096
  31
-40.000000
  12
-84.702164
  22
22.506096
  32
-38.858192
  13
-84.702164
  23
42.506096
  33
-38.858192
   0
3DFACE
   8
0
  62
5
  10
-73.221664
  20
42.506096
  30
-38.858192
  11
-73.221664
  21
22.506096
  31
-38.858192
  12
-78.961914
  22
22.506096
  32
-40.000000
  13
-78.961914
  23
42.506096
  33
-40.000000
   0
3DFACE
   8
0
  62
5
  10
-68.355309
  20
42.506096
  30
-35.606606
  11
-68.355309
  21
22.506096
  31
-35.606606
  12
-73.221664
  22
22.506096
  32
-38.858192
  13
-73.221664
  23
42.506096
  33
-38.858192
   0
3DFACE
   8
0
  62
5
  10
-65.103722
  20
42.506096
  30
-30.740250
  11
-65.103722
  21
22.506096
  31
-30.740250
  12
-68.355309
  22
22.506096
  32
-35.606606
  13
-68.355309
  23
42.506096
  33
-35.606606
   0
3DFACE
   8
0
  62
5
  10
-63.961914
  20
42.506096
  30
-25.000000
  11
-63.961914
  21
22.506096
  31
-25.000000
  12
-65.103722
  22
22.506096
  32
-30.740250
  13
-65.103722
  23
42.506096
  33
-30.740250
   0
3DFACE
   8
0
  62
5
  10
-65.103722
  20
42.506096
  30
-19.259750
  11
-65.103722
  21
22.506096
  31
-19.259750
  12
-63.961914
  22
22.506096
  32
-25.000000
  13
-63.961914
  23
42.506096
  33
-25.000000
   0
3DFACE
   8
0
  62
5
  10
-68.355309
  20
42.506096
  30
-14.393394
  11
-68.355309
  21
22.506096
  31
-14.393394
  12
-65.103722
  22
22.506096
  32
-19.259750
  13
-65.103722
  23
42.506096
  33
-19.259750
   0
3DFACE
   8
0
  62
5
  10
-73.221664
  20
42.506096
  30
-11.141808
  11
-73.221664
  21
22.506096
  31
-11.141808
  12
-68.355309
  22
22.506096
  32
-14.393394
  13
-68.355309
  23
42.506096
  33
-14.393394
   0
3DFACE
   8
0
  62
5
  10
-78.961914
  20
42.506096
  30
-10.000000
  11
-78.961914
  21
22.506096
  31
-10.000000
  12
-73.221664
  22
22.506096
  32
-11.141808
  13
-73.221664
  23
42.506096
  33
-11.141808
   0
3DFACE
   8
0
  62
5
  10
-84.702164
  20
42.506096
  30
-11.141808
  11
-84.702164
  21
22.506096
  31
-11.141808
  12
-78.961914
  22
22.506096
  32
-10.000000
  13
-78.961914
  23
42.506096
  33
-10.000000
   0
3DFACE
   8
0
  62
5
  10
-89.568512
  20
42.506096
  30
-14.393394
  11
-89.568512
  21
22.506096
  31
-14.393394
  12
-84.702164
  22
22.506096
  32
-11.141808
  13
-84.702164
  23
42.506096
  33
-11.141808
   0
3DFACE
   8
0
  62
5
  10
-92.820107
  20
42.506096
  30
-19.259750
  11
-92.820107
  21
22.506096
  31
-19.259750
  12
-89.568512
  22
22.506096
  32
-14.393394
  13
-89.568512
  23
42.506096
  33
-14.393394
   0
3DFACE
   8
0
  62
5
  10
-93.961914
  20
42.506096
  30
-25.000000
  11
-93.961914
  21
22.506096
  31
-25.000000
  12
-92.820107
  22
22.506096
  32
-19.259750
  13
-92.820107
  23
42.506096
  33
-19.259750
   0
3DFACE
   8
0
  62
2
  10
-78.961914
  20
18.506096
  30
-25.000000
  11
-55.864929
  21
18.506096
  31
-15.432915
  12
-61.284241
  22
18.506096
  32
-7.322327
  13
-78.961914
  23
18.506096
  33
-25.000000
   0
3DFACE
   8
0
  62
2
  10
-78.961914
  20
18.506096
  30
-25.000000
  11
-61.284241
  21
18.506096
  31
-7.322327
  12
-69.394829
  22
18.506096
  32
-1.903015
  13
-78.961914
  23
18.506096
  33
-25.000000
   0
3DFACE
   8
0
  62
2
  10
-78.961914
  20
18.506096
  30
-25.000000
  11
-69.394829
  21
18.506096
  31
-1.903015
  12
-78.961914
  22
18.506096
  32
0.000000
  13
-78.961914
  23
18.506096
  33
-25.000000
   0
3DFACE
   8
0
  62
2
  10
-78.961914
  20
18.506096
  30
-25.000000
  11
-78.961914
  21
18.506096
  31
0.000000
  12
-88.528999
  22
18.506096
  32
-1.903015
  13
-78.961914
  23
18.506096
  33
-25.000000
   0
3DFACE
   8
0
  62
2
  10
-78.961914
  20
18.506096
  30
-25.000000
  11
-88.528999
  21
18.506096
  31
-1.903015
  12
-96.639587
  22
18.506096
  32
-7.322327
  13
-78.961914
  23
18.506096
  33
-25.000000
   0
3DFACE
   8
0
  62
2
  10
-78.961914
  20
18.506096
  30
-25.000000
  11
-96.639587
  21
18.506096
  31
-7.322327
  12
-102.058899
  22
18.506096
  32
-15.432915
  13
-78.961914
  23
18.506096
  33
-25.000000
   0
3DFACE
   8
0
  62
2
  10
-78.961914
  20
18.506096
  30
-25.000000
  11
-102.058899
  21
18.506096
  31
-15.432915
  12
-103.961914
  22
18.506096
  32
-25.000000
  13
-78.961914
  23
18.506096
  33
-25.000000
   0
3DFACE
   8
0
  62
2
  10
-78.961914
  20
18.506096
  30
-25.000000
  11
-53.961914
  21
18.506096
  31
-25.000000
  12
-55.864929
  22
18.506096
  32
-15.432915
  13
-78.961914
  23
18.506096
  33
-25.000000
   0
3DFACE
   8
0
  62
2
  10
-103.961914
  20
18.506096
  30
-50.000000
  11
-53.961914
  21
18.506096
  31
-50.000000
  12
-53.961914
  22
18.506096
  32
-25.000000
  13
-103.961914
  23
18.506096
  33
-25.000000
   0
3DFACE
   8
0
  62
2
  10
-78.961914
  20
-21.493904
  30
-25.000000
  11
-55.864929
  21
-21.493904
  31
-15.432915
  12
-61.284241
  22
-21.493904
  32
-7.322327
  13
-78.961914
  23
-21.493904
  33
-25.000000
   0
3DFACE
   8
0
  62
2
  10
-78.961914
  20
-21.493904
  30
-25.000000
  11
-61.284241
  21
-21.493904
  31
-7.322327
  12
-69.394829
  22
-21.493904
  32
-1.903015
  13
-78.961914
  23
-21.493904
  33
-25.000000
   0
3DFACE
   8
0
  62
2
  10
-78.961914
  20
-21.493904
  30
-25.000000
  11
-69.394829
  21
-21.493904
  31
-1.903015
  12
-78.961914
  22
-21.493904
  32
0.000000
  13
-78.961914
  23
-21.493904
  33
-25.000000
   0
3DFACE
   8
0
  62
2
  10
-78.961914
  20
-21.493904
  30
-25.000000
  11
-78.961914
  21
-21.493904
  31
0.000000
  12
-88.528999
  22
-21.493904
  32
-1.903015
  13
-78.961914
  23
-21.493904
  33
-25.000000
   0
3DFACE
   8
0
  62
2
  10
-78.961914
  20
-21.493904
  30
-25.000000
  11
-88.528999
  21
-21.493904
  31
-1.903015
  12
-96.639587
  22
-21.493904
  32
-7.322327
  13
-78.961914
  23
-21.493904
  33
-25.000000
   0
3DFACE
   8
0
  62
2
  10
-78.961914
  20
-21.493904
  30
-25.000000
  11
-96.639587
  21
-21.493904
  31
-7.322327
  12
-102.058899
  22
-21.493904
  32
-15.432915
  13
-78.961914
  23
-21.493904
  33
-25.000000
   0
3DFACE
   8
0
  62
2
  10
-78.961914
  20
-21.493904
  30
-25.000000
  11
-102.058899
  21
-21.493904
  31
-15.432915
  12
-103.961914
  22
-21.493904
  32
-25.000000
  13
-78.961914
  23
-21.493904
  33
-25.000000
   0
3DFACE
   8
0
  62
2
  10
-78.961914
  20
-21.493904
  30
-25.000000
  11
-53.961914
  21
-21.493904
  31
-25.000000
  12
-55.864929
  22
-21.493904
  32
-15.432915
  13
-78.961914
  23
-21.493904
  33
-25.000000
   0
3DFACE
   8
0
  62
2
  10
-103.961914
  20
-21.493904
  30
-50.000000
  11
-53.961914
  21
-21.493904
  31
-50.000000
  12
-53.961914
  22
-21.493904
  32
-25.000000
  13
-103.961914
  23
-21.493904
  33
-25.000000
   0
3DFACE
   8
0
  62
2
  10
-103.961914
  20
-25.493904
  30
-25.000000
  11
-103.961914
  21
-25.493904
  31
-50.000000
  12
-103.961914
  22
-21.493904
  32
-50.000000
  13
-103.961914
  23
-21.493904
  33
-25.000000
   0
3DFACE
   8
0
  62
2
  10
-53.961914
  20
-25.493904
  30
-25.000000
  11
-53.961914
  21
-25.493904
  31
-50.000000
  12
-53.961914
  22
-21.493904
  32
-50.000000
  13
-53.961914
  23
-21.493904
  33
-25.000000
   0
3DFACE
   8
0
  62
2
  10
-53.961914
  20
-21.493904
  30
-25.000000
  11
-53.961914
  21
-25.493904
  31
-25.000000
  12
-55.864929
  22
-25.493904
  32
-15.432915
  13
-55.864929
  23
-21.493904
  33
-15.432915
   0
3DFACE
   8
0
  62
2
  10
-55.864929
  20
-21.493904
  30
-15.432915
  11
-55.864929
  21
-25.493904
  31
-15.432915
  12
-61.284241
  22
-25.493904
  32
-7.322327
  13
-61.284241
  23
-21.493904
  33
-7.322327
   0
3DFACE
   8
0
  62
2
  10
-61.284241
  20
-21.493904
  30
-7.322327
  11
-61.284241
  21
-25.493904
  31
-7.322327
  12
-69.394829
  22
-25.493904
  32
-1.903015
  13
-69.394829
  23
-21.493904
  33
-1.903015
   0
3DFACE
   8
0
  62
2
  10
-69.394829
  20
-21.493904
  30
-1.903015
  11
-69.394829
  21
-25.493904
  31
-1.903015
  12
-78.961914
  22
-25.493904
  32
0.000000
  13
-78.961914
  23
-21.493904
  33
0.000000
   0
3DFACE
   8
0
  62
2
  10
-78.961914
  20
-21.493904
  30
0.000000
  11
-78.961914
  21
-25.493904
  31
0.000000
  12
-88.528999
  22
-25.493904
  32
-1.903015
  13
-88.528999
  23
-21.493904
  33
-1.903015
   0
3DFACE
   8
0
  62
2
  10
-88.528999
  20
-21.493904
  30
-1.903015
  11
-88.528999
  21
-25.493904
  31
-1.903015
  12
-96.639587
  22
-25.493904
  32
-7.322327
  13
-96.639587
  23
-21.493904
  33
-7.322327
   0
3DFACE
   8
0
  62
2
  10
-96.639587
  20
-21.493904
  30
-7.322327
  11
-96.639587
  21
-25.493904
  31
-7.322327
  12
-102.058899
  22
-25.493904
  32
-15.432915
  13
-102.058899
  23
-21.493904
  33
-15.432915
   0
3DFACE
   8
0
  62
2
  10
-102.058899
  20
-21.493904
  30
-15.432915
  11
-102.058899
  21
-25.493904
  31
-15.432915
  12
-103.961914
  22
-25.493904
  32
-25.000000
  13
-103.961914
  23
-21.493904
  33
-25.000000
   0
3DFACE
   8
0
  62
2
  10
-78.961914
  20
-25.493904
  30
-25.000000
  11
-53.961914
  21
-25.493904
  31
-25.000000
  12
-55.864929
  22
-25.493904
  32
-15.432915
  13
-78.961914
  23
-25.493904
  33
-25.000000
   0
3DFACE
   8
0
  62
2
  10
-78.961914
  20
-25.493904
  30
-25.000000
  11
-102.058899
  21
-25.493904
  31
-15.432915
  12
-103.961914
  22
-25.493904
  32
-25.000000
  13
-78.961914
  23
-25.493904
  33
-25.000000
   0
3DFACE
   8
0
  62
2
  10
-78.961914
  20
-25.493904
  30
-25.000000
  11
-96.639587
  21
-25.493904
  31
-7.322327
  12
-102.058899
  22
-25.493904
  32
-15.432915
  13
-78.961914
  23
-25.493904
  33
-25.000000
   0
3DFACE
   8
0
  62
2
  10
-78.961914
  20
-25.493904
  30
-25.000000
  11
-88.528999
  21
-25.493904
  31
-1.903015
  12
-96.639587
  22
-25.493904
  32
-7.322327
  13
-78.961914
  23
-25.493904
  33
-25.000000
   0
3DFACE
   8
0
  62
2
  10
-78.961914
  20
-25.493904
  30
-25.000000
  11
-78.961914
  21
-25.493904
  31
0.000000
  12
-88.528999
  22
-25.493904
  32
-1.903015
  13
-78.961914
  23
-25.493904
  33
-25.000000
   0
3DFACE
   8
0
  62
2
  10
-78.961914
  20
-25.493904
  30
-25.000000
  11
-69.394829
  21
-25.493904
  31
-1.903015
  12
-78.961914
  22
-25.493904
  32
0.000000
  13
-78.961914
  23
-25.493904
  33
-25.000000
   0
3DFACE
   8
0
  62
2
  10
-78.961914
  20
-25.493904
  30
-25.000000
  11
-61.284241
  21
-25.493904
  31
-7.322327
  12
-69.394829
  22
-25.493904
  32
-1.903015
  13
-78.961914
  23
-25.493904
  33
-25.000000
   0
3DFACE
   8
0
  62
2
  10
-78.961914
  20
-25.493904
  30
-25.000000
  11
-55.864929
  21
-25.493904
  31
-15.432915
  12
-61.284241
  22
-25.493904
  32
-7.322327
  13
-78.961914
  23
-25.493904
  33
-25.000000
   0
3DFACE
   8
0
  62
2
  10
-103.961914
  20
-25.493904
  30
-50.000000
  11
-53.961914
  21
-25.493904
  31
-50.000000
  12
-53.961914
  22
-25.493904
  32
-25.000000
  13
-103.961914
  23
-25.493904
  33
-25.000000
   0
3DFACE
   8
0
  62
2
  10
-103.961914
  20
22.506096
  30
-50.000000
  11
-53.961914
  21
22.506096
  31
-50.000000
  12
-53.961914
  22
22.506096
  32
-25.000000
  13
-103.961914
  23
22.506096
  33
-25.000000
   0
3DFACE
   8
0
  62
2
  10
-78.961914
  20
22.506096
  30
-25.000000
  11
-55.864929
  21
22.506096
  31
-15.432915
  12
-61.284241
  22
22.506096
  32
-7.322327
  13
-78.961914
  23
22.506096
  33
-25.000000
   0
3DFACE
   8
0
  62
2
  10
-78.961914
  20
22.506096
  30
-25.000000
  11
-61.284241
  21
22.506096
  31
-7.322327
  12
-69.394829
  22
22.506096
  32
-1.903015
  13
-78.961914
  23
22.506096
  33
-25.000000
   0
3DFACE
   8
0
  62
2
  10
-78.961914
  20
22.506096
  30
-25.000000
  11
-69.394829
  21
22.506096
  31
-1.903015
  12
-78.961914
  22
22.506096
  32
0.000000
  13
-78.961914
  23
22.506096
  33
-25.000000
   0
3DFACE
   8
0
  62
2
  10
-78.961914
  20
22.506096
  30
-25.000000
  11
-78.961914
  21
22.506096
  31
0.000000
  12
-88.528999
  22
22.506096
  32
-1.903015
  13
-78.961914
  23
22.506096
  33
-25.000000
   0
3DFACE
   8
0
  62
2
  10
-78.961914
  20
22.506096
  30
-25.000000
  11
-88.528999
  21
22.506096
  31
-1.903015
  12
-96.639587
  22
22.506096
  32
-7.322327
  13
-78.961914
  23
22.506096
  33
-25.000000
   0
3DFACE
   8
0
  62
2
  10
-78.961914
  20
22.506096
  30
-25.000000
  11
-96.639587
  21
22.506096
  31
-7.322327
  12
-102.058899
  22
22.506096
  32
-15.432915
  13
-78.961914
  23
22.506096
  33
-25.000000
   0
3DFACE
   8
0
  62
2
  10
-78.961914
  20
22.506096
  30
-25.000000
  11
-102.058899
  21
22.506096
  31
-15.432915
  12
-103.961914
  22
22.506096
  32
-25.000000
  13
-78.961914
  23
22.506096
  33
-25.000000
   0
3DFACE
   8
0
  62
2
  10
-78.961914
  20
22.506096
  30
-25.000000
  11
-53.961914
  21
22.506096
  31
-25.000000
  12
-55.864929
  22
22.506096
  32
-15.432915
  13
-78.961914
  23
22.506096
  33
-25.000000
   0
3DFACE
   8
0
  62
2
  10
-102.058899
  20
18.506096
  30
-15.432915
  11
-102.058899
  21
22.506096
  31
-15.432915
  12
-103.961914
  22
22.506096
  32
-25.000000
  13
-103.961914
  23
18.506096
  33
-25.000000
   0
3DFACE
   8
0
  62
2
  10
-96.639587
  20
18.506096
  30
-7.322327
  11
-96.639587
  21
22.506096
  31
-7.322327
  12
-102.058899
  22
22.506096
  32
-15.432915
  13
-102.058899
  23
18.506096
  33
-15.432915
   0
3DFACE
   8
0
  62
2
  10
-88.528999
  20
18.506096
  30
-1.903015
  11
-88.528999
  21
22.506096
  31
-1.903015
  12
-96.639587
  22
22.506096
  32
-7.322327
  13
-96.639587
  23
18.506096
  33
-7.322327
   0
3DFACE
   8
0
  62
2
  10
-78.961914
  20
18.506096
  30
0.000000
  11
-78.961914
  21
22.506096
  31
0.000000
  12
-88.528999
  22
22.506096
  32
-1.903015
  13
-88.528999
  23
18.506096
  33
-1.903015
   0
3DFACE
   8
0
  62
2
  10
-69.394829
  20
18.506096
  30
-1.903015
  11
-69.394829
  21
22.506096
  31
-1.903015
  12
-78.961914
  22
22.506096
  32
0.000000
  13
-78.961914
  23
18.506096
  33
0.000000
   0
3DFACE
   8
0
  62
2
  10
-61.284241
  20
18.506096
  30
-7.322327
  11
-61.284241
  21
22.506096
  31
-7.322327
  12
-69.394829
  22
22.506096
  32
-1.903015
  13
-69.394829
  23
18.506096
  33
-1.903015
   0
3DFACE
   8
0
  62
2
  10
-55.864929
  20
18.506096
  30
-15.432915
  11
-55.864929
  21
22.506096
  31
-15.432915
  12
-61.284241
  22
22.506096
  32
-7.322327
  13
-61.284241
  23
18.506096
  33
-7.322327
   0
3DFACE
   8
0
  62
2
  10
-53.961914
  20
18.506096
  30
-25.000000
  11
-53.961914
  21
22.506096
  31
-25.000000
  12
-55.864929
  22
22.506096
  32
-15.432915
  13
-55.864929
  23
18.506096
  33
-15.432915
   0
3DFACE
   8
0
  62
2
  10
-53.961914
  20
22.506096
  30
-25.000000
  11
-53.961914
  21
22.506096
  31
-50.000000
  12
-53.961914
  22
18.506096
  32
-50.000000
  13
-53.961914
  23
18.506096
  33
-25.000000
   0
3DFACE
   8
0
  62
2
  10
-103.961914
  20
22.506096
  30
-25.000000
  11
-103.961914
  21
22.506096
  31
-50.000000
  12
-103.961914
  22
18.506096
  32
-50.000000
  13
-103.961914
  23
18.506096
  33
-25.000000
   0
3DFACE
   8
0
  62
3
  10
-60.484322
  20
-21.493904
  30
-32.653671
  11
-60.484322
  21
18.506096
  31
-32.653671
  12
-58.961914
  22
18.506096
  32
-25.000000
  13
-58.961914
  23
-21.493904
  33
-25.000000
   0
3DFACE
   8
0
  62
3
  10
-64.819778
  20
-21.493904
  30
-39.142136
  11
-64.819778
  21
18.506096
  31
-39.142136
  12
-60.484322
  22
18.506096
  32
-32.653671
  13
-60.484322
  23
-21.493904
  33
-32.653671
   0
3DFACE
   8
0
  62
3
  10
-71.308243
  20
-21.493904
  30
-43.477592
  11
-71.308243
  21
18.506096
  31
-43.477592
  12
-64.819778
  22
18.506096
  32
-39.142136
  13
-64.819778
  23
-21.493904
  33
-39.142136
   0
3DFACE
   8
0
  62
3
  10
-78.961914
  20
-21.493904
  30
-45.000000
  11
-78.961914
  21
18.506096
  31
-45.000000
  12
-71.308243
  22
18.506096
  32
-43.477592
  13
-71.308243
  23
-21.493904
  33
-43.477592
   0
3DFACE
   8
0
  62
3
  10
-86.615585
  20
-21.493904
  30
-43.477592
  11
-86.615585
  21
18.506096
  31
-43.477592
  12
-78.961914
  22
18.506096
  32
-45.000000
  13
-78.961914
  23
-21.493904
  33
-45.000000
   0
3DFACE
   8
0
  62
3
  10
-93.104050
  20
-21.493904
  30
-39.142136
  11
-93.104050
  21
18.506096
  31
-39.142136
  12
-86.615585
  22
18.506096
  32
-43.477592
  13
-86.615585
  23
-21.493904
  33
-43.477592
   0
3DFACE
   8
0
  62
3
  10
-97.439507
  20
-21.493904
  30
-32.653671
  11
-97.439507
  21
18.506096
  31
-32.653671
  12
-93.104050
  22
18.506096
  32
-39.142136
  13
-93.104050
  23
-21.493904
  33
-39.142136
   0
3DFACE
   8
0
  62
3
  10
-98.961914
  20
-21.493904
  30
-25.000000
  11
-98.961914
  21
18.506096
  31
-25.000000
  12
-97.439507
  22
18.506096
  32
-32.653671
  13
-97.439507
  23
-21.493904
  33
-32.653671
   0
3DFACE
   8
0
  62
1
  10
-78.961914
  20
-1.493904
  30
-50.000000
  11
-111.297699
  21
11.900017
  31
-50.000000
  12
-113.961914
  22
-1.493904
  32
-50.000000
  13
-78.961914
  23
-1.493904
  33
-50.000000
   0
3DFACE
   8
0
  62
1
  10
-78.961914
  20
-1.493904
  30
-50.000000
  11
-103.710648
  21
23.254829
  31
-50.000000
  12
-111.297699
  22
11.900017
  32
-50.000000
  13
-78.961914
  23
-1.493904
  33
-50.000000
   0
3DFACE
   8
0
  62
1
  10
-78.961914
  20
-1.493904
  30
-50.000000
  11
-92.355835
  21
30.841881
  31
-50.000000
  12
-103.710648
  22
23.254829
  32
-50.000000
  13
-78.961914
  23
-1.493904
  33
-50.000000
   0
3DFACE
   8
0
  62
1
  10
-78.961914
  20
-1.493904
  30
-50.000000
  11
-78.961914
  21
33.506096
  31
-50.000000
  12
-92.355835
  22
30.841881
  32
-50.000000
  13
-78.961914
  23
-1.493904
  33
-50.000000
   0
3DFACE
   8
0
  62
1
  10
-78.961914
  20
-1.493904
  30
-50.000000
  11
-65.567993
  21
30.841881
  31
-50.000000
  12
-78.961914
  22
33.506096
  32
-50.000000
  13
-78.961914
  23
-1.493904
  33
-50.000000
   0
3DFACE
   8
0
  62
1
  10
-78.961914
  20
-1.493904
  30
-50.000000
  11
-54.213181
  21
23.254829
  31
-50.000000
  12
-65.567993
  22
30.841881
  32
-50.000000
  13
-78.961914
  23
-1.493904
  33
-50.000000
   0
3DFACE
   8
0
  62
1
  10
-78.961914
  20
-1.493904
  30
-50.000000
  11
-46.626129
  21
11.900017
  31
-50.000000
  12
-54.213181
  22
23.254829
  32
-50.000000
  13
-78.961914
  23
-1.493904
  33
-50.000000
   0
3DFACE
   8
0
  62
1
  10
-78.961914
  20
-1.493904
  30
-50.000000
  11
-43.961914
  21
-1.493904
  31
-50.000000
  12
-46.626129
  22
11.900017
  32
-50.000000
  13
-78.961914
  23
-1.493904
  33
-50.000000
   0
3DFACE
   8
0
  62
1
  10
-78.961914
  20
-1.493904
  30
-50.000000
  11
-46.626129
  21
-14.887825
  31
-50.000000
  12
-43.961914
  22
-1.493904
  32
-50.000000
  13
-78.961914
  23
-1.493904
  33
-50.000000
   0
3DFACE
   8
0
  62
1
  10
-78.961914
  20
-1.493904
  30
-50.000000
  11
-54.213181
  21
-26.242641
  31
-50.000000
  12
-46.626129
  22
-14.887825
  32
-50.000000
  13
-78.961914
  23
-1.493904
  33
-50.000000
   0
3DFACE
   8
0
  62
1
  10
-78.961914
  20
-1.493904
  30
-50.000000
  11
-65.567993
  21
-33.829689
  31
-50.000000
  12
-54.213181
  22
-26.242641
  32
-50.000000
  13
-78.961914
  23
-1.493904
  33
-50.000000
   0
3DFACE
   8
0
  62
1
  10
-78.961914
  20
-1.493904
  30
-50.000000
  11
-78.961914
  21
-36.493904
  31
-50.000000
  12
-65.567993
  22
-33.829689
  32
-50.000000
  13
-78.961914
  23
-1.493904
  33
-50.000000
   0
3DFACE
   8
0
  62
1
  10
-78.961914
  20
-1.493904
  30
-50.000000
  11
-92.355835
  21
-33.829689
  31
-50.000000
  12
-78.961914
  22
-36.493904
  32
-50.000000
  13
-78.961914
  23
-1.493904
  33
-50.000000
   0
3DFACE
   8
0
  62
1
  10
-78.961914
  20
-1.493904
  30
-50.000000
  11
-103.710648
  21
-26.242641
  31
-50.000000
  12
-92.355835
  22
-33.829689
  32
-50.000000
  13
-78.961914
  23
-1.493904
  33
-50.000000
   0
3DFACE
   8
0
  62
1
  10
-78.961914
  20
-1.493904
  30
-50.000000
  11
-111.297699
  21
-14.887825
  31
-50.000000
  12
-103.710648
  22
-26.242641
  32
-50.000000
  13
-78.961914
  23
-1.493904
  33
-50.000000
   0
3DFACE
   8
0
  62
1
  10
-78.961914
  20
-1.493904
  30
-50.000000
  11
-113.961914
  21
-1.493904
  31
-50.000000
  12
-111.297699
  22
-14.887825
  32
-50.000000
  13
-78.961914
  23
-1.493904
  33
-50.000000
   0
3DFACE
   8
0
  62
1
  10
-111.297699
  20
11.900017
  30
-50.000000
  11
-111.297699
  21
11.900017
  31
-70.000000
  12
-113.961914
  22
-1.493904
  32
-70.000000
  13
-113.961914
  23
-1.493904
  33
-50.000000
   0
3DFACE
   8
0
  62
1
  10
-103.710648
  20
23.254829
  30
-50.000000
  11
-103.710648
  21
23.254829
  31
-70.000000
  12
-111.297699
  22
11.900017
  32
-70.000000
  13
-111.297699
  23
11.900017
  33
-50.000000
   0
3DFACE
   8
0
  62
1
  10
-92.355835
  20
30.841881
  30
-50.000000
  11
-92.355835
  21
30.841881
  31
-70.000000
  12
-103.710648
  22
23.254829
  32
-70.000000
  13
-103.710648
  23
23.254829
  33
-50.000000
   0
3DFACE
   8
0
  62
1
  10
-78.961914
  20
33.506096
  30
-50.000000
  11
-78.961914
  21
33.506096
  31
-70.000000
  12
-92.355835
  22
30.841881
  32
-70.000000
  13
-92.355835
  23
30.841881
  33
-50.000000
   0
3DFACE
   8
0
  62
1
  10
-65.567993
  20
30.841881
  30
-50.000000
  11
-65.567993
  21
30.841881
  31
-70.000000
  12
-78.961914
  22
33.506096
  32
-70.000000
  13
-78.961914
  23
33.506096
  33
-50.000000
   0
3DFACE
   8
0
  62
1
  10
-54.213181
  20
23.254829
  30
-50.000000
  11
-54.213181
  21
23.254829
  31
-70.000000
  12
-65.567993
  22
30.841881
  32
-70.000000
  13
-65.567993
  23
30.841881
  33
-50.000000
   0
3DFACE
   8
0
  62
1
  10
-46.626129
  20
11.900017
  30
-50.000000
  11
-46.626129
  21
11.900017
  31
-70.000000
  12
-54.213181
  22
23.254829
  32
-70.000000
  13
-54.213181
  23
23.254829
  33
-50.000000
   0
3DFACE
   8
0
  62
1
  10
-43.961914
  20
-1.493904
  30
-50.000000
  11
-43.961914
  21
-1.493904
  31
-70.000000
  12
-46.626129
  22
11.900017
  32
-70.000000
  13
-46.626129
  23
11.900017
  33
-50.000000
   0
3DFACE
   8
0
  62
1
  10
-46.626129
  20
-14.887825
  30
-50.000000
  11
-46.626129
  21
-14.887825
  31
-70.000000
  12
-43.961914
  22
-1.493904
  32
-70.000000
  13
-43.961914
  23
-1.493904
  33
-50.000000
   0
3DFACE
   8
0
  62
1
  10
-54.213181
  20
-26.242641
  30
-50.000000
  11
-54.213181
  21
-26.242641
  31
-70.000000
  12
-46.626129
  22
-14.887825
  32
-70.000000
  13
-46.626129
  23
-14.887825
  33
-50.000000
   0
3DFACE
   8
0
  62
1
  10
-65.567993
  20
-33.829689
  30
-50.000000
  11
-65.567993
  21
-33.829689
  31
-70.000000
  12
-54.213181
  22
-26.242641
  32
-70.000000
  13
-54.213181
  23
-26.242641
  33
-50.000000
   0
3DFACE
   8
0
  62
1
  10
-78.961914
  20
-36.493904
  30
-50.000000
  11
-78.961914
  21
-36.493904
  31
-70.000000
  12
-65.567993
  22
-33.829689
  32
-70.000000
  13
-65.567993
  23
-33.829689
  33
-50.000000
   0
3DFACE
   8
0
  62
1
  10
-92.355835
  20
-33.829689
  30
-50.000000
  11
-92.355835
  21
-33.829689
  31
-70.000000
  12
-78.961914
  22
-36.493904
  32
-70.000000
  13
-78.961914
  23
-36.493904
  33
-50.000000
   0
3DFACE
   8
0
  62
1
  10
-103.710648
  20
-26.242641
  30
-50.000000
  11
-103.710648
  21
-26.242641
  31
-70.000000
  12
-92.355835
  22
-33.829689
  32
-70.000000
  13
-92.355835
  23
-33.829689
  33
-50.000000
   0
3DFACE
   8
0
  62
1
  10
-111.297699
  20
-14.887825
  30
-50.000000
  11
-111.297699
  21
-14.887825
  31
-70.000000
  12
-103.710648
  22
-26.242641
  32
-70.000000
  13
-103.710648
  23
-26.242641
  33
-50.000000
   0
3DFACE
   8
0
  62
1
  10
-113.961914
  20
-1.493904
  30
-50.000000
  11
-113.961914
  21
-1.493904
  31
-70.000000
  12
-111.297699
  22
-14.887825
  32
-70.000000
  13
-111.297699
  23
-14.887825
  33
-50.000000
   0
3DFACE
   8
0
  62
1
  10
-111.297699
  20
11.900017
  30
-70.000000
  11
-115.917099
  21
13.813431
  31
-70.000000
  12
-118.961914
  22
-1.493904
  32
-70.000000
  13
-113.961914
  23
-1.493904
  33
-70.000000
   0
3DFACE
   8
0
  62
1
  10
-103.710648
  20
23.254829
  30
-70.000000
  11
-107.246185
  21
26.790367
  31
-70.000000
  12
-115.917099
  22
13.813431
  32
-70.000000
  13
-111.297699
  23
11.900017
  33
-70.000000
   0
3DFACE
   8
0
  62
1
  10
-92.355835
  20
30.841881
  30
-70.000000
  11
-94.269257
  21
35.461273
  31
-70.000000
  12
-107.246185
  22
26.790367
  32
-70.000000
  13
-103.710648
  23
23.254829
  33
-70.000000
   0
3DFACE
   8
0
  62
1
  10
-78.961914
  20
33.506096
  30
-70.000000
  11
-78.961914
  21
38.506096
  31
-70.000000
  12
-94.269257
  22
35.461273
  32
-70.000000
  13
-92.355835
  23
30.841881
  33
-70.000000
   0
3DFACE
   8
0
  62
1
  10
-65.567993
  20
30.841881
  30
-70.000000
  11
-63.654579
  21
35.461273
  31
-70.000000
  12
-78.961914
  22
38.506096
  32
-70.000000
  13
-78.961914
  23
33.506096
  33
-70.000000
   0
3DFACE
   8
0
  62
1
  10
-54.213181
  20
23.254829
  30
-70.000000
  11
-50.677643
  21
26.790367
  31
-70.000000
  12
-63.654579
  22
35.461273
  32
-70.000000
  13
-65.567993
  23
30.841881
  33
-70.000000
   0
3DFACE
   8
0
  62
1
  10
-46.626129
  20
11.900017
  30
-70.000000
  11
-42.006737
  21
13.813431
  31
-70.000000
  12
-50.677643
  22
26.790367
  32
-70.000000
  13
-54.213181
  23
23.254829
  33
-70.000000
   0
3DFACE
   8
0
  62
1
  10
-43.961914
  20
-1.493904
  30
-70.000000
  11
-38.961914
  21
-1.493904
  31
-70.000000
  12
-42.006737
  22
13.813431
  32
-70.000000
  13
-46.626129
  23
11.900017
  33
-70.000000
   0
3DFACE
   8
0
  62
1
  10
-46.626129
  20
-14.887825
  30
-70.000000
  11
-42.006737
  21
-16.801239
  31
-70.000000
  12
-38.961914
  22
-1.493904
  32
-70.000000
  13
-43.961914
  23
-1.493904
  33
-70.000000
   0
3DFACE
   8
0
  62
1
  10
-54.213181
  20
-26.242641
  30
-70.000000
  11
-50.677643
  21
-29.778175
  31
-70.000000
  12
-42.006737
  22
-16.801239
  32
-70.000000
  13
-46.626129
  23
-14.887825
  33
-70.000000
   0
3DFACE
   8
0
  62
1
  10
-65.567993
  20
-33.829689
  30
-70.000000
  11
-63.654579
  21
-38.449085
  31
-70.000000
  12
-50.677643
  22
-29.778175
  32
-70.000000
  13
-54.213181
  23
-26.242641
  33
-70.000000
   0
3DFACE
   8
0
  62
1
  10
-78.961914
  20
-36.493904
  30
-70.000000
  11
-78.961914
  21
-41.493904
  31
-70.000000
  12
-63.654579
  22
-38.449085
  32
-70.000000
  13
-65.567993
  23
-33.829689
  33
-70.000000
   0
3DFACE
   8
0
  62
1
  10
-92.355835
  20
-33.829689
  30
-70.000000
  11
-94.269257
  21
-38.449085
  31
-70.000000
  12
-78.961914
  22
-41.493904
  32
-70.000000
  13
-78.961914
  23
-36.493904
  33
-70.000000
   0
3DFACE
   8
0
  62
1
  10
-103.710648
  20
-26.242641
  30
-70.000000
  11
-107.246185
  21
-29.778175
  31
-70.000000
  12
-94.269257
  22
-38.449085
  32
-70.000000
  13
-92.355835
  23
-33.829689
  33
-70.000000
   0
3DFACE
   8
0
  62
1
  10
-111.297699
  20
-14.887825
  30
-70.000000
  11
-115.917099
  21
-16.801239
  31
-70.000000
  12
-107.246185
  22
-29.778175
  32
-70.000000
  13
-103.710648
  23
-26.242641
  33
-70.000000
   0
3DFACE
   8
0
  62
1
  10
-113.961914
  20
-1.493904
  30
-70.000000
  11
-118.961914
  21
-1.493904
  31
-70.000000
  12
-115.917099
  22
-16.801239
  32
-70.000000
  13
-111.297699
  23
-14.887825
  33
-70.000000
   0
3DFACE
   8
0
  62
1
  10
-115.917099
  20
13.813431
  30
-70.000000
  11
-115.917099
  21
13.813431
  31
-100.000000
  12
-118.961914
  22
-1.493904
  32
-100.000000
  13
-118.961914
  23
-1.493904
  33
-70.000000
   0
3DFACE
   8
0
  62
1
  10
-107.246185
  20
26.790367
  30
-70.000000
  11
-107.246185
  21
26.790367
  31
-100.000000
  12
-115.917099
  22
13.813431
  32
-100.000000
  13
-115.917099
  23
13.813431
  33
-70.000000
   0
3DFACE
   8
0
  62
1
  10
-94.269257
  20
35.461273
  30
-70.000000
  11
-94.269257
  21
35.461273
  31
-100.000000
  12
-107.246185
  22
26.790367
  32
-100.000000
  13
-107.246185
  23
26.790367
  33
-70.000000
   0
3DFACE
   8
0
  62
1
  10
-78.961914
  20
38.506096
  30
-70.000000
  11
-78.961914
  21
38.506096
  31
-100.000000
  12
-94.269257
  22
35.461273
  32
-100.000000
  13
-94.269257
  23
35.461273
  33
-70.000000
   0
3DFACE
   8
0
  62
1
  10
-63.654579
  20
35.461273
  30
-70.000000
  11
-63.654579
  21
35.461273
  31
-100.000000
  12
-78.961914
  22
38.506096
  32
-100.000000
  13
-78.961914
  23
38.506096
  33
-70.000000
   0
3DFACE
   8
0
  62
1
  10
-50.677643
  20
26.790367
  30
-70.000000
  11
-50.677643
  21
26.790367
  31
-100.000000
  12
-63.654579
  22
35.461273
  32
-100.000000
  13
-63.654579
  23
35.461273
  33
-70.000000
   0
3DFACE
   8
0
  62
1
  10
-42.006737
  20
13.813431
  30
-70.000000
  11
-42.006737
  21
13.813431
  31
-100.000000
  12
-50.677643
  22
26.790367
  32
-100.000000
  13
-50.677643
  23
26.790367
  33
-70.000000
   0
3DFACE
   8
0
  62
1
  10
-38.961914
  20
-1.493904
  30
-70.000000
  11
-38.961914
  21
-1.493904
  31
-100.000000
  12
-42.006737
  22
13.813431
  32
-100.000000
  13
-42.006737
  23
13.813431
  33
-70.000000
   0
3DFACE
   8
0
  62
1
  10
-42.006737
  20
-16.801239
  30
-70.000000
  11
-42.006737
  21
-16.801239
  31
-100.000000
  12
-38.961914
  22
-1.493904
  32
-100.000000
  13
-38.961914
  23
-1.493904
  33
-70.000000
   0
3DFACE
   8
0
  62
1
  10
-50.677643
  20
-29.778175
  30
-70.000000
  11
-50.677643
  21
-29.778175
  31
-100.000000
  12
-42.006737
  22
-16.801239
  32
-100.000000
  13
-42.006737
  23
-16.801239
  33
-70.000000
   0
3DFACE
   8
0
  62
1
  10
-63.654579
  20
-38.449085
  30
-70.000000
  11
-63.654579
  21
-38.449085
  31
-100.000000
  12
-50.677643
  22
-29.778175
  32
-100.000000
  13
-50.677643
  23
-29.778175
  33
-70.000000
   0
3DFACE
   8
0
  62
1
  10
-78.961914
  20
-41.493904
  30
-70.000000
  11
-78.961914
  21
-41.493904
  31
-100.000000
  12
-63.654579
  22
-38.449085
  32
-100.000000
  13
-63.654579
  23
-38.449085
  33
-70.000000
   0
3DFACE
   8
0
  62
1
  10
-94.269257
  20
-38.449085
  30
-70.000000
  11
-94.269257
  21
-38.449085
  31
-100.000000
  12
-78.961914
  22
-41.493904
  32
-100.000000
  13
-78.961914
  23
-41.493904
  33
-70.000000
   0
3DFACE
   8
0
  62
1
  10
-107.246185
  20
-29.778175
  30
-70.000000
  11
-107.246185
  21
-29.778175
  31
-100.000000
  12
-94.269257
  22
-38.449085
  32
-100.000000
  13
-94.269257
  23
-38.449085
  33
-70.000000
   0
3DFACE
   8
0
  62
1
  10
-115.917099
  20
-16.801239
  30
-70.000000
  11
-115.917099
  21
-16.801239
  31
-100.000000
  12
-107.246185
  22
-29.778175
  32
-100.000000
  13
-107.246185
  23
-29.778175
  33
-70.000000
   0
3DFACE
   8
0
  62
1
  10
-118.961914
  20
-1.493904
  30
-70.000000
  11
-118.961914
  21
-1.493904
  31
-100.000000
  12
-115.917099
  22
-16.801239
  32
-100.000000
  13
-115.917099
  23
-16.801239
  33
-70.000000
   0
ENDSEC
   0
EOF
